<svg xmlns="http://www.w3.org/2000/svg" viewBox="0 0 108.97515 207.25345"><g id="Layer_2" data-name="Layer 2"><g id="Layer_1-2" data-name="Layer 1"><path d="M57.1746,176.03806c0-4.98774-.03039-9.97566.00907-14.96309.03536-4.4703-1.34579-9.55092,4.77988-11.53757a1.79886,1.79886,0,0,0,.98347-1.08969c1.94054-7.16094,7.61766-6.55593,13.13434-6.44505,4.16138.08367,8.33174-.15519,12.48854.0022,6.50357.24612,10.78548,4.67291,10.79667,11.19595A112.03476,112.03476,0,0,1,94.055,187.07766c-3.97574,12.65148-13.83374,19.31751-27.18332,19.0817-5.85422-.10332-9.48126-3.74463-9.51815-9.666-.04247-6.81828-.00988-13.637-.00988-20.45552Z" style="fill:#36b723;stroke:#442a0c;stroke-linecap:round;stroke-linejoin:round;stroke-width:2px"/><path d="M51.37876,177.05684c0,6.824.07863,13.64932-.025,20.47175-.08233,5.4206-2.80328,8.2712-8.21676,8.64542-12.87364.88982-24.20308-5.715-28.17174-18.83241a121.28806,121.28806,0,0,1-4.94133-34.8667c-.02181-6.07975,3.66912-10.13079,9.79118-10.41542,6.96429-.32368,13.95881.03454,20.94.01794a3.26236,3.26236,0,0,1,3.37042,2.33493,13.55151,13.55151,0,0,0,5.516,6.85453c1.88779,1.123,1.84376,2.93085,1.83058,4.81766-.04876,6.9905-.01944,13.98143-.01944,20.97224Z" style="fill:#36b723;stroke:#442a0c;stroke-linecap:round;stroke-linejoin:round;stroke-width:2px"/><path d="M23.41408,43.23387c-4.15512,0-8.31412.11443-12.46449-.02624C4.4372,42.98684.928,39.19088,1.00112,32.68755,1.17669,17.0733,11.2928,5.34481,27.17324,2.15512a56.17823,56.17823,0,0,1,14.8476-1.02841c6.2212.41238,9.32975,3.73264,9.38883,9.83576.05629,5.81565-.131,11.64134.16721,17.44323.12309,2.39529-1.105,3.14377-2.72763,4.12623-3.14569,1.90451-6.18736,4.00278-7.16677,7.87856-.60111,2.37874-2.53726,2.4247-4.31309,2.464-4.64969.103-9.30321.03478-13.95518.03478Z" style="fill:#36b723;stroke:#442a0c;stroke-linecap:round;stroke-linejoin:round;stroke-width:2px"/><path d="M86.411,43.27976c-4.53263-.24264-10.34813-.53068-16.15929-.88848-.94783-.0584-2.53842-.193-2.71176-.68606-1.70645-4.85445-5.41-7.86024-9.34724-10.715a1.86358,1.86358,0,0,1-.79014-1.2309c.14015-7.60754-1.40434-15.30827.78037-22.79692,1.085-3.7191,4.07723-5.592,7.90467-5.84056C76.48826.44623,86.17709,2.54578,95.04405,8.303c8.96052,5.818,12.20248,14.61122,12.9066,24.56772.41269,5.83564-4.44552,10.36233-10.25992,10.40468C94.36056,43.29966,91.03008,43.27976,86.411,43.27976Z" style="fill:#36b723;stroke:#442a0c;stroke-linecap:round;stroke-linejoin:round;stroke-width:2px"/><path d="M79.68088,48.983a90.60215,90.60215,0,0,1,15.89728,1.16255c8.20211,1.5334,12.04631,6.24231,11.73153,14.45041a43.39859,43.39859,0,0,1-2.3492,12.18C101.99818,85.57812,94.6,87.69006,86.51347,88.15215c-5.97365.34138-11.98086.10851-17.97306.097-.814-.00159-2.04295.09838-2.3774-.36054-3.45015-4.73442-11.1026-6.98513-9.02581-15.04414a10.36773,10.36773,0,0,0,.04165-2.49024c.03295-12.59973.05184-12.57734,9.284-20.43569,1.17842-1.00309,2.42262-.92119,3.72968-.92919C73.3552,48.96992,76.5181,48.983,79.68088,48.983Z" style="fill:#36b723;stroke:#442a0c;stroke-linecap:round;stroke-linejoin:round;stroke-width:2px"/><path d="M31.392,88.34493a67.4129,67.4129,0,0,1-14.87341-1.0433C10.4175,85.9812,5.929,82.77079,3.89566,76.62148A47.39814,47.39814,0,0,1,1.63851,61.44131c.02969-5.89154,3.75629-9.8815,10.10738-11.162,9.36015-1.88724,18.86941-1.08151,28.32354-1.23859,1.72939-.02875,2.62453,1.01047,3.56931,2.26883,1.0844,1.44437,2.1981,3.25814,3.72516,3.904,4.25194,1.79838,4.55314,5.3188,4.45385,8.97324-.126,4.63983-.82968,9.269-.00015,13.90814.15421.8623.09526,1.86215-.66751,2.25455-5.6427,2.90278-9.08779,10.55609-17.27467,8.02661A8.77889,8.77889,0,0,0,31.392,88.34493Z" style="fill:#36b723;stroke:#442a0c;stroke-linecap:round;stroke-linejoin:round;stroke-width:2px"/><path d="M28.82711,94.15317c2.17287,0,3.84524.09746,5.50268-.01837C39.148,93.79806,43.7361,93.795,45.17342,99.85a1.37807,1.37807,0,0,0,.49181.847c7.42785,3.98587,6.12246,10.85218,5.783,17.4083-.06024,1.16352-.04727,2.33114-.05316,3.497-.04726,9.358-5.45748,14.593-14.89587,14.6698a60.58039,60.58039,0,0,1-15.78206-1.87363c-8.40713-2.17528-14.59824-6.442-15.17156-15.98443a115.96258,115.96258,0,0,1-.42138-13.4527c.32054-5.65994,4.5643-8.12046,9.33479-9.77507C19.3133,93.50269,24.36829,94.41046,28.82711,94.15317Z" style="fill:#36b723;stroke:#442a0c;stroke-linecap:round;stroke-linejoin:round;stroke-width:2px"/><path d="M79.5187,94.24581c5.08529.0534,10.27816-.62326,15.24637,1.21515,7.1658,2.65172,9.43,6.49222,8.63992,14.52554-.32475,3.30189-.47323,6.62862-.96245,9.90518a17.26362,17.26362,0,0,1-13.635,14.36467c-4.02545.8385-8.14048,1.293-12.134,2.09656-7.95459,1.601-13.32121-2.15581-18.4854-7.16668-1.15318-1.11892-1.02674-2.36032-1.0344-3.65688-.02062-3.49388.05892-6.98922-.00686-10.48194-.09838-5.22275-.9896-10.72183,5.3228-13.38447a.66176.66176,0,0,0,.33287-.36207C65.61676,92.49124,72.77939,93.86586,79.5187,94.24581Z" style="fill:#36b723;stroke:#442a0c;stroke-linecap:round;stroke-linejoin:round;stroke-width:2px"/></g></g></svg>