<svg xmlns="http://www.w3.org/2000/svg" viewBox="0 0 141.70821 137.83714"><g id="Layer_2" data-name="Layer 2"><g id="Layer_1-2" data-name="Layer 1"><path d="M88.91522,136.83714c-1.53979-.66141-1.56313-1.88632-1.64536-3.04045-1.4087-19.77173-2.50925-39.60411.73616-59.24793,4.78909-28.98706,21.2094-50.76588,44.03963-68.2651a39.36877,39.36877,0,0,1,4.40088-3.24715c1.16541-.65762,2.30407-2.70878,3.74493-1.36943,1.19624,1.1119.0191,2.77151-.56272,4.14069-6.81355,16.03448-13.84924,31.97985-20.35793,48.13736-10.42655,25.88332-20.48219,51.91451-28.03846,78.82772C90.80227,134.30467,90.374,135.955,88.91522,136.83714Z" style="fill:#243084;stroke:#442a0c;stroke-linecap:round;stroke-linejoin:round;stroke-width:2px"/><path d="M54.52814,104.89128a251.06715,251.06715,0,0,1-.965,27.40288c-.11665,1.29827.7127,3.477-1.38569,3.621-1.72189.11815-2.12237-1.96553-2.50971-3.31952-1.18488-4.14186-1.98054-8.39887-3.2433-12.51411A886.75472,886.75472,0,0,0,3.83786,9.12028c-.694-1.50656-1.51092-2.96807-2.063-4.52425C1.41744,3.58849.3882,2.26855,1.50776,1.42175,2.63687.56769,3.95558,1.116,5.056,2.12825c8.42617,7.75236,17.69877,14.59328,25.06083,23.48969,15.683,18.95172,24.22749,40.56046,24.413,65.29649C54.56472,95.57348,54.53482,100.23308,54.52814,104.89128Z" style="fill:#243084;stroke:#442a0c;stroke-linecap:round;stroke-linejoin:round;stroke-width:2px"/></g></g></svg>