<svg xmlns="http://www.w3.org/2000/svg" viewBox="0 0 352.05285 133.64437"><g id="Layer_2" data-name="Layer 2"><g id="Layer_1-2" data-name="Layer 1"><path d="M64.15273,22.84828C62.10209,58.49847,49.179,95.70494,17.44785,124.78489c-1.10326,1.01108-2.24511,1.9839-3.412,2.9209-2.14522,1.7224-3.35666,1.37431-4.05235-1.489-2.20887-9.09121-4.91939-18.07147-6.8308-27.221A105.3829,105.3829,0,0,1,1.12623,72.42418C2.41136,45.1536,15.35787,14.91135,47.73944,3.25115,61.726-1.78529,64.22158.36842,64.15273,22.84828Z" style="fill:#dea943;stroke:#442a0c;stroke-linecap:round;stroke-linejoin:round;stroke-width:2px"/><path d="M351.05285,76.69077c-.32847,16.93428-3.61687,32.66814-8.2253,48.18077-1.02979,3.46654-2.27356,4.32945-5.34273,1.478-24.64249-22.89481-40.80054-50.43835-46.76909-83.77366A158.93572,158.93572,0,0,1,287.935,10.33432c.20477-7.8568,1.82276-9.34435,9.5327-8.4349,10.4729,1.23529,19.05712,6.62608,26.98245,13.05624C344.27131,31.03734,350.91289,52.83153,351.05285,76.69077Z" style="fill:#dea943;stroke:#442a0c;stroke-linecap:round;stroke-linejoin:round;stroke-width:2px"/><path d="M305.62091,98.20226c3.65529,2.45448,5.30086,6.5967,7.81313,9.96126a167.38365,167.38365,0,0,0,15.98406,18.43281c1.13139,1.12807,3.76825,2.144,1.947,4.28929a4.71165,4.71165,0,0,1-5.90985,1.20039,32.95857,32.95857,0,0,1-11.9461-9.59974c-4.70287-6.19759-7.15081-13.41779-8.7338-20.95905C304.53385,100.37675,304.24812,99.22213,305.62091,98.20226Z" style="fill:#dea943;stroke:#442a0c;stroke-linecap:round;stroke-linejoin:round;stroke-width:2px"/><path d="M47.73529,101.84419c-2.62452,12.62243-7.22566,23.88184-19.75211,30.07119-2.42962,1.20045-4.06625.82648-5.69318-.94292-2.128-2.31442.47155-3.30115,1.53694-4.31669,8.01148-7.63665,14.37192-16.5676,20.57707-25.64075.59494-.86986,1.135-2.32668,2.61006-1.79722C48.24064,99.65811,47.68589,100.90542,47.73529,101.84419Z" style="fill:#dea943;stroke:#442a0c;stroke-linecap:round;stroke-linejoin:round;stroke-width:2px"/></g></g></svg>