<svg xmlns="http://www.w3.org/2000/svg" viewBox="0 0 416.23109 152.41305"><g id="Layer_2" data-name="Layer 2"><g id="Layer_1-2" data-name="Layer 1"><path d="M377.8193,50.4015c-.49056-16.64248,4.51631-31.5631,10.31905-46.285.48022-1.21827.728-3.32282,2.62737-3.1002,1.42319.16673,1.61884,1.9905,2.10309,3.17264,10.26083,25.04909,16.20375,51.17,19.34483,77.99227a499.2967,499.2967,0,0,1,2.98907,62.693c-.009.99943-.03576,1.99928-.016,2.99816.02783,1.40617-.21,2.97424-1.5475,3.41814-2.07288.68789-2.38851-1.7022-2.91059-2.69528-9.492-18.05585-18.443-36.39724-24.71588-55.84577C381.53135,78.85525,377.01726,64.8568,377.8193,50.4015Z" style="fill:#bec043;stroke:#442a0c;stroke-linecap:round;stroke-linejoin:round;stroke-width:2px"/><path d="M3.14779,150.78188C.338,146.75341,1.08877,142.818,1.0971,139.12049c.03172-14.08219.2842-28.12177,1.43825-42.21634A325.60212,325.60212,0,0,1,22.62521,7.42038c.84762-2.23435,1.05436-5.99028,3.66542-5.86609C28.505,1.65968,28.7894,5.417,29.61389,7.66491c6.55657,17.87576,11.31789,36.03847,8.49664,55.36714-2.19316,15.02547-7.093,29.23349-12.95334,43.15041-6.0807,14.44041-13.56452,28.20544-20.45237,42.25717A24.11138,24.11138,0,0,1,3.14779,150.78188Z" style="fill:#bec043;stroke:#442a0c;stroke-linecap:round;stroke-linejoin:round;stroke-width:2px"/></g></g></svg>