<svg xmlns="http://www.w3.org/2000/svg" viewBox="0 0 387.51401 117.79136"><g id="Layer_2" data-name="Layer 2"><g id="Layer_1-2" data-name="Layer 1"><path d="M337.28426,3.47365c-.19678-1.04318-.18122-2.12878,1.06326-2.40852,1.51165-.33992,2.43855.71022,3.31186,1.76872a141.744,141.744,0,0,1,14.04538,20.55738c6.29355,11.13376,9.18366,23.45118,12.61559,35.56539,5.05432,17.841,10.29446,35.61012,17.08614,52.88679.50114,1.2749,2.03144,3.00811.31379,3.98941-1.85874,1.06186-3.09025-.51885-4.30522-2.1214A217.19342,217.19342,0,0,1,348.2519,51.88489C342.95659,36.207,339.711,19.89174,337.28426,3.47365Z" style="fill:#97c666;stroke:#442a0c;stroke-linecap:round;stroke-linejoin:round;stroke-width:2px"/><path d="M50.42914,3.73631C44.15586,43.48347,31.48844,80.65885,6.85668,113.0336a18.74918,18.74918,0,0,1-1.14154,1.633c-.98628,1.04-1.82728,2.72488-3.61749,1.90859-2.22594-1.01486-.43156-2.77425-.10519-3.7962,3.8512-12.05818,8.05168-24.005,11.89547-36.06544C17.75208,64.58916,21.22316,52.33991,25.04034,40.2c4.3531-13.84437,11.895-25.89883,21.30465-36.83834.94662-1.10055,2.01759-2.49573,3.70141-2.07361C51.36135,1.6176,50.64993,2.92881,50.42914,3.73631Z" style="fill:#97c666;stroke:#442a0c;stroke-linecap:round;stroke-linejoin:round;stroke-width:2px"/></g></g></svg>