<svg xmlns="http://www.w3.org/2000/svg" viewBox="0 0 112.61189 222.67074"><g id="Layer_2" data-name="Layer 2"><g id="Layer_1-2" data-name="Layer 1"><path d="M88.48354,1c7.60915,16.56418,14.92571,31.83357,21.62117,47.37056,2.93119,6.80187.86166,14.19008-.15934,21.17862q-4.64507,31.79421-6.90585,63.82325c-1.45542,20.64849-.83746,41.24914.22592,61.84893.3808,7.37734,1.98311,14.6911,3.00969,22.03635.21668,1.55043,1.22388,3.3728-1.12972,4.2163-2.15456.77223-3.04533-.88354-3.85347-2.28568-4.83438-8.38623-8.12089-17.45339-11.46451-26.48785-6.47678-17.50038-11.81029-35.43894-14.42826-53.84008-4.48061-31.493-5.54973-63.13395-.62134-94.82881C77.06415,29.3281,82.54745,15.88535,88.48354,1Z" style="fill:#7b4f9a;stroke:#442a0c;stroke-linecap:round;stroke-linejoin:round;stroke-width:2px"/><path d="M23.90579,1.83331c6.10247,14.05088,10.9057,27.65761,13.25637,41.95363,4.04567,24.60451,3.74491,49.31046,1.25333,74.08481-2.525,25.10585-7.22591,49.71971-15.10483,73.69645a164.96312,164.96312,0,0,1-11.08435,26.49261c-1.01468,1.89523-2.137,4.30443-4.7793,3.333-2.568-.94419-1.36238-3.46263-1.05634-5.26864,3.8821-22.90793,4.53151-45.98783,3.67446-69.136A654.85971,654.85971,0,0,0,3.67882,77.63785c-1.09252-7.56665-1.03723-15.209-2.5055-22.69458-.65453-3.33679.66272-6.28534,1.98012-9.1161C9.85571,31.42624,16.69288,17.08806,23.90579,1.83331Z" style="fill:#7b4f9a;stroke:#442a0c;stroke-linecap:round;stroke-linejoin:round;stroke-width:2px"/></g></g></svg>