<svg xmlns="http://www.w3.org/2000/svg" viewBox="0 0 316.85801 65.48122"><g id="Layer_2" data-name="Layer 2"><g id="Layer_1-2" data-name="Layer 1"><path d="M73.77381,1.19493c2.12945,0,6.121-.01519,10.11228.00845,1.34536.008,2.87547.04751,3.10761,1.76128.24817,1.83226-1.53136,1.47876-2.47086,1.69885C71.14553,7.7974,61.69772,16.01358,55.67171,27.96521,44.90519,49.319,25.65072,58.16346,4.16862,64.009c-2.41416.65691-3.5634-.10332-3.047-2.67683C3.53855,49.28661,6.20129,37.31914,12.82466,26.695,22.01112,11.95951,35.77874,4.62818,52.54534,2.18374A100.91281,100.91281,0,0,1,73.77381,1.19493Z" style="fill:#cc5116;stroke:#442a0c;stroke-linecap:round;stroke-linejoin:round;stroke-width:2px"/><path d="M228.142,2.34741a11.90677,11.90677,0,0,1,3.08448-1.09209c14.3-.41,28.5974-.86209,42.56372,3.2812C293.582,10.40807,305.22071,24.1367,311.11323,43.2884c1.79957,5.84888,2.78878,11.94318,4.45437,17.83883.84774,3.00076-.1844,3.81717-2.78335,3.12162C291.27631,58.4931,272.17393,49.2,261.47315,28.14957,256.00767,17.398,247.16979,10.46788,236.57246,5.53811,234.06092,4.36973,230.53211,5.84694,228.142,2.34741Z" style="fill:#cc5116;stroke:#442a0c;stroke-linecap:round;stroke-linejoin:round;stroke-width:2px"/></g></g></svg>