<svg xmlns="http://www.w3.org/2000/svg" viewBox="0 0 183.97084 176.32192"><g id="Layer_2" data-name="Layer 2"><g id="Layer_1-2" data-name="Layer 1"><path d="M144.87483,168.50765c1.52886-17.89712,2.99355-34.9472,4.43752-51.99892.50493-5.96245,1.03287-11.92478,1.39122-17.89669a5.18666,5.18666,0,0,1,2.07266-4.23858c6.96786-5.38868,13.857-10.879,20.81234-16.28413,1.002-.77864,2.07687-1.97768,3.5329-1.24763,1.311.65732.82651,2.01985.71126,3.12846-1.56685,15.07386-1.87644,30.20691-2.00285,45.34027-.06515,7.79806-1.55129,15.59161-.09984,23.411a4.02779,4.02779,0,0,1-.89953,2.72165c-5.90569,7.8647-12.22981,15.35373-20.09451,21.37568-2.28336,1.74846-4.754,3.39465-7.75961,1.9504C143.81611,173.25055,145.13916,170.1567,144.87483,168.50765Z" style="fill:#5b7f97;stroke:#442a0c;stroke-linecap:round;stroke-linejoin:round;stroke-width:2px"/><path d="M5.66715,75.788a10.87022,10.87022,0,0,1,5.89779,2.77993c6.53738,5.385,13.07836,10.76706,19.70267,16.04394a6.60085,6.60085,0,0,1,2.76253,5.44781c.77848,22.07755,2.59313,44.08259,4.917,66.048a31.5571,31.5571,0,0,1,.175,3.98849c-.09367,4.3502-3.44441,6.67011-7.01054,4.19355-9.2344-6.41283-16.50043-14.89359-23.01006-23.98743-.64962-.90752-.2753-2.59251-.27155-3.91636.04284-15.13763.65692-30.33318-1.0841-45.37C6.77853,92.66063,8.19052,84.27471,5.66715,75.788Z" style="fill:#5b7f97;stroke:#442a0c;stroke-linecap:round;stroke-linejoin:round;stroke-width:2px"/><path d="M33.8052,85.00525C26.25454,80.83966,20.96579,74.805,14.29144,71.08686,5.917,66.42159,5.39339,58.981,5.0176,51.13719c-.16486-3.44115.49378-6.90726-.88958-10.2783a3.1469,3.1469,0,0,1,.38-2.77938c.73366-.77064,1.81886.00647,2.70412.48638,7.57074,4.10445,15.12838,8.23416,22.7476,12.24682a3.59131,3.59131,0,0,1,2.25608,3.41247C32.66379,64.14348,33.22667,74.05659,33.8052,85.00525Z" style="fill:#5b7f97;stroke:#442a0c;stroke-linecap:round;stroke-linejoin:round;stroke-width:2px"/><path d="M178.95305,37.31778c.78529,9.39769-1.50906,17.74657-.961,26.1729a1.725,1.725,0,0,1-.57716,1.28283c-8.53885,6.4315-16.555,13.5991-26.38415,19.32788-.64011-10.74893.631-20.72483,1.18028-30.72143a3.12176,3.12176,0,0,1,2.23969-2.95056C162.83672,47.24115,170.4239,42.5,178.95305,37.31778Z" style="fill:#5b7f97;stroke:#442a0c;stroke-linecap:round;stroke-linejoin:round;stroke-width:2px"/><path d="M3.236,19.5927C2.57788,14.84662,1.81539,9.822,1.2299,4.777,1.09114,3.58117.495,1.8612,2.03108,1.2225,3.21.7324,3.99215,2.149,4.87889,2.82633A72.952,72.952,0,0,0,28.60094,15.109c2.62382.77394,3.73591,1.6958,3.01427,4.84653-1.27264,5.55669.01324,11.21993.29894,16.84264.236,4.64435-1.479,5.70352-5.64371,3.74049-5.96724-2.81258-11.52612-6.37658-17.582-9.098C4.30742,29.47188,2.59065,24.911,3.236,19.5927Z" style="fill:#5b7f97;stroke:#442a0c;stroke-linecap:round;stroke-linejoin:round;stroke-width:2px"/><path d="M182.97084,1c-.74,6.75305-1.92316,13.25515-2.03538,19.77563-.11318,6.5751-3.15857,9.97652-8.978,12.34788-5.48349,2.23435-10.57039,5.44415-15.82423,8.239-3.03869,1.61647-4.72686,1.14669-3.98618-2.686,1.24182-6.42576.84515-12.89662.63657-19.35827-.06463-2.00233.11228-3.50431,2.434-4.11482,9.71416-2.55456,18.11546-7.62511,25.96283-13.73555C181.5203,1.20316,182.08031,1.22122,182.97084,1Z" style="fill:#5b7f97;stroke:#442a0c;stroke-linecap:round;stroke-linejoin:round;stroke-width:2px"/></g></g></svg>