<svg xmlns="http://www.w3.org/2000/svg" viewBox="0 0 209.19905 100.12184"><g id="Layer_2" data-name="Layer 2"><g id="Layer_1-2" data-name="Layer 1"><path d="M108.0378,52.76c0-8.16251-.19778-16.33106.0531-24.48585A29.26829,29.26829,0,0,1,118.97859,5.96554a15.5936,15.5936,0,0,1,8.41006-3.566C144.25225.46967,161.21218.22034,177.84339,3.68035c13.17136,2.7402,20.86339,12.48891,25.37893,24.56656,4.78715,12.80411,7.44072,25.90517,1.77611,39.26349C201.35465,76.10318,194.36229,81.539,186.538,85.71656c-18.89483,10.08823-39.32606,13.91579-60.59371,13.35136-10.15642-.26955-17.58258-8.94551-17.90324-20.32175-.122-4.32774-.0231-8.66168-.02386-12.9928S108.017,57.09111,108.017,52.76Z" style="fill:#ca7475;stroke:#442a0c;stroke-linecap:round;stroke-linejoin:round;stroke-width:2px"/><path d="M101.04,56.87554c-.48537,7.42253.90032,16.93989-.705,26.37791-1.71033,10.05536-7.77914,15.57836-18.02017,15.82283a139.497,139.497,0,0,1-44.66049-6.583,76.27558,76.27558,0,0,1-16.73454-7.33668C7.24059,77.01476-.02855,65.34394,1.11775,49.29229,2.35423,31.978,6.95892,16.20121,23.23475,6.48921,27.991,3.65106,33.16819,2.72929,38.4826,2.42507,52.43012,1.62663,66.47687.42094,80.293,2.93946c12.05421,2.19738,18.74458,10.70606,20.05362,22.93945a134.45467,134.45467,0,0,1,.69424,14.45646C101.03672,45.167,101.04,49.99867,101.04,56.87554Z" style="fill:#ca7475;stroke:#442a0c;stroke-linecap:round;stroke-linejoin:round;stroke-width:2px"/></g></g></svg>