<svg xmlns="http://www.w3.org/2000/svg" viewBox="0 0 173.60003 240.15778"><g id="Layer_2" data-name="Layer 2"><g id="Layer_1-2" data-name="Layer 1"><path d="M168.65043,1c2.4657,4.48549,2.03092,8.3841,2.12066,12.10707.45724,18.96971.86385,37.94169.42373,56.91995-1.10814,47.78407-8.78454,94.14105-29.86475,137.58322-3.196,6.5862-6.86421,12.91542-12.18024,18.051-6.53734,6.31549-12.63734,5.22086-16.63585-2.99206-3.46693-7.12116-4.64666-14.84013-5.41425-22.6424-3.02235-30.72137,2.90922-60.15123,13.06753-88.90341C132.78612,75.40673,147.15106,40.42518,165.1272,7.0139,166.05254,5.294,167.09932,3.63945,168.65043,1Z" style="fill:#4b8ebb;stroke:#442a0c;stroke-linecap:round;stroke-linejoin:round;stroke-width:2px"/><path d="M66.377,184.273a102.92782,102.92782,0,0,1-3.06071,30.16212,43.58412,43.58412,0,0,1-2.65141,7.5008c-4.406,9.533-10.15284,10.40157-17.47529,2.698-7.84487-8.25313-12.17154-18.59141-16.63589-28.77786-7.55859-17.24664-12.03242-35.45774-16.41841-53.70509a267.44346,267.44346,0,0,1-6.85737-41.7208C1.24573,74.51068,2.314,48.59434,2.46931,22.674c.03559-5.937.475-11.87322.81017-17.80516C3.34571,3.69706,2.56979,1.983,4.56459,1.61179,6.45492,1.26009,6.59931,3.11072,7.1371,4.1301c7.67109,14.54244,14.81928,29.335,21.29994,44.45344,11.90823,27.78027,23.79639,55.5659,31.46123,84.9107,1.3402,5.131,2.46043,10.33651,3.35391,15.56372C65.24295,160.70458,66.90842,172.39728,66.377,184.273Z" style="fill:#4a8ebb;stroke:#442a0c;stroke-linecap:round;stroke-linejoin:round;stroke-width:2px"/><path d="M172.43418,159.56473a183.23875,183.23875,0,0,1-13.312,72.96151c-1.03024,2.56024-1.58391,6.39482-4.54185,6.62276-2.84184.21884-3.19076-3.70589-4.53748-5.87116-.787-1.26538-1.15065-2.86079-2.1174-3.937-6.55685-7.29972-4.98158-14.13552-.73262-22.332,10.60468-20.4565,16.0041-42.77491,20.93454-65.16168.476-2.16118.43322-5.9107,2.6525-5.715,2.78665.24582,1.52594,3.84472,1.59215,5.97564C172.55263,147.92183,172.43418,153.74514,172.43418,159.56473Z" style="fill:#4a8ebb;stroke:#442a0c;stroke-linecap:round;stroke-linejoin:round;stroke-width:2px"/><path d="M1.21212,160.65515c0-6.49478-.06787-12.99079.04286-19.48368.03176-1.8624-.87793-4.99317,1.24179-5.26608,2.971-.38245,2.22926,3.298,2.58852,4.942a368.00021,368.00021,0,0,0,19.2701,62.69084c2.15688,5.19932,6.50515,10.30948,6.40107,15.3901-.099,4.83383-4.635,9.61353-7.3533,14.34051-1.25189,2.17693-1.45331,5.99669-4.57962,5.76674-2.89274-.21268-3.32724-3.83209-4.32716-6.20918a187.06334,187.06334,0,0,1-13.046-49.72251c-.91455-7.376-.15322-14.95975-.15322-22.44914Z" style="fill:#4a8ebb;stroke:#442a0c;stroke-linecap:round;stroke-linejoin:round;stroke-width:2px"/></g></g></svg>