<svg xmlns="http://www.w3.org/2000/svg" viewBox="0 0 195.05367 51.2912"><g id="Layer_2" data-name="Layer 2"><g id="Layer_1-2" data-name="Layer 1"><path d="M1.07936,5.12725C.66324,1.01572,1.9001.47167,4.39991,1.95046c17.56752,10.39208,37.01567,13.67837,56.96522,15.048,1.34209.09215,3.09208-.04785,3.326,1.46487.286,1.849-1.55626,2.25-2.998,2.64088-13.27407,3.59915-20.61367,12.7018-23.307,25.74514-.74293,3.598-2.3749,3.91074-5.15156,2.92132C18.17532,44.40468,6.84215,35.58693,4.058,18.64124,3.25429,13.74947,1.93294,8.94279,1.07936,5.12725Z" style="fill:#45ba75;stroke:#442a0c;stroke-linecap:round;stroke-linejoin:round;stroke-width:2px"/><path d="M193.93669,3.749c-2.21287,9.15617-2.87049,18.76754-7.68937,27.175-5.69442,9.93489-14.74446,15.46217-25.26527,19.024-2.93018.992-4.23177-.20786-4.77112-3.06926C153.74342,33.788,146.37416,25.04455,133.343,21.40638c-1.392-.38862-3.4-.4519-3.11109-2.47221.31484-2.20122,2.4453-1.804,4.03418-1.89917,15.80955-.94716,31.22695-3.50019,45.93336-9.83295,3.80334-1.63776,6.67118-4.68551,10.63072-5.887C193.127.61811,194.47152.93178,193.93669,3.749Z" style="fill:#45ba75;stroke:#442a0c;stroke-linecap:round;stroke-linejoin:round;stroke-width:2px"/></g></g></svg>