<svg xmlns="http://www.w3.org/2000/svg" viewBox="0 0 163.07088 207.12681"><g id="Layer_2" data-name="Layer 2"><g id="Layer_1-2" data-name="Layer 1"><path d="M161.20092,102.95345c1.63612,14.66523.60877,29.31569-.19876,43.91635-.998,18.04438-1.83451,36.15137-4.65173,54.061-.29741,1.89072.37663,4.40623-2.1974,4.99964-2.67728.6171-3.73185-1.82663-4.79642-3.6047-6.90558-11.53482-10.78151-24.11637-13.36823-37.26765-5.00278-25.43478-2.09052-50.56883,1.66062-75.80064,3-20.1798,7.055-40.12991,11.51486-60.01246,1.84726-8.2355,3.92747-16.42028,6.02344-24.59695.40555-1.58211.33464-4.06417,3.10914-3.58847,2.35808.40424,1.79783,2.48023,1.838,4.03274.38336,14.80614.87908,29.61191,1.025,44.421C161.33491,67.32508,161.20092,85.13988,161.20092,102.95345Z" style="fill:#a3537a;stroke:#442a0c;stroke-linecap:round;stroke-linejoin:round;stroke-width:2px"/><path d="M29.423,133.18978c-.03237,22.04221-3.45979,40.7176-10.31923,58.76539a51.42127,51.42127,0,0,1-6.72623,12.19293c-.93153,1.26776-2.09131,2.3107-3.76117,1.88-1.62989-.42072-1.60258-1.95431-1.63331-3.28273-.30757-13.28-2.80729-26.34371-3.92652-39.55773C.42954,132.17028.90747,101.1472,1.33992,70.11374c.2827-20.28715,1.212-40.56533,1.85934-60.8473a36.16085,36.16085,0,0,1,.27117-4.48507c.24328-1.53774-.01769-3.70411,2.36145-3.71332C7.758,1.0606,7.914,2.825,8.25111,4.30415c1.95589,8.58261,4.23757,17.10237,5.8706,25.7451,4.68395,24.78943,9.77058,49.52064,12.919,74.56753C28.34474,114.99,29.87009,125.39428,29.423,133.18978Z" style="fill:#a3537a;stroke:#442a0c;stroke-linecap:round;stroke-linejoin:round;stroke-width:2px"/></g></g></svg>