<svg xmlns="http://www.w3.org/2000/svg" viewBox="0 0 161.11117 61.45415"><g id="Layer_2" data-name="Layer 2"><g id="Layer_1-2" data-name="Layer 1"><path d="M106.57108,1.24255C98.40849,14.7419,90.775,27.86209,81.878,40.4625c-3.88442-3.72477-5.82871-8.37235-8.51237-12.509C68.31753,20.17223,63.25553,12.39986,58.25711,4.58676c-.56431-.88214-1.68216-1.9797-.5392-3.06776.84107-.80067,1.88337-.038,2.75351.36405,13.98276,6.4607,27.89333,5.83829,41.76512-.365a6.91933,6.91933,0,0,1,1.90851-.50322A15.2296,15.2296,0,0,1,106.57108,1.24255Z" style="fill:#8e0000;stroke:#442a0c;stroke-linecap:round;stroke-linejoin:round;stroke-width:2px"/><path d="M47.60281,3.39949c5.20258,4.67446,8.441,10.26343,11.65748,15.84044,6.54772,11.353,13.45339,22.543,17.84835,34.97966.6524,1.84626,2.63988,4.57609.43042,5.90558-2.23536,1.345-3.54-1.77947-4.97834-3.16013a172.16185,172.16185,0,0,1-19.91-22.32775c-3.629-4.95408-5.86868-10.111-5.15458-16.53193C48.03509,13.25939,47.60281,8.30542,47.60281,3.39949Z" style="fill:#8e0000;stroke:#442a0c;stroke-linecap:round;stroke-linejoin:round;stroke-width:2px"/><path d="M115.48177,13.72377c2.10047,12.22728-4.2913,21.13248-11.77184,29.44979-4.6567,5.17759-9.76466,9.95259-14.73443,14.8429-1.10359,1.08594-2.29657,3.09092-4.08546,1.78743-1.50811-1.09893-.05935-2.822.42581-4.099,5.56-14.6342,13.31773-28.14438,21.39114-41.48949q3.0835-5.097,6.07031-10.25214c.41239-.70964.64822-1.73031,1.618-1.59626,1.37767.19046,1.06076,1.45572,1.07239,2.3799C115.50536,7.73879,115.48177,10.73143,115.48177,13.72377Z" style="fill:#8e0000;stroke:#442a0c;stroke-linecap:round;stroke-linejoin:round;stroke-width:2px"/><path d="M1,48.95562c.57275-2.8146,2.44616-2.68458,3.99437-3.121,10.19129-2.87284,20.39445-5.70611,30.55374-8.68862a7.87143,7.87143,0,0,1,8.85232,2.4647c4.56623,4.98664,9.72844,9.43241,14.83142,16.26644C39.173,51.57889,20.21529,49.99148,1,48.95562Z" style="fill:#8e0000;stroke:#442a0c;stroke-linecap:round;stroke-linejoin:round;stroke-width:2px"/><path d="M104.2368,54.95682c5.3697-7.361,11.24729-12.65566,17.15-17.90481,1.50115-1.335,3.31918-.82828,5.1745-.24584,10.10461,3.17211,20.25169,6.20912,30.38635,9.28539,1.36617.41467,3.46507.42127,3.12726,2.349-.282,1.60957-2.25181.83466-3.45958.90762-16.21855.98-32.45672,1.75069-48.316,5.76909C107.40107,55.34492,106.37284,55.05962,104.2368,54.95682Z" style="fill:#8e0000;stroke:#442a0c;stroke-linecap:round;stroke-linejoin:round;stroke-width:2px"/></g></g></svg>