<svg xmlns="http://www.w3.org/2000/svg" viewBox="0 0 412.08339 127.21029"><g id="Layer_2" data-name="Layer 2"><g id="Layer_1-2" data-name="Layer 1"><path d="M1.06128,101.24714C.59852,66.95543,4.6824,36.14923,13.15968,5.9162c.44506-1.58711.4937-3.697,2.39192-3.961,1.98617-.27626,2.45192,1.80162,3.20663,3.2676,13.1835,25.60583,12.67558,51.75365,3.23079,78.303-4.74113,13.32735-10.56639,26.18614-16.54782,38.9817-.67727,1.44883-1.26928,3.74934-3.11222,3.27583-1.86758-.47978-1.21527-2.86475-1.23163-4.43685C1.01765,113.68375,1.06128,106.01982,1.06128,101.24714Z" style="fill:#bec043;stroke:#442a0c;stroke-linecap:round;stroke-linejoin:round;stroke-width:2px"/><path d="M381.01884,41.10676c.6337-2.77309,1.19661-6.22248,2.22075-9.52907,2.841-9.17445,5.89526-18.28268,8.80975-27.43479.46331-1.45475.6697-3.08757,2.59557-3.14158,1.96-.055,2.26517,1.617,2.70651,3.04046a271.14787,271.14787,0,0,1,10.96789,54.4684c1.862,19.36828,2.0279,38.8148,2.057,58.25912.00281,1.96712.61466,3.92777.7029,5.90215a3.28257,3.28257,0,0,1-2.31766,3.467c-1.48806.42669-1.91122-1.146-2.361-2.09333-2.41664-5.091-4.93617-10.15025-7.0168-15.38088-7.04731-17.71807-13.77058-35.55489-16.75476-54.52235C381.98513,50.04931,381.60494,45.91521,381.01884,41.10676Z" style="fill:#bec043;stroke:#442a0c;stroke-linecap:round;stroke-linejoin:round;stroke-width:2px"/></g></g></svg>