<svg xmlns="http://www.w3.org/2000/svg" viewBox="0 0 320.36254 72.02606"><g id="Layer_2" data-name="Layer 2"><g id="Layer_1-2" data-name="Layer 1"><path d="M1.02247,59.57831C1.86811,41.25273,5.462,23.96349,19.67941,10.75054,31.95759-.66016,49.97975-2.195,63.30257,6.88211c2.49055,1.69684,2.69614,2.323.30873,4.83258-7.548,7.93446-14.40293,16.5226-21.71949,24.68431-10.89019,12.148-22.32047,23.74372-35.886,32.9895-1.1537.78633-2.286,2.297-3.959,1.31814-1.36937-.80121-.94981-2.37447-.997-3.64074C.95686,64.57316,1.02247,62.07453,1.02247,59.57831Z" style="fill:#cc5116;stroke:#442a0c;stroke-linecap:round;stroke-linejoin:round;stroke-width:2px"/><path d="M319.36254,70.37594c-5.26718-.335-8.91276-2.86512-12.61718-5.32226C290.65188,54.379,279.14465,39.39256,268.04849,24.01134c-3.30934-4.58732-6.58754-9.3553-11.37542-12.41815-3.83892-2.45573-1.97542-3.80829.388-5.0452,11.50968-6.02378,23.24845-7.59026,35.10451-.98127,15.2075,8.47741,21.55728,22.73632,25.06263,38.80857C319.08292,52.87879,317.79709,61.56777,319.36254,70.37594Z" style="fill:#cc5116;stroke:#442a0c;stroke-linecap:round;stroke-linejoin:round;stroke-width:2px"/></g></g></svg>