<svg xmlns="http://www.w3.org/2000/svg" viewBox="0 0 229.47569 177.5364"><g id="Layer_2" data-name="Layer 2"><g id="Layer_1-2" data-name="Layer 1"><path d="M111.349,67.03013c0,15.65666-.296,29.433.08282,43.19075.38287,13.90679-4.21735,25.78293-13.35536,35.95309-8.56162,9.52858-17.54462,18.6788-26.09416,28.21794-2.82844,3.15592-4.35318,2.68455-6.58552-.47057C53.55605,157.1861,43.89949,139.236,35.04446,120.78862A400.0604,400.0604,0,0,1,4.77885,31.40527C3.31367,24.59635,2.19653,17.70279,1.18239,10.80948.26657,4.58443,2.79446,2.33094,8.88214,3.82774,23.12188,7.329,35.75859,14.38293,47.83624,22.34354c18.98557,12.51381,36.98905,26.51705,57.11954,37.29579C108.48713,61.5302,111.88934,63.94907,111.349,67.03013Z" style="fill:#b97b00;stroke:#442a0c;stroke-linecap:round;stroke-linejoin:round;stroke-width:2px"/><path d="M118.53083,92.74594c0-7.66185.14646-15.32767-.05761-22.98409-.11339-4.25683,1.21119-7.83339,4.85031-9.738,28.60062-14.96865,52.58791-37.40833,82.21-50.69021,5.90124-2.646,11.854-5.18977,17.86446-7.5755,4.25231-1.68789,5.65567-.6203,4.86977,3.835-2.64951,15.021-4.77542,30.129-8.67683,44.93009-10.04346,38.10409-24.22572,74.468-44.80176,108.17862-3.27711,5.369-7.21556,10.33328-10.824,15.5016-1.99184,2.853-3.936,3.09769-6.34405.33912-10.06494-11.52982-20.39345-22.83494-30.26366-34.5277a36.92085,36.92085,0,0,1-8.9177-25.28356c.162-7.32511.03222-14.65662.03222-21.98533Z" style="fill:#b97b00;stroke:#442a0c;stroke-linecap:round;stroke-linejoin:round;stroke-width:2px"/></g></g></svg>