<svg xmlns="http://www.w3.org/2000/svg" viewBox="0 0 162.57914 193.47808"><g id="Layer_2" data-name="Layer 2"><g id="Layer_1-2" data-name="Layer 1"><path d="M26.58064,149.2845c-3.079,12.3588-5.87823,24.641-9.87948,36.60442-.3127.935-.76124,1.83238-.9943,2.78451a2.27106,2.27106,0,0,1-2.69919,1.66931c-1.03409-.10264-1.35863-1.31682-1.51846-2.33974C9.79787,177.17681,8.03073,166.36173,6.43,155.52224c-3.74744-25.37742-5.16685-50.96818-5.38733-76.555C.85081,56.69773,1.183,34.3557,4.63474,12.23739A21.408,21.408,0,0,1,5.75836,7.89324c1.19337-3.1099,2.285-6.60952,6.327-6.878C16.30779.73473,17.693,4.377,19.5005,7.237c3.84862,6.08963,5.57883,12.97376,7.44056,19.819.31685,1.16481.38117,2.98431,2.08478,3.0421,1.55452.05267,1.278-1.67322,1.75982-2.64408,2.35256-4.74114,4.47908-9.6125,7.1228-14.185,1.85819-3.214,4.10884-6.51315,8.612-6.29236,4.2135.20664,6.271,3.26546,8.13621,6.47538,4.65728,8.01513,5.28872,17.04324,5.9619,25.91073,2.43958,32.13339,1.04263,64.17134-2.75052,96.15741-2.11407,17.82737-4.67046,35.52463-10.22367,52.6624-.589,1.8176-.701,4.33128-3.2696,4.295-2.13549-.03-2.39992-2.17657-3.18093-3.87029C35.336,175.90417,31.25446,162.567,26.58064,149.2845Z" style="fill:#7b4f9a;stroke:#442a0c;stroke-linecap:round;stroke-linejoin:round;stroke-width:2px"/><path d="M134.97024,148.44905c-2.45777,7.41067-4.76768,14.62983-7.25206,21.78846-2.1256,6.12509-4.43093,12.18829-6.70337,18.26139-.55491,1.48281-.63595,3.57406-2.84339,3.59371-2.37313.02112-2.82289-2.15349-3.37256-3.79754a176.046,176.046,0,0,1-6.24622-24.26467c-2.25059-12.33194-2.709-24.86-4.39834-37.224A420.19933,420.19933,0,0,1,100.83575,54.364c.34559-9.39359.93285-19.03849,3.40612-28.43526,1.20557-4.58051,2.05359-9.18561,4.24242-13.42224,3.44475-6.66755,9.57313-7.31364,14.269-1.46414a56.111,56.111,0,0,1,7.88874,14.37279c.65945,1.6286.88177,4.25591,2.8805,4.2088,2.46815-.05822,2.28849-2.95807,2.77566-4.71374,1.73254-6.244,3.17514-12.54987,6.63325-18.18119,1.98525-3.23281,4.35642-5.4441,8.44951-4.86538,3.97672.56235,5.30361,3.58675,6.3045,6.84733,2.06977,6.743,2.351,13.78456,2.73764,20.71122,1.96993,35.28528,1.5912,70.50795-2.45338,105.69729-1.916,16.6708-3.89994,33.32036-6.33885,49.91878-.30135,2.05109-.02667,4.75724-2.9209,5.04394-3.02538.29964-3.13736-2.58056-3.72608-4.498a243.23479,243.23479,0,0,1-7.65374-31.46442C137.01041,152.19692,136.94657,150.14692,134.97024,148.44905Z" style="fill:#7b4f9a;stroke:#442a0c;stroke-linecap:round;stroke-linejoin:round;stroke-width:2px"/></g></g></svg>