<svg xmlns="http://www.w3.org/2000/svg" viewBox="0 0 169.46186 124.93648"><g id="Layer_2" data-name="Layer 2"><g id="Layer_1-2" data-name="Layer 1"><path d="M168.4531,93.34667c-.24045,9.61268-1.89694,19.07816-3.10184,28.59076-.27035,2.13439-1.67664,2.6007-3.08574,1.20033-13.16232-13.08154-31.02233-16.808-47.1999-23.89967-19.95376-8.747-29.22389-25.4955-27.46835-44.14056C89.138,38.73364,97.796,25.824,109.974,15.2174c4.63141-4.0339,9.6286-7.64745,14.454-11.459,4.8226-3.80944,5.54088-3.78808,9.72014.7837a129.8902,129.8902,0,0,1,20.89942,31.39662,125.09451,125.09451,0,0,1,12.456,46.0314C167.77253,85.74951,168.55294,89.50958,168.4531,93.34667Z" style="fill:#6ca0ae;stroke:#442a0c;stroke-linecap:round;stroke-linejoin:round;stroke-width:2px"/><path d="M82.32259,58.53179C81.50245,78.77292,71.898,92.20158,54.27736,99.85256c-11.39361,4.94716-23.74264,7.46328-34.72028,13.57323-4.24707,2.36385-8.39935,4.73631-11.56735,8.48729-2.285,2.70542-3.6324,2.44856-4.18127-1.12691C1.35691,104.81638-.45661,88.78563,2.62992,72.7315A144.19676,144.19676,0,0,1,31.59371,9.59669c7.96021-10.05115,7.99908-10.07922,18.063-2.766,12.54786,9.11836,23.156,19.83385,29.12051,34.55711C81.13251,47.20164,81.8201,53.22946,82.32259,58.53179Z" style="fill:#6ca0ae;stroke:#442a0c;stroke-linecap:round;stroke-linejoin:round;stroke-width:2px"/></g></g></svg>