<svg xmlns="http://www.w3.org/2000/svg" viewBox="0 0 208.3252 199.36357"><g id="Layer_2" data-name="Layer 2"><g id="Layer_1-2" data-name="Layer 1"><path d="M100.01455,146.27071q0,22.985-.00861,45.97012c-.00964,5.77483-1.90121,7.1784-7.40779,5.40352-9.81382-3.16318-17.30058-9.79091-24.30511-16.9406-15.12512-15.43852-23.48675-34.83429-31.32356-54.49068-4.86154-12.19372-9.46731-24.50886-18.8844-34.18131C13.75265,87.5819,8.98229,83.76685,3.11693,81.504c-.85077-.32817-2.226-.0775-2.11-1.53688.12363-1.55624,1.44083-1.57491,2.612-1.65556,29.66188-2.04166,58.43143,1.25916,86.27966,12.54051,8.16623,3.30814,10.70956,7.48954,10.22166,15.95731-.75563,13.11406-.19944,26.3037-.19944,39.46131Z" style="fill:#8e0000;stroke:#442a0c;stroke-linecap:round;stroke-linejoin:round;stroke-width:2px"/><path d="M207.3252,79.57831c-.48125,2.15554-2.16362,2.13345-3.259,2.46354-15.15636,4.56772-23.49426,16.06968-28.5584,29.81506-6.85655,18.61034-13.84125,37.08208-24.611,53.83474-8.59311,13.36683-19.31152,24.53809-34.30237,30.8343-7.70988,3.23814-9.67474,1.89331-9.63818-6.26621q.19149-42.73024.34925-85.46064c.00677-1.988-.32381-3.978-.30226-5.965.03307-3.05684,1.21424-5.42722,4.32108-6.53967C127.20535,86.60789,143.22847,82.122,160.14342,79.833c13.0097-1.76055,25.81881-1.24585,38.722-1.6229A20.09324,20.09324,0,0,1,207.3252,79.57831Z" style="fill:#8e0000;stroke:#442a0c;stroke-linecap:round;stroke-linejoin:round;stroke-width:2px"/><path d="M99.6667,45.82744q0,17.73326-.00824,35.46656c-.00329,2.22786.22854,4.52446-3.41594,2.963-17.03548-7.29856-35.03-10.94046-53.2406-13.735-1.35911-.20856-3.54709.574-3.87327-1.27875-.34651-1.9677,1.82035-2.41643,3.29639-3.06309,5.26315-2.3057,10.60661-4.44293,15.78365-6.92725C71.911,52.6777,78.30781,41.13806,79.874,26.51671c.51329-4.79246.6019-9.62891,1.02134-14.4333.45568-5.21927,3.85832-10.0409,7.40291-10.75332,7.20238-1.4476,11.35534,1.89063,11.43418,9.5313.12029,11.65413.03156,23.3104.03156,34.96578Z" style="fill:#8e0000;stroke:#442a0c;stroke-linecap:round;stroke-linejoin:round;stroke-width:2px"/><path d="M107.02689,45.35452q0-16.73483.00446-33.46972c.01208-7.75238,1.638-10.28522,6.76586-10.66959a11.16455,11.16455,0,0,1,12.2083,9.91531c.88287,7.24809.93077,14.59846,1.82707,21.84427,1.33556,10.79643,7.58245,18.48931,16.45548,24.295a84.79023,84.79023,0,0,0,18.82368,9.04367c1.38426.47976,3.83562.37217,3.57168,2.67445-.23349,2.03663-2.38558,1.33043-3.73456,1.554-17.836,2.9559-35.61035,6.14553-52.29066,13.54085-3.15555,1.399-3.41009-.02911-3.38232-2.75656.12205-11.9895.05261-23.981.05261-35.9717Z" style="fill:#8e0000;stroke:#442a0c;stroke-linecap:round;stroke-linejoin:round;stroke-width:2px"/></g></g></svg>