<svg xmlns="http://www.w3.org/2000/svg" viewBox="0 0 370.06653 125.13361"><g id="Layer_2" data-name="Layer 2"><g id="Layer_1-2" data-name="Layer 1"><path d="M65.4913,27.76255c-.18442,36.36834-10.55144,65.96694-26.15159,94.05472-.56162,1.01133-.98679,2.34335-2.38185,2.1297-1.50131-.22995-1.91824-1.779-2.402-2.94837a117.91869,117.91869,0,0,1-8.1309-28.62419C23.52964,71.82206,24.51418,51.62865,33.205,32.39435A92.404,92.404,0,0,1,53.0727,3.41992c3.60354-3.47316,4.92012-3.28929,7.47907,1.0813C65.48654,12.92956,65.66229,22.21266,65.4913,27.76255Z" style="fill:#a8915b;stroke:#442a0c;stroke-linecap:round;stroke-linejoin:round;stroke-width:2px"/><path d="M305.97248,35.35748c-.90563-10.084,1.65162-20.49067,3.20046-30.98683.65469-4.43609,3.83343-2.60125,5.53252-1.171a84.1056,84.1056,0,0,1,10.27805,10.17073c20.26657,24.15082,25.59685,51.8703,18.9467,82.20607-1.875,8.553-4.50875,16.941-6.85752,25.38712-.33882,1.21858-.55071,2.77322-2.106,3.10923-2.0002.43207-1.81932-1.54561-2.4131-2.54473C316.87177,95.14671,304.96055,67.57982,305.97248,35.35748Z" style="fill:#a8915b;stroke:#442a0c;stroke-linecap:round;stroke-linejoin:round;stroke-width:2px"/><path d="M1.03091,91.7343c.38977-25.93986,6.85044-47.06848,22.02987-65.13385a39.56388,39.56388,0,0,1,2.71579-2.91974c1.08083-1.05014,2.38814-2.34258,3.89872-1.442,2.04231,1.21775.62753,3.00045-.01672,4.36039A135.46452,135.46452,0,0,0,17.85084,64.41655a126.51253,126.51253,0,0,0-1.41239,27.27583c.527,8.121-5.00434,13.53215-8.85613,19.54757-1.57069,2.45307-2.97772-.42139-3.51749-2.06189C1.921,102.662.79486,95.97685,1.03091,91.7343Z" style="fill:#a8915b;stroke:#442a0c;stroke-linecap:round;stroke-linejoin:round;stroke-width:2px"/><path d="M337.61252,17.02155c6.82286,4.40293,11.35223,9.83662,15.45039,15.59371,9.69805,13.62391,13.99735,29.08709,15.3,45.59391.74745,9.47109,1.11764,18.90417-.01562,28.36087-.25509,2.12835.02368,4.65063-2.5332,5.42322-3.0164.91149-3.19912-2.19188-4.411-3.7472a14.84563,14.84563,0,0,1-1.06515-2.24076c-3.88981-7.3375-6.48843-14.4517-5.77052-23.47889,1.67188-21.02487-4.42843-40.64522-14.83158-58.916C338.77691,21.9263,337.50951,20.36884,337.61252,17.02155Z" style="fill:#a8915b;stroke:#442a0c;stroke-linecap:round;stroke-linejoin:round;stroke-width:2px"/></g></g></svg>