<svg xmlns="http://www.w3.org/2000/svg" viewBox="0 0 386.91174 109.93475"><g id="Layer_2" data-name="Layer 2"><g id="Layer_1-2" data-name="Layer 1"><path d="M43.48729,4.14577C38.939,30.31647,34.724,56.5629,21.4689,80.2433c-4.87081,8.7018-9.81864,17.33494-15.51526,25.52388-.99656,1.43247-1.70861,3.93308-3.9213,2.94085-2.08783-.93626-.44171-2.92267.03491-4.31083C9.81618,81.826,14.24022,58.25943,22.39808,35.83337,26.60877,24.25814,33.03575,13.71994,40.04169,3.5836c.66073-.9561,1.34929-2.19421,2.6353-1.9357C43.92674,1.89921,43.713,3.13713,43.48729,4.14577Z" style="fill:#77aa4b;stroke:#442a0c;stroke-linecap:round;stroke-linejoin:round;stroke-width:2px"/><path d="M339.7665,4.99849c.34907-1.81462-.60062-3.58243,1.2558-3.96683,1.28313-.26565,1.774,1.20094,2.43079,2.13824,5.89539,8.41388,11.23457,17.22607,16.58865,25.94734,3.30946,5.3907,3.54392,12.62616,5.39045,18.96593,5.4721,18.789,11.95053,37.23422,19.19886,55.41181.618,1.54958,2.45472,3.439.15623,4.80808-2.31741,1.38048-3.62374-.67379-4.71818-2.33547-12.4014-18.82942-23.78279-38.08944-30.3768-59.96346C345.5574,32.2878,342.41235,18.43074,339.7665,4.99849Z" style="fill:#77aa4b;stroke:#442a0c;stroke-linecap:round;stroke-linejoin:round;stroke-width:2px"/></g></g></svg>