<svg xmlns="http://www.w3.org/2000/svg" viewBox="0 0 250.91975 68.7047"><g id="Layer_2" data-name="Layer 2"><g id="Layer_1-2" data-name="Layer 1"><path d="M249.91975,40.40486c-15.01613,1.17137-27.7124,6.9836-40.32506,12.98029A208.92467,208.92467,0,0,0,186.01091,66.335c-1.03794.669-2.14971,2.07868-3.49583.78465-1.37694-1.32378.10265-2.48792.72456-3.47884a181.95568,181.95568,0,0,0,21.5211-48.04752,33.147,33.147,0,0,1,2.17357-5.55538c3.77948-7.766,10.71084-9.1169,16.94248-3.05476,8.02471,7.80645,13.6672,17.54625,20.66349,26.19624C246.29027,35.343,247.8717,37.64287,249.91975,40.40486Z" style="fill:#f48a02;stroke:#442a0c;stroke-linecap:round;stroke-linejoin:round;stroke-width:2px"/><path d="M7.00007,42.47924a19.88579,19.88579,0,0,1-2.53655.13584c-1.09939-.10353-2.51044.59083-3.22249-.57926-.79615-1.308.57621-2.10788,1.27807-2.91489C12.993,27.0766,23.58005,15.12939,33.95373,2.99965c2.78017-3.25072,4.54932-2.1675,6.39079.60559A101.21209,101.21209,0,0,1,50.86825,24.97281C55.77653,38.37305,60.6806,51.77122,68.53383,63.843c.60977.9374,2.23173,2.15661.84,3.41967-1.26294,1.14611-2.40426-.21884-3.49254-.915-13.74543-8.79255-27.935-16.66436-43.79873-21.0484C16.95932,43.88348,11.81151,42.5929,7.00007,42.47924Z" style="fill:#f48a02;stroke:#442a0c;stroke-linecap:round;stroke-linejoin:round;stroke-width:2px"/></g></g></svg>