<svg xmlns="http://www.w3.org/2000/svg" viewBox="0 0 174.35622 218.64241"><g id="Layer_2" data-name="Layer 2"><g id="Layer_1-2" data-name="Layer 1"><path d="M71.22981,113.74265c-.31037,32.6058-2.388,65.12-5.178,97.59684a2.73593,2.73593,0,0,1-.045.49664c-.56419,2.01563.12449,5.27322-2.0257,5.72542-2.6093.54869-3.2665-2.69339-4.2514-4.65679-8.265-16.47606-16.35864-33.00693-20.70377-51.09548-5.34724-22.26093-4.82278-44.87337-3.56418-67.39421a642.664,642.664,0,0,1,8.58011-72.17194c.58555-3.43212,1.04489-6.88951,1.75237-10.29581.43158-2.07789-.59165-4.88162,1.3333-6.12869a47.2049,47.2049,0,0,1,9.87082-4.64977C59.31017.348,58.96927,2.71874,59.296,4.00829a325.64666,325.64666,0,0,1,7.65354,42.08483C69.58327,68.55329,71.60586,91.07572,71.22981,113.74265Z" style="fill:#6868a6;stroke:#442a0c;stroke-linecap:round;stroke-linejoin:round;stroke-width:2px"/><path d="M103.77408,131.22149c.08355-48.10708,3.47667-87.43419,12.10816-126.24636.829-3.72786,1.60945-3.93577,5.42481-3.02074,9.53645,2.28714,8.65755,10.115,9.66052,16.60934,4.18487,27.0983,7.525,54.3195,9.08309,81.70456,2.208,38.81126-3.689,76.02582-23.0055,110.39766-.40406.719-.69491,1.50362-1.12026,2.20836-1.07364,1.77916-1.58125,5.07567-3.66548,4.745-2.68565-.42621-2.84425-3.925-3.025-6.19478C106.88484,181.91811,103.064,152.49526,103.77408,131.22149Z" style="fill:#6868a6;stroke:#442a0c;stroke-linecap:round;stroke-linejoin:round;stroke-width:2px"/><path d="M1,122.30354c.44189-23.53125,2.16893-44.17,6.48038-64.444A115.25,115.25,0,0,1,18.59112,26.57178,39.14455,39.14455,0,0,1,34.42567,10.44894c.96342-.52574,2.06849-1.67993,3.17025-.98509,1.32562.83594.66861,2.46071.5039,3.66225-1.35192,9.86374-2.972,19.69258-4.2077,29.56993-1.66858,13.33754-3.39245,26.682-4.50081,40.07236a483.96845,483.96845,0,0,0-2.01368,50.8327c.19864,8.81379.53471,17.62537.91008,26.43366a10.68365,10.68365,0,0,1-1.0665,5.78536,264.12149,264.12149,0,0,0-12.40859,27.15078c-.70967,1.76109-.8817,4.86031-3.75647,4.5168-2.79677-.33431-2.33462-3.40381-2.82655-5.28519-3.06907-11.73682-3.81-23.84376-5.00043-35.845C2.01535,144.121,1.59433,131.80582,1,122.30354Z" style="fill:#6868a6;stroke:#442a0c;stroke-linecap:round;stroke-linejoin:round;stroke-width:2px"/><path d="M137.0871,9.252c10.52575,4.40348,17.259,11.86864,21.65822,21.55406,7.15514,15.75247,10.15391,32.60812,12.32633,49.58081a244.928,244.928,0,0,1,2.11431,41.32822c-.985,23.58551-2.19035,47.1552-5.864,70.52016-.29,1.84421-.25119,3.78118-2.697,4.11994-2.17607.30147-2.83705-1.39036-3.51078-2.88972-4.4175-9.83054-9.60376-19.26331-14.82633-28.67515a10.85593,10.85593,0,0,1-1.10634-7.23272c3.15866-19.01426,1.87344-38.115,1.24079-57.20354-.66714-20.12848-2.97174-40.11081-5.44373-60.07654C139.7169,30.08744,138.42382,19.9013,137.0871,9.252Z" style="fill:#6868a6;stroke:#442a0c;stroke-linecap:round;stroke-linejoin:round;stroke-width:2px"/></g></g></svg>