<svg xmlns="http://www.w3.org/2000/svg" viewBox="0 0 176.64346 95.88492"><g id="Layer_2" data-name="Layer 2"><g id="Layer_1-2" data-name="Layer 1"><path d="M2.00392,1c2.81056,6.09451,5.05816,11.20443,7.5008,16.21938A392.29522,392.29522,0,0,0,32.04281,57.02177c1.52108,2.37392,1.534,3.95328-.2048,6.11563A161.59139,161.59139,0,0,0,13.00525,92.37753c-.5562,1.11654-.99528,2.9065-2.6184,2.42775-1.63153-.48125-.89293-2.266-.91655-3.49259A568.37911,568.37911,0,0,0,1.90146,12.09086C1.40116,8.975.09746,5.69341,2.00392,1Z" style="fill:#5b7f97;stroke:#442a0c;stroke-linecap:round;stroke-linejoin:round;stroke-width:2px"/><path d="M175.54973,5.66357c-2.749,14.381-4.64776,28.50593-6.09189,42.71529-1.42886,14.06076-2.79366,28.10694-2.71335,42.25955.00782,1.378.87256,3.51291-.838,3.98361-2.289.62985-2.13244-1.9418-2.82326-3.27083-5.07512-9.7642-10.75075-19.16433-18.15384-27.33672-2.65819-2.93445-2.5993-4.96736-.48413-8.1583,10.46314-15.78512,20.491-31.83364,27.48758-49.56214.47478-1.20325.75965-3.32172,2.65732-3.141C176.20393,3.30667,175.45746,4.97836,175.54973,5.66357Z" style="fill:#5b7f97;stroke:#442a0c;stroke-linecap:round;stroke-linejoin:round;stroke-width:2px"/></g></g></svg>