<svg xmlns="http://www.w3.org/2000/svg" viewBox="0 0 563.72511 1137.07825"><g id="Layer_2" data-name="Layer 2"><g id="Layer_1-2" data-name="Layer 1"><path d="M559.16238,622.54017a363.11,363.11,0,0,0-31.22-19.61c-8.42016-4.87-17.68994-8.68994-20.08008-19.90991-1.59008-7.45008-4.27-14.65015-6.16992-22.03-6.18994-24.09009-12.93994-48.04-18.90014-72.20007-6.91993-28.0199-14.55-55.87-21.85987-83.79993-5.84009-22.32007-10.83008-44.89-18.57007-66.68006-4.83007-13.62-12.65991-25.19006-24.87988-33.36-9.62012-6.42993-20.47021-10.33008-31.11011-14.57007-18.99-7.55994-38.40991-13.99-57.1101-22.28992-6.5-2.89-7.97-4.5-7.54981-11.75.29981-5.14.98-10.27.67993-15.42-.17016-2.97.97-4.37,3.68994-5.46a53.49771,53.49771,0,0,0,10.12012-5.3501c17.3999-11.86987,29.28-27.77991,34.30005-48.3999a8.738,8.738,0,0,1,6.04981-6.88c7.09008-2.64,12.72-7.15,16.05-14.11,8.45-17.68005,4.53-36.53-14.34985-46.27-2.53027-1.31-2.91016-2.85-2.73022-5.12.81-10.09,1.77-20.16.09008-30.29-2.55-15.42-7.05-30.12-17.17993-42.35-8.23-9.95-16.8501-19.23-29.61011-24.3-6.76-2.68-13.02-6.87-20.29-8.73-29.07984-7.42-56.34986-3.61-82.23,11.9-31.03,18.6-44.83008,62.33-39.29981,91.98.65991,3.57-.05,5.63-3.65015,6.91a20.97653,20.97653,0,0,0-9.51,6.21c-13.56,16.74-7.55,44.41,11.84009,53.81,3.55982,1.73,6.11988,3.8,6.98,7.67.90991,4.11,2.86988,7.81,4.69995,11.52,9.12989,18.52,22.01,33.56,40.89991,42.71991,2.56005,1.24,3.37011,2.68,3.29,5.32007-.1399,5.32007-.5,10.7.06,15.98.6001,5.77-2.03,8.55-6.98,10.37-8.25,3.03-16.42993,6.29-24.64013,9.45008-14.67994,5.66992-29.48,11.05993-44.02,17.09-11.82984,4.9-23.11988,10.67005-31.79981,20.80994-11.45019,13.4-16.39013,29.59009-20.47,46.02-6.65014,26.83008-14.05,53.46-20.9602,80.22-6.8899,26.67-14.50977,53.15-21,79.92-5.15992,21.29993-11.2,42.36-16.50977,63.61-1.37012,5.46-3.88013,9.98-9.32007,12.75-11.37011,5.80005-22.57007,11.93005-33.77,18.06006-3.17993,1.74-6.56006,3.27-9.09008,6.05-3.51,3.87988-4.06006,9.05993-1.29981,12.75989,2.34985,3.14,8.00977,4.11,12.21973,1.87,2.33008-1.24,4.39013-2.98,6.67016-4.33,2.29-1.34,4.72-2.97009,7.40992-1.1,2.62011,1.80994,1.59008,4.67993,1.08007,6.88989-4.16992,18.1001-8.53,36.16016-12.91015,54.21008-1.21973,5.05994,1.1101,9.42005,6.03027,10.77991,4.60986,1.27,6.98975-.53992,8.46-6.49,2.66992-10.78992,4.88989-21.7,8.36987-32.28992.5-1.52.77-3.73,3.1399-2.77,2.18017.89.53027,2.59.2102,3.85-3.2,12.72-5.7,25.58008-7.90014,38.49-.81006,4.78,1.81,8.17,6.46,9.07007,3.90014.76,7.33007-1.45,8.41015-5.97,1.56983-6.61011,2.65991-13.33008,4.21-19.95008,1.42994-6.12,1.73-12.56994,5.22-19.66a26.10874,26.10874,0,0,1,.17994,10.64014c-1.50977,9.32983-3.24,18.62988-3.75977,28.09985-.24023,4.36011.62988,7.63013,5.63989,8.22009,5.32984.63,7.59986-.91,8.79-6.42,2.67993-12.48,5.24-24.99,7.82007-37.5.2898-1.41992.04981-3.40991,2.32983-2.92993,2.18995.44995,1.37012,2.23,1.09009,3.65991q-3.03,15.615-6.06006,31.25c-1.16992,6.13,3.03,9.92,9.12989,8.69995,5.4602-1.09985,6.2102-5.48,7.33007-9.59985,4.41993-16.32007,8.66016-32.69007,13.12012-49q1.37988-5.04016,2.76-10.09009l.06983-.23L173.9722,421.14014h216.502l.3811,2.46924,59.187,196.12085q8.61,31.00488,17.37011,61.98c2.3,8.14,3.92993,16.51,7.32007,24.29,2.09985,4.82995,6.41992,6.61987,10.52979,4.96,4.75-1.92,3.6101-5.83008,2.87011-9.37-1.24-5.85-2.98-11.59-4.05-17.47009-.72-3.90991-2.84008-7.49-2.6101-11.58984.08008-1.33008-.14991-2.8,1.74023-3.04a2.60382,2.60382,0,0,1,3.02979,1.99c.26025.79.55,1.57995.75,2.37988,2.03,8.39014,4.25,16.74011,5.97021,25.19006a64.25661,64.25661,0,0,0,2.80982,11.08,7.66157,7.66157,0,0,0,9.67016,4.01c3.75-1.43994,4.62988-4.43994,3.81006-8.1499-2.20019-10.03-4.53027-20.04-6.48022-30.12012-.48-2.5-3.60987-6.73.78-7.51,3.68017-.65991,2.96,4.38013,3.68994,6.96008,2.94018,10.37,5.39013,20.89,8.38012,31.25,1.61011,5.59,5.76,7.38,10.3,4.99,4.75-2.51,4.2-6.86,3.22-10.96-2.65991-11.14-5.6101-22.21008-8.37011-33.33-.42994-1.74-.91993-4,1.51-4.61011,2.57006-.63989,2.66015,1.55,3.14013,3.4,2.68994,10.28,5.42993,20.54993,8.34986,30.76,1.05,3.69007,3.02,6.91,7.7102,5.95008,4.36987-.90015,6.55982-3.67,6.13989-8.26a31.24236,31.24236,0,0,0-.5-4.95008c-3.63989-13.79992-7.51-27.53991-10.95-41.39-1.07007-4.31006-2.84009-8.53-2.68994-13.12.13989-4.69995,1.77979-5.71,5.80982-3.39,3.32006,1.91,6.53,4,9.8601,5.87012,2.5,1.38989,5.15991,2.40991,8.1001,1.40991,3.18994-1.09,5.58984-3.09,6.26978-6.5C564.36233,628.21021,562.53226,624.97022,559.16238,622.54017Z" style="fill:#f7c59f"/><path d="M381.54886,1135.06372q-32.01417-.00732-64.03516-.03515c-15.72559-.02246-27.13867-11.42383-27.13867-27.11035q-.01026-73.57471-.01074-147.15332-.00734-148.86475-.04883-297.73536c-.00195-1.88085.07812-3.46875.14844-4.86914.12109-2.40625.21582-4.30664-.335-4.88574-1.02735-1.08008-6.22364-1.08008-8.44239-1.08008q-.99756,0-2.11719.01368c-2.18359.02539-4.90136.05761-5.44335.62793-.58106.61035-.58106,3.49511-.58106,5.8125l-.00195,10.87988q-.04248,218.001-.04785,436.00976c0,4.48633-.38379,10.34766-3.37989,15.89942-4.38672,8.10254-11.58593,12.60547-20.27246,12.68066-15.89941.127-32.96679.1836-55.34277.1836q-13.41212,0-26.82617-.01758-13.41064-.01171-26.81836-.0166c-5.04785,0-9.01172-2.71778-11.46485-7.8584-2.05761-4.30762-.96972-8.80274,3.0625-12.65723,5.00782-4.793,10.83594-8.47461,16.47266-12.03516,2.17383-1.373,4.4209-2.793,6.56934-4.24511,11.29882-7.64844,22.79394-15.09278,32.54785-21.36621,1.00586-.64453,1.22265-1.15918,1.22265-2.89746-.00293-14.11231.06836-28.46192.13672-42.33789.14551-29.32813.2959-59.65333-.24707-89.45606-1.27246-69.90625-.89648-140.04394-.36035-199.43359.7041-78.30371.7832-141.96387.25-200.34375-.29883-31.65821-2.18164-57.75391-5.92578-82.125-.92383-5.98438-2.95313-11.98926-4.915-17.79493-1.11914-3.31054-2.27539-6.73339-3.23437-10.16015-.51563-1.84766-1-3.70215-1.48633-5.56348-.4668-1.78711-.93555-3.58105-1.43457-5.37988l-.7041-2.53516H392.07034L393.586,424.678l-1.70606.45215c-.76367,1.87695-1.4248,3.57422-2.02734,5.2832-1.33008,3.73145-2.57129,7.57325-3.77051,11.28809-.88672,2.74707-1.80371,5.58691-2.75391,8.37207-2.72656,8.002-3.47851,16.5791-4.20507,24.875-.13184,1.50586-.26368,3.00977-.40625,4.50879-2.13282,22.374-3.00293,44.90332-3.52247,62.03125-.40234,13.23242-.60742,27.08594-.6289,42.35254q-.02051,13.875-.04785,27.749c-.09668,51.29883-.19629,104.3457.39746,156.4961l.04785,4.36035c.11816,10.65527.24023,21.67285.07227,32.43261-.15918,10.24414-.05762,20.67481.041,30.7627.05176,5.22363.10254,10.44434.11914,15.65918.082,30.11426.09277,60.72656.10352,90.33105q.01171,37.4502.0664,74.90235l.00489,2.84082c.02832,17.25879.05859,35.10644-.0752,52.66894-.02246,2.69629.78516,4.043,3.4541,5.76368,18.92383,12.22558,34.376,22.49316,48.63086,32.3125,5.50391,3.79687,8.39551,8.81933,7.93555,13.78125-.40137,4.31445-3.37012,8.00878-8.14649,10.13378a14.73172,14.73172,0,0,1-6.17382,1.043S394.69729,1135.06763,381.54886,1135.06372Z" style="fill:#f7c59f"/><path d="M390.47732,420.07813l1.15918,5.0473-.811-2.68719c-1.05,2.53009-2.01,4.8999-2.85986,7.31-2.32007,6.51-4.3,13.14-6.53,19.68-3.3,9.68-3.76,19.86-4.71021,29.84-1.96973,20.66-2.8999,41.39-3.52978,62.16-.43018,14.14-.61011,28.28015-.63013,42.40991-.09009,61.43011-.34985,122.86023.3501,184.27014.12988,12.22986.30981,24.56.11987,36.74-.24,15.48987.11011,31,.16016,46.4599.1499,55.08008.06005,110.15021.16992,165.23016.03,18.5.07007,36.99-.07007,55.49-.03,3.59,1.33008,5.5,4.37012,7.46,16.32983,10.55,32.57006,21.25,48.57983,32.28,9.57007,6.6,9.37012,16.32.11011,20.44007a12.81191,12.81191,0,0,1-5.36011.86987q-51.73462-.03-103.48-.04993c-14.63989-.02-25.13989-10.49-25.13989-25.11q-.03-222.43506-.06006-444.89008c-.00952-10.84918,2.82324-12.83392-10.63159-12.83392q-1.006,0-2.13843.014c-7.6499.08978-8,.42987-8,8.43988q-.045,223.44-.05,446.89007c0,5.25989-.61987,10.27991-3.13989,14.95-3.99,7.37-10.42993,11.55993-18.53,11.63q-27.72546.22137-55.4502.18384-26.75829,0-53.51977-.03382c-4.76,0-7.77-2.76-9.65991-6.72009-1.92017-4.0199-.3-7.53992,2.63989-10.34985,6.78-6.49,15.09009-10.87012,22.78-16.07007,10.74-7.27,21.60986-14.33008,32.51-21.34,1.8999-1.22009,2.13989-2.66,2.13989-4.58-.00977-43.94007.69019-87.90015-.10986-131.83008-1.21-66.46-.96-132.92993-.36011-199.38007.6001-66.79986.86011-133.59.25-200.38-.26-27.51-1.76-55.14-5.95-82.40985-1.48-9.59015-5.56006-18.76-8.2-28.19013-1.01-3.62-1.90015-7.27-2.92017-10.94012h216.502m3.18555-4H168.71194l1.40955,5.07123c.4956,1.7832.971,3.60339,1.43066,5.36371.47718,1.82727.97058,3.71667,1.4906,5.5802.97412,3.47979,2.139,6.92688,3.26551,10.26037,2.02441,5.99054,3.9364,11.64881,4.83386,17.46472,3.72925,24.27039,5.60522,50.2757,5.90356,81.83771.533,58.3443.45337,121.99341-.25,200.30628-.53637,59.39819-.91284,129.54962.3606,199.4887.54224,29.77417.39184,60.08338.24634,89.39466-.06909,13.88379-.14038,28.24048-.13721,42.36352a5.04857,5.04857,0,0,1-.06543,1.0387,1.76734,1.76734,0,0,1-.23584.17468c-9.76819,6.282-21.27722,13.73486-32.59082,21.39319-2.11963,1.43323-4.35278,2.844-6.51245,4.20813-5.72107,3.61389-11.63684,7.351-16.79138,12.28479-4.70569,4.49792-5.94361,9.81274-3.4834,14.9635,3.54834,7.43518,9.17456,8.99609,13.26941,8.99609q13.37493,0,26.75427.017,13.38318.01264,26.7655.01685c22.43286,0,39.54419-.05676,55.48218-.184,9.4502-.08167,17.26807-4.95618,22.01563-13.72547,3.21093-5.95044,3.62231-12.13269,3.62231-16.85437-.00977-149.71594.02075-300.78961.05-446.88928a40.32712,40.32712,0,0,1,.14892-4.26416,38.61356,38.61356,0,0,1,3.8982-.17682q1.10669-.01328,2.09131-.01373c4.38842,0,6.14331.25421,6.84253.468a30.044,30.044,0,0,1-.05982,3.39508c-.06811,1.35467-.15283,3.04046-.15112,4.97436.04,98.90479.04468,199.46588.04907,296.71607q.0033,74.08685.011,148.171c0,16.84387,12.25293,29.08642,29.13452,29.10949q32.32178.03737,64.63281.03577,19.42566.00513,38.85034.01416a16.65567,16.65567,0,0,0,6.981-1.212c5.46436-2.43127,8.86328-6.72351,9.33252-11.77954.5293-5.70337-2.67456-11.39355-8.79028-15.6112-14.26148-9.82556-29.7295-20.10376-48.68018-32.34705-2.22559-1.43469-2.55664-2.19519-2.54077-4.06665.13281-17.54687.10327-35.37.075-52.60632l-.00488-2.92359c-.04981-25.03112-.05884-50.47924-.06739-75.08935-.01025-29.54376-.02075-60.09338-.10253-90.14526-.01685-5.22242-.06885-10.53083-.1189-15.66437-.09839-10.07874-.2002-20.50061-.04175-30.72266.16846-10.805.0459-21.85516-.07251-32.54138l-.04712-4.3031c-.59448-52.16266-.49463-105.22467-.39819-156.5398q.026-13.84075.04834-27.68188c.02148-15.2721.22705-29.10663.62817-42.29419.5188-17.10254,1.38672-39.59381,3.51367-61.902.14331-1.50445.27539-3.01306.40772-4.5238.71631-8.17725,1.457-16.633,4.10644-24.40509.95655-2.80469,1.87769-5.65741,2.76832-8.41626,1.1936-3.69684,2.428-7.51953,3.74365-11.21161.73047-2.07117,1.55029-4.12915,2.54077-6.52637l1.26074-.33465-1.15918-5.04731-.71289-3.10461Z" style="fill:#f7c59f"/></g></g></svg>