<svg xmlns="http://www.w3.org/2000/svg" viewBox="0 0 563.72511 1134.14014"><g id="Layer_2" data-name="Layer 2"><g id="Layer_1-2" data-name="Layer 1"><path d="M563.52225,632.44019c-.67994,3.41-3.07984,5.41-6.26978,6.5-2.94019,1-5.6001-.02-8.1001-1.40991-3.33008-1.87012-6.54-3.96009-9.8601-5.87012-4.03-2.32-5.66993-1.30994-5.80982,3.39-.15015,4.59,1.61987,8.80994,2.68994,13.12,3.43994,13.8501,7.31006,27.59009,10.95,41.39a31.24236,31.24236,0,0,1,.5,4.95008c.41993,4.59-1.77,7.35986-6.13989,8.26-4.69018.96-6.66016-2.26-7.7102-5.95008-2.91993-10.21008-5.65992-20.48-8.34986-30.76-.48-1.85-.57007-4.03991-3.14013-3.4-2.42994.61011-1.93995,2.87012-1.51,4.61011,2.76,11.11987,5.7102,22.18994,8.37011,33.33.98,4.1,1.53,8.44995-3.22,10.96-4.54,2.39-8.68994.6-10.3-4.99-2.99-10.36-5.43994-20.88-8.38012-31.25-.73-2.58-.00977-7.62-3.68994-6.96008-4.3899.78-1.26,5.01-.78,7.51,1.95,10.08008,4.28,20.09009,6.48022,30.12012.81982,3.71-.06006,6.71-3.81006,8.1499a7.66157,7.66157,0,0,1-9.67016-4.01,64.25661,64.25661,0,0,1-2.80982-11.08c-1.72021-8.44995-3.94018-16.79992-5.97021-25.19006-.2-.79993-.48975-1.58984-.75-2.37988a2.60382,2.60382,0,0,0-3.02979-1.99c-1.89014.24-1.66015,1.71-1.74023,3.04-.23,4.09985,1.89013,7.67993,2.6101,11.58984,1.07007,5.88013,2.81006,11.62012,4.05,17.47009.74,3.53992,1.87989,7.45-2.87011,9.37-4.10987,1.65991-8.42994-.13-10.52979-4.96-3.39014-7.78-5.02-16.15-7.32007-24.29q-12.60021-44.56494-24.92993-89.19995-14.655-53.02515-29.16016-106.1001c-6.33007-23.02-12.67993-46.04-19.38989-70.37988-2.33008,5.71-4.34009,10.17993-5.97,14.7799-2.32007,6.51-4.3,13.14-6.53,19.68006-3.3,9.67993-3.76,19.86-4.7102,29.84-1.96973,20.66-2.89991,41.39-3.52979,62.16-.43017,14.13989-.61011,28.28-.63013,42.40991-.09008,61.43-.34985,122.86011.3501,184.27.12989,12.23.30982,24.56006.11988,36.74-.24,15.49.1101,31,.16015,46.46.1499,55.08008.06006,110.15015.16992,165.2301.03,18.5.07007,36.99-.07006,55.49-.03,3.59,1.33007,5.5,4.37011,7.46,16.32984,10.55005,32.57007,21.25,48.57984,32.28,9.57006,6.6,9.37011,16.31995.1101,20.44007a12.81189,12.81189,0,0,1-5.3601.86987q-51.73462-.03-103.48-.04993c-14.6399-.02-25.1399-10.49-25.1399-25.11q-.03-222.43506-.06006-444.89c-.01-11.39,3.11011-13.01-12.77-12.81994-7.64991.08984-8,.42993-8,8.43994q-.045,223.43994-.05,446.89c0,5.25989-.61988,10.27991-3.1399,14.94995-3.99,7.37-10.42993,11.55994-18.53,11.63-36.31982.29-72.6499.15-108.97.15-4.76,0-7.77-2.76-9.65991-6.72009-1.92016-4.0199-.3-7.53992,2.63989-10.34985,6.78-6.49,15.09009-10.87012,22.78-16.07007,10.74-7.27,21.60987-14.33008,32.51-21.34,1.89991-1.22009,2.1399-2.66,2.1399-4.58-.00977-43.94007.69018-87.90015-.10987-131.83008-1.21-66.46-.96-132.92993-.3601-199.38.60009-66.79992.8601-133.59.25-200.38-.26-27.51-1.76-55.14-5.95-82.40991-1.48-9.59009-5.56-18.76-8.2-28.19007-1.90991-6.84-3.40014-13.80993-6.06006-20.79-1.65991,6.18-3.29,12.36-4.97,18.52q-8.44482,30.975-16.92993,61.93006c-5.7,20.63989-11.55,41.25-17.26,61.8999q-13.66517,49.41009-27.23,98.87012c-4.46,16.30993-8.70019,32.67993-13.12012,49-1.11987,4.11987-1.86987,8.5-7.33007,9.59985-6.09986,1.22009-10.29981-2.56994-9.12989-8.69995q3-15.62988,6.06006-31.25c.28-1.42993,1.09986-3.21-1.09009-3.65991-2.28-.48-2.04,1.51-2.32983,2.92993-2.58008,12.51-5.14014,25.02-7.82007,37.5-1.19018,5.51-3.4602,7.05005-8.79,6.42-5.01-.59-5.88012-3.86-5.63989-8.22009.51978-9.47,2.25-18.77,3.75977-28.09985a26.10874,26.10874,0,0,0-.17994-10.64014c-3.49,7.09009-3.79,13.54-5.22,19.66-1.55,6.62-2.64013,13.34-4.21,19.95008-1.08008,4.52-4.51,6.73-8.41015,5.97-4.64991-.9-7.27-4.29-6.46-9.07007,2.20019-12.90991,4.70019-25.77,7.90014-38.49.32007-1.26,1.97-2.96-.2102-3.85-2.36988-.96-2.6399,1.25-3.1399,2.77-3.48,10.59-5.69995,21.5-8.36987,32.28992-1.47021,5.95007-3.8501,7.76-8.46,6.49-4.92017-1.35986-7.25-5.72-6.03027-10.77991,4.38012-18.04992,8.74023-36.11,12.91015-54.21008.51-2.21,1.54-5.08-1.08007-6.88989-2.68995-1.87012-5.11988-.24-7.40992,1.1-2.28,1.35-4.34008,3.09-6.67016,4.33-4.21,2.24-9.86988,1.27-12.21973-1.87-2.76025-3.7-2.2102-8.88,1.29981-12.75989,2.53-2.78,5.91015-4.31006,9.09008-6.05,11.2-6.13,22.39991-12.26,33.77-18.06006,5.43994-2.77,7.95-7.29,9.32007-12.75,5.30982-21.25,11.34985-42.31006,16.50977-63.61,6.49023-26.77,14.1101-53.25,21-79.92,6.91015-26.76,14.31006-53.38989,20.9602-80.22,4.07984-16.42993,9.01978-32.62,20.47-46.02,8.67993-10.13989,19.97-15.90991,31.79981-20.80994,14.54-6.03,29.34008-11.42,44.02-17.09,8.2102-3.16,16.39013-6.42005,24.64013-9.45008,4.95-1.81994,7.58008-4.6,6.98-10.37-.56-5.28-.19995-10.65991-.06-15.98.08007-2.64-.73-4.08008-3.29-5.32007-18.8899-9.15991-31.77-24.19995-40.89991-42.71991-1.83007-3.71-3.79-7.41-4.69995-11.52-.8601-3.87-3.42016-5.94-6.98-7.67-19.39013-9.4-25.40014-37.07-11.84009-53.81a20.97653,20.97653,0,0,1,9.51-6.21c3.6001-1.28,4.31006-3.34,3.65015-6.91-5.53027-29.65,8.26978-73.38,39.29981-91.98,25.88012-15.51,53.15014-19.32,82.23-11.9,7.27,1.86,13.53,6.05,20.29,8.73,12.76,5.07,21.38013,14.35,29.61011,24.3,10.12988,12.23,14.62988,26.93,17.17993,42.35,1.67994,10.13.72,20.2-.09008,30.29-.17994,2.27.2,3.81,2.73022,5.12,18.87988,9.74,22.79981,28.59,14.34985,46.27-3.33007,6.96-8.96,11.47-16.05,14.11a8.738,8.738,0,0,0-6.04981,6.88c-5.02,20.62-16.90015,36.53-34.3,48.3999a53.49771,53.49771,0,0,1-10.12012,5.3501c-2.72,1.09-3.8601,2.49-3.68994,5.46.3,5.15-.38012,10.28-.67993,15.42-.42016,7.25,1.04981,8.86,7.54981,11.75,18.70019,8.29993,38.12011,14.73,57.1101,22.28992,10.6399,4.24,21.49,8.14014,31.11011,14.57007,12.22,8.16992,20.04981,19.74,24.87988,33.36,7.74,21.79,12.73,44.36,18.57007,66.68006,7.30982,27.92993,14.93994,55.78,21.85987,83.79993,5.9602,24.16,12.7102,48.11,18.90014,72.20007,1.8999,7.37988,4.57984,14.58,6.16992,22.03,2.39014,11.22,11.65992,15.03991,20.08008,19.90991a363.11,363.11,0,0,1,31.22,19.61C562.53226,624.97022,564.36233,628.21021,563.52225,632.44019Z" style="fill:#f7c59f"/><polygon points="179.836 401.731 107.206 642.416 119.325 454.371 179.836 401.731" style="fill:#f7c59f"/><polygon points="385.376 405.433 458.006 646.117 445.887 458.072 385.376 405.433" style="fill:#f7c59f"/></g></g></svg>