<svg xmlns="http://www.w3.org/2000/svg" viewBox="0 0 414.23109 847.14294"><g id="Layer_2" data-name="Layer 2"><g id="Layer_1-2" data-name="Layer 1"><path d="M215.02361,453.08685l-.18079.31374.21051-.284Z" style="fill:#f7c59f"/><path d="M211.01138,115.9307c0-8.16252-.19779-16.33107.05309-24.48586a29.2683,29.2683,0,0,1,10.8877-22.30859,15.59364,15.59364,0,0,1,8.41006-3.566c16.8636-1.92983,33.82353-2.17915,50.45474,1.28085C293.98833,69.59127,301.68035,79.34,306.1959,91.41762c4.78714,12.80411,7.44072,25.90518,1.77611,39.2635-3.64379,8.59277-10.63615,14.02863-18.46048,18.20615-18.89483,10.08823-39.326,13.9158-60.5937,13.35136-10.15642-.26955-17.58259-8.9455-17.90325-20.32175-.122-4.32774-.0231-8.66168-.02386-12.9928s-.00018-8.66226-.00018-12.99338Z" style="fill:#bf4c49"/><path d="M204.01353,120.04625c-.48538,7.42253.90032,16.93989-.705,26.37791-1.71032,10.05536-7.77914,15.57836-18.02017,15.82284a139.49688,139.49688,0,0,1-44.66048-6.583,76.27562,76.27562,0,0,1-16.73455-7.33667c-13.67916-8.14189-20.9483-19.81271-19.802-35.86436,1.23649-17.31432,5.84118-33.09108,22.117-42.80308,4.75628-2.83815,9.93345-3.75992,15.24786-4.06414,13.94752-.79843,27.99427-2.00413,41.8104.51439,12.05421,2.19738,18.74458,10.70606,20.05363,22.93945a134.45466,134.45466,0,0,1,.69423,14.45646C204.01029,108.33774,204.01353,113.16938,204.01353,120.04625Z" style="fill:#bf4c49"/><path d="M289.43034,379.57934c2.4657,4.4855,2.03092,8.3841,2.12066,12.10707.45724,18.96972.86386,37.94169.42374,56.91995-1.10815,47.78408-8.78455,94.141-29.86476,137.58323-3.19595,6.5862-6.86421,12.91542-12.18023,18.051-6.53735,6.31549-12.63735,5.22086-16.63585-2.99206-3.46694-7.12115-4.64667-14.84012-5.41425-22.6424-3.02236-30.72136,2.90921-60.15123,13.06752-88.9034,12.61886-35.71661,26.9838-70.69817,44.95994-104.10945C286.83245,383.87334,287.87923,382.21879,289.43034,379.57934Z" style="fill:#bf4c49"/><path d="M187.15691,562.85234a102.92778,102.92778,0,0,1-3.06071,30.16212,43.58412,43.58412,0,0,1-2.65141,7.5008c-4.406,9.533-10.15284,10.40157-17.47529,2.698-7.84487-8.25314-12.17154-18.59142-16.63588-28.77787-7.55859-17.24664-12.03243-35.45773-16.41842-53.70508a267.44378,267.44378,0,0,1-6.85737-41.72081c-2.03219-25.91951-.96394-51.83585-.80861-77.75616.03559-5.93694.475-11.87321.81017-17.80515.06623-1.17183-.70969-2.88587,1.28511-3.2571,1.89033-.35169,2.03472,1.49893,2.57251,2.51831,7.6711,14.54245,14.81928,29.335,21.29994,44.45344,11.90824,27.78027,23.7964,55.56591,31.46123,84.9107,1.3402,5.131,2.46043,10.33651,3.35391,15.56372C186.02286,539.28393,187.68833,550.97662,187.15691,562.85234Z" style="fill:#bf4c49"/><path d="M239.38987,626.064c7.60915,16.56419,14.92571,31.83357,21.62118,47.37056,2.93118,6.80187.86166,14.19008-.15934,21.17863q-4.64508,31.79421-6.90586,63.82324c-1.45541,20.64849-.83746,41.24914.22592,61.84893.38081,7.37735,1.98311,14.6911,3.0097,22.03635.21667,1.55043,1.22388,3.3728-1.12972,4.2163-2.15456.77223-3.04533-.88353-3.85347-2.28567-4.83438-8.38624-8.12089-17.4534-11.46452-26.48785-6.47678-17.50039-11.81029-35.439-14.42826-53.84008-4.4806-31.493-5.54972-63.134-.62133-94.82882C227.97048,654.39214,233.45378,640.94939,239.38987,626.064Z" style="fill:#bf4c49"/><path d="M174.81212,626.89736c6.10248,14.05087,10.9057,27.6576,13.25637,41.95362,4.04568,24.60452,3.74491,49.31046,1.25333,74.08482-2.525,25.10585-7.22591,49.7197-15.10482,73.69644a164.96317,164.96317,0,0,1-11.08436,26.49261c-1.01468,1.89524-2.137,4.30443-4.7793,3.333-2.568-.9442-1.36238-3.46264-1.05633-5.26865,3.88209-22.90792,4.5315-45.98782,3.67445-69.13595a654.854,654.854,0,0,0-6.38631-69.35137c-1.09252-7.56665-1.03723-15.209-2.50549-22.69458-.65454-3.3368.66271-6.28535,1.98012-9.11611C160.762,656.49029,167.59922,642.1521,174.81212,626.89736Z" style="fill:#bf4c49"/><path d="M95.22889,134.97425C93.17826,170.62444,80.25518,207.83092,48.524,236.91086c-1.10326,1.01108-2.24511,1.9839-3.412,2.9209-2.14522,1.72241-3.35665,1.37431-4.05235-1.489-2.20886-9.09121-4.91939-18.07147-6.83079-27.221a105.38244,105.38244,0,0,1-2.02644-26.57161c1.28513-27.27057,14.23164-57.51282,46.61321-69.173C92.80212,110.34069,95.29774,112.4944,95.22889,134.97425Z" style="fill:#bf4c49"/><path d="M382.129,188.81674c-.32847,16.93428-3.61687,32.66814-8.2253,48.18078-1.02979,3.46654-2.27356,4.32945-5.34273,1.478-24.64249-22.8948-40.80054-50.43835-46.76909-83.77365a158.93587,158.93587,0,0,1-2.78075-32.24157c.20477-7.85679,1.82276-9.34434,9.5327-8.4349,10.4729,1.2353,19.05713,6.62609,26.98245,13.05624C375.34747,143.16331,381.98905,164.95751,382.129,188.81674Z" style="fill:#bf4c49"/><path d="M287.08339,743.96958c1.63611,14.66523.60877,29.31569-.19876,43.91635-.998,18.04438-1.83451,36.15137-4.65173,54.061-.29741,1.89072.37662,4.40623-2.1974,4.99964-2.67729.6171-3.73185-1.82663-4.79642-3.6047-6.90558-11.53482-10.78151-24.11637-13.36823-37.26765-5.00278-25.43478-2.09052-50.56883,1.66061-75.80064,3.00005-20.1798,7.055-40.12991,11.51486-60.01246,1.84727-8.2355,3.92747-16.42028,6.02345-24.59695.40555-1.58211.33464-4.06417,3.10913-3.58847,2.35809.40424,1.79784,2.48023,1.838,4.03274.38337,14.80614.87909,29.61191,1.025,44.421C287.21737,708.34121,287.08339,726.156,287.08339,743.96958Z" style="fill:#bf4c49"/><path d="M155.30551,774.20591c-.03238,22.04221-3.45979,40.7176-10.31924,58.76539a51.42088,51.42088,0,0,1-6.72622,12.19293c-.93154,1.26776-2.09131,2.3107-3.76117,1.88-1.62989-.42072-1.60258-1.95431-1.63331-3.28273-.30757-13.28-2.8073-26.34371-3.92652-39.55773-2.627-31.01734-2.14912-62.04042-1.71667-93.07388.28271-20.28715,1.212-40.56533,1.85935-60.8473a36.157,36.157,0,0,1,.27117-4.48507c.24328-1.53774-.0177-3.70411,2.36144-3.71332,1.92611-.00745,2.08216,1.75694,2.41924,3.2361,1.95589,8.58261,4.23757,17.10237,5.8706,25.7451,4.684,24.78943,9.77058,49.52064,12.919,74.56753C154.2272,756.00616,155.75256,766.41041,155.30551,774.20591Z" style="fill:#bf4c49"/><path d="M376.8193,265.92508c-.49056-16.64248,4.51631-31.5631,10.31905-46.285.48022-1.21827.728-3.32282,2.62737-3.1002,1.42319.16672,1.61884,1.99049,2.10309,3.17263,10.26083,25.0491,16.20375,51.17,19.34483,77.99227a499.29686,499.29686,0,0,1,2.98907,62.69305c-.009.99942-.03576,1.99928-.016,2.99816.02783,1.40616-.21,2.97423-1.5475,3.41814-2.07288.68789-2.38851-1.70221-2.91059-2.69529-9.492-18.05585-18.443-36.39724-24.71588-55.84577C380.53135,294.37883,376.01726,280.38038,376.8193,265.92508Z" style="fill:#bf4c49"/><path d="M2.14779,366.30545C-.662,362.277.08877,358.34152.0971,354.64406c.03172-14.08218.2842-28.12177,1.43825-42.21634A325.60214,325.60214,0,0,1,21.62521,222.944c.84762-2.23436,1.05436-5.99028,3.66542-5.86609,2.21437.10539,2.49877,3.86272,3.32326,6.11062,6.55657,17.87576,11.31789,36.03847,8.49664,55.36714-2.19316,15.02547-7.093,29.23348-12.95334,43.15041-6.0807,14.4404-13.56452,28.20543-20.45237,42.25716A24.11015,24.11015,0,0,1,2.14779,366.30545Z" style="fill:#bf4c49"/><path d="M122.69251,54.14423c2.12945,0,6.121-.01519,10.11228.00845,1.34535.008,2.87547.04751,3.10761,1.76128.24816,1.83226-1.53136,1.47876-2.47086,1.69885-13.37731,3.13389-22.82512,11.35007-28.85113,23.3017-10.76653,21.35374-30.021,30.19825-51.5031,36.04375-2.41415.65691-3.5634-.10332-3.047-2.67683,2.417-12.04552,5.07969-24.013,11.703-34.63712C70.92982,64.90881,84.69744,57.57748,101.464,55.133A100.9121,100.9121,0,0,1,122.69251,54.14423Z" style="fill:#bf4c49"/><path d="M210.0374,354.96744c0-4.98774-.03039-9.97566.00906-14.9631.03537-4.47029-1.34578-9.55092,4.77988-11.53757a1.79884,1.79884,0,0,0,.98347-1.08968c1.94054-7.161,7.61767-6.55593,13.13435-6.44505,4.16138.08367,8.33173-.15519,12.48853.0022,6.50357.24612,10.78548,4.6729,10.79668,11.19594A112.03545,112.03545,0,0,1,246.9178,366.007c-3.97574,12.65148-13.83374,19.3175-27.18333,19.0817-5.85422-.10332-9.48125-3.74464-9.51814-9.666-.04248-6.81828-.00989-13.637-.00989-20.45552Z" style="fill:#bf4c49"/><path d="M225.49163,513.76706c-1.53979-.6614-1.56313-1.88632-1.64536-3.04045-1.4087-19.77172-2.50925-39.60411.73616-59.24792,4.78909-28.98706,21.2094-50.76588,44.03963-68.26511a39.37218,39.37218,0,0,1,4.40088-3.24715c1.16542-.65762,2.30408-2.70877,3.74494-1.36943,1.19623,1.1119.0191,2.77151-.56273,4.1407-6.81355,16.03447-13.84924,31.97985-20.35793,48.13735-10.42655,25.88333-20.48218,51.91452-28.03846,78.82772C227.37868,511.23459,226.95037,512.88493,225.49163,513.76706Z" style="fill:#bf4c49"/><path d="M277.06065,55.29671a11.90665,11.90665,0,0,1,3.08448-1.09209c14.3-.41,28.59739-.86209,42.56371,3.2812,19.79183,5.87155,31.43057,19.60018,37.32308,38.75187,1.79958,5.84889,2.78878,11.94319,4.45437,17.83884.84775,3.00076-.18439,3.81717-2.78335,3.12162-21.50794-5.75576-40.61032-15.0489-51.31109-36.09928-5.46548-10.75155-14.30337-17.68169-24.9007-22.61146C282.97962,57.319,279.4508,58.79623,277.06065,55.29671Z" style="fill:#bf4c49"/><path d="M204.24155,355.98621c0,6.824.07863,13.64933-.025,20.47176-.08232,5.4206-2.80327,8.2712-8.21676,8.64541-12.87364.88983-24.20307-5.715-28.17173-18.83241a121.28771,121.28771,0,0,1-4.94133-34.8667c-.02182-6.07974,3.66911-10.13079,9.79117-10.41541,6.96429-.32369,13.95882.03454,20.94.01794a3.26236,3.26236,0,0,1,3.37042,2.33493,13.55151,13.55151,0,0,0,5.516,6.85453c1.88778,1.12294,1.84375,2.93085,1.83057,4.81766-.04876,6.9905-.01944,13.98143-.01944,20.97223Z" style="fill:#bf4c49"/><path d="M259.929,364.83661c1.52886-17.89712,2.99355-34.94719,4.43753-51.99891.50493-5.96245,1.03287-11.92478,1.39121-17.8967a5.18664,5.18664,0,0,1,2.07267-4.23858c6.96785-5.38868,13.857-10.879,20.81233-16.28413,1.002-.77863,2.07688-1.97768,3.5329-1.24762,1.311.65731.82651,2.01985.71126,3.12845-1.56684,15.07386-1.87643,30.20692-2.00285,45.34028-.06514,7.79806-1.55128,15.5916-.09984,23.411a4.02777,4.02777,0,0,1-.89952,2.72165c-5.9057,7.86471-12.22982,15.35373-20.09452,21.37568-2.28336,1.74847-4.754,3.39465-7.75961,1.9504C258.87028,369.57951,260.19333,366.48566,259.929,364.83661Z" style="fill:#bf4c49"/><path d="M191.10455,481.8212a251.06455,251.06455,0,0,1-.96495,27.40288c-.11665,1.29828.7127,3.477-1.38569,3.621-1.72189.11815-2.12237-1.96554-2.50971-3.31953-1.18488-4.14185-1.98054-8.39886-3.2433-12.51411a886.75357,886.75357,0,0,0-42.58662-110.96123c-.694-1.50656-1.51092-2.96808-2.063-4.52425-.35743-1.00754-1.38667-2.32748-.26711-3.17428,1.12911-.85407,2.44783-.30581,3.54822.7065,8.42617,7.75235,17.69878,14.59328,25.06083,23.48969,15.683,18.95171,24.22749,40.56045,24.413,65.29648C191.14114,472.5034,191.11123,477.163,191.10455,481.8212Z" style="fill:#bf4c49"/><path d="M120.72131,272.11693a10.87018,10.87018,0,0,1,5.8978,2.77993c6.53737,5.385,13.07835,10.767,19.70266,16.04393a6.60088,6.60088,0,0,1,2.76254,5.44782c.77848,22.07754,2.59313,44.08258,4.917,66.048a31.55532,31.55532,0,0,1,.17506,3.9885c-.09368,4.35019-3.44442,6.67011-7.01055,4.19354-9.2344-6.41283-16.50043-14.89359-23.01-23.98742-.64963-.90752-.27531-2.59252-.27156-3.91636.04284-15.13764.65692-30.33318-1.0841-45.37006C121.83269,288.9896,123.24469,280.60367,120.72131,272.11693Z" style="fill:#bf4c49"/><path d="M176.27688,222.16325c-4.15513,0-8.31413.11442-12.46449-.02624-6.51239-.2208-10.02162-4.01675-9.94848-10.52008.17558-15.61425,10.29169-27.34274,26.17212-30.53243a56.17782,56.17782,0,0,1,14.8476-1.02842c6.2212.41239,9.32976,3.73265,9.38883,9.83576.0563,5.81566-.131,11.64135.16721,17.44324.12309,2.39528-1.105,3.14377-2.72763,4.12623-3.14569,1.90451-6.18736,4.00278-7.16677,7.87856-.60111,2.37874-2.53726,2.42469-4.31309,2.464-4.64968.103-9.30321.03479-13.95518.03479Z" style="fill:#bf4c49"/><path d="M239.27383,222.20914c-4.53264-.24264-10.34813-.53068-16.1593-.88848-.94783-.0584-2.53842-.193-2.71176-.68606-1.70645-4.85446-5.41-7.86025-9.34724-10.71506a1.86357,1.86357,0,0,1-.79014-1.2309c.14015-7.60753-1.40433-15.30826.78038-22.79692,1.085-3.71909,4.07722-5.592,7.90467-5.84055,10.40061-.67556,20.08944,1.424,28.95641,7.18124,8.96051,5.818,12.20247,14.61122,12.90659,24.56772.41269,5.83564-4.44551,10.36232-10.25991,10.40468C247.22335,222.229,243.89288,222.20914,239.27383,222.20914Z" style="fill:#bf4c49"/><path d="M232.54367,227.91235A90.60311,90.60311,0,0,1,248.441,229.0749c8.20211,1.53341,12.04631,6.24232,11.73154,14.45042a43.3986,43.3986,0,0,1-2.34921,12.18c-2.96231,8.80219-10.36049,10.91413-18.447,11.37622-5.97365.34138-11.98086.1085-17.97306.097-.814-.00159-2.04294.09837-2.3774-.36055-3.45015-4.73442-11.1026-6.98513-9.02581-15.04414a10.36713,10.36713,0,0,0,.04165-2.49023c.03295-12.59974.05184-12.57734,9.284-20.4357,1.17841-1.00308,2.42262-.92119,3.72968-.92918C226.218,227.89929,229.38089,227.91235,232.54367,227.91235Z" style="fill:#bf4c49"/><path d="M184.25475,267.27431a67.41287,67.41287,0,0,1-14.87341-1.04331c-6.101-1.32042-10.58952-4.53083-12.62289-10.68015a47.39859,47.39859,0,0,1-2.25715-15.18016c.02969-5.89154,3.75629-9.8815,10.10739-11.162,9.36014-1.88723,18.86941-1.0815,28.32354-1.23859,1.72939-.02874,2.62452,1.01048,3.5693,2.26884,1.08441,1.44437,2.1981,3.25813,3.72516,3.904,4.252,1.79839,4.55314,5.31881,4.45385,8.97325-.126,4.63983-.82968,9.269-.00015,13.90813.15421.8623.09526,1.86216-.6675,2.25456-5.64271,2.90278-9.08779,10.55608-17.27468,8.0266A8.7792,8.7792,0,0,0,184.25475,267.27431Z" style="fill:#bf4c49"/><path d="M181.68991,273.08255c2.17287,0,3.84523.09746,5.50267-.01837,4.81821-.33674,9.40632-.33986,10.84364,5.71517a1.378,1.378,0,0,0,.49181.847c7.42784,3.98587,6.12246,10.85218,5.783,17.40829-.06023,1.16353-.04726,2.33115-.05315,3.497-.04727,9.358-5.45749,14.593-14.89587,14.66981A60.581,60.581,0,0,1,173.58,313.3278c-8.40713-2.17528-14.59824-6.44206-15.17155-15.98443a115.96037,115.96037,0,0,1-.42139-13.4527c.32054-5.65994,4.56431-8.12046,9.33479-9.77507C172.1761,272.43207,177.23108,273.33983,181.68991,273.08255Z" style="fill:#bf4c49"/><path d="M232.38149,273.17519c5.08529.05339,10.27817-.62327,15.24638,1.21515,7.16579,2.65172,9.43,6.49222,8.63991,14.52554-.32475,3.30189-.47323,6.62861-.96244,9.90518a17.26363,17.26363,0,0,1-13.635,14.36467c-4.02545.8385-8.14048,1.293-12.134,2.09656-7.95459,1.601-13.32121-2.15582-18.48541-7.16669-1.15318-1.11891-1.02673-2.36031-1.03439-3.65687-.02063-3.49388.05892-6.98922-.00687-10.48194-.09837-5.22275-.9896-10.72183,5.3228-13.38447a.66176.66176,0,0,0,.33287-.36207C218.47956,271.42062,225.64218,272.79524,232.38149,273.17519Z" style="fill:#bf4c49"/><path d="M350.57987,256.44611c-.19678-1.04318-.18122-2.12878,1.06326-2.40853,1.51165-.33991,2.43855.71023,3.31187,1.76873a141.7442,141.7442,0,0,1,14.04537,20.55738c6.29355,11.13376,9.18366,23.45118,12.6156,35.56539,5.05431,17.841,10.29446,35.61012,17.08613,52.88678.50115,1.2749,2.03144,3.00811.3138,3.98941-1.85874,1.06186-3.09025-.51884-4.30522-2.12139a217.19358,217.19358,0,0,1-33.16317-61.82653C356.2522,289.17945,353.00658,272.8642,350.57987,256.44611Z" style="fill:#bf4c49"/><path d="M63.72476,256.70877c-6.27329,39.74715-18.94071,76.92254-43.57247,109.29729a18.74532,18.74532,0,0,1-1.14154,1.633c-.98627,1.04-1.82728,2.72489-3.61748,1.9086-2.22595-1.01487-.43156-2.77426-.1052-3.7962,3.8512-12.05819,8.05169-24.005,11.89547-36.06544,3.86415-12.1244,7.33524-24.37366,11.15241-36.51356,4.3531-13.84436,11.895-25.89882,21.30465-36.83833.94663-1.10055,2.01759-2.49574,3.70141-2.07362C64.657,254.59006,63.94555,255.90127,63.72476,256.70877Z" style="fill:#bf4c49"/><path d="M111.04993,159.20419c-.41612-4.11152.82075-4.65557,3.32055-3.17678,17.56752,10.39207,37.01568,13.67837,56.96522,15.048,1.34209.09215,3.09208-.04784,3.326,1.46488.286,1.849-1.55627,2.25-2.998,2.64088-13.27407,3.59915-20.61366,12.7018-23.307,25.74513-.74293,3.598-2.3749,3.91075-5.15156,2.92133-15.05933-5.366-26.3925-14.18373-29.17666-31.12942C113.22486,167.82642,111.90351,163.01974,111.04993,159.20419Z" style="fill:#bf4c49"/><path d="M303.90726,157.826c-2.21287,9.15617-2.87049,18.76753-7.68937,27.175-5.69442,9.9349-14.74446,15.46217-25.26527,19.024-2.93017.992-4.23177-.20785-4.77112-3.06925-2.46751-13.09081-9.83676-21.83426-22.86789-25.47244-1.392-.38861-3.4-.4519-3.11108-2.4722.31483-2.20122,2.44529-1.804,4.03417-1.89917,15.80955-.94716,31.22695-3.50019,45.93337-9.833,3.80334-1.63777,6.67117-4.68551,10.63071-5.887C303.0976,154.69505,304.4421,155.00873,303.90726,157.826Z" style="fill:#bf4c49"/><path d="M293.21409,538.14408a183.23874,183.23874,0,0,1-13.312,72.9615c-1.03024,2.56024-1.5839,6.39483-4.54185,6.62276-2.84184.21884-3.19075-3.70588-4.53748-5.87116-.787-1.26538-1.15065-2.86079-2.1174-3.937-6.55684-7.29972-4.98157-14.13552-.73262-22.332,10.60469-20.4565,16.00411-42.77491,20.93454-65.16167.476-2.16119.43323-5.91071,2.65251-5.715,2.78664.24581,1.52593,3.84471,1.59214,5.97563C293.33254,526.50118,293.21409,532.32449,293.21409,538.14408Z" style="fill:#bf4c49"/><path d="M121.992,539.23449c0-6.49478-.06787-12.99078.04286-19.48368.03176-1.8624-.87792-4.99317,1.24179-5.26608,2.971-.38245,2.22926,3.298,2.58852,4.942a368.00032,368.00032,0,0,0,19.2701,62.69085c2.15688,5.19932,6.50515,10.30947,6.40107,15.3901-.099,4.83383-4.635,9.61353-7.3533,14.3405-1.25189,2.17693-1.45331,5.99669-4.57962,5.76674-2.89274-.21267-3.32724-3.83208-4.32716-6.20918a187.06332,187.06332,0,0,1-13.046-49.72251c-.91456-7.376-.15323-14.95974-.15323-22.44913Z" style="fill:#bf4c49"/><path d="M232.29908.24255c-8.1626,13.49935-15.7961,26.61954-24.69306,39.22-3.88441-3.72477-5.82871-8.37235-8.51237-12.509-5.04812-7.78128-10.11013-15.55365-15.10855-23.36675-.56431-.88214-1.68215-1.9797-.53919-3.06776.84106-.80067,1.88336-.038,2.7535.36405,13.98277,6.4607,27.89334,5.83829,41.76512-.365A6.91942,6.91942,0,0,1,229.873.01486,15.22977,15.22977,0,0,1,232.29908.24255Z" style="fill:#bf4c49"/><path d="M148.85936,281.33422c-7.55065-4.1656-12.8394-10.20024-19.51375-13.91839-8.37447-4.66528-8.89806-12.10591-9.27384-19.94968-.16487-3.44115.49378-6.90726-.88958-10.27829a3.1469,3.1469,0,0,1,.37995-2.77938c.73365-.77064,1.81885.00647,2.70412.48638,7.57073,4.10444,15.12838,8.23415,22.7476,12.24681a3.59134,3.59134,0,0,1,2.25608,3.41247C147.718,260.47244,148.28084,270.38555,148.85936,281.33422Z" style="fill:#bf4c49"/><path d="M294.00721,233.64675c.78529,9.39768-1.50905,17.74657-.961,26.17289a1.72506,1.72506,0,0,1-.57715,1.28284c-8.53886,6.4315-16.555,13.59909-26.38416,19.32788-.6401-10.74893.631-20.72484,1.18028-30.72143a3.12177,3.12177,0,0,1,2.2397-2.95056C277.89088,243.57011,285.47806,238.82892,294.00721,233.64675Z" style="fill:#bf4c49"/><path d="M118.29014,215.92166c-.6581-4.74607-1.42059-9.77067-2.00607-14.81572-.13876-1.19581-.73488-2.91577.80118-3.55447,1.17887-.49011,1.96106.9265,2.8478,1.60383a72.95214,72.95214,0,0,0,23.72206,12.28264c2.62382.77393,3.7359,1.6958,3.01427,4.84652-1.27265,5.55669.01324,11.21993.29893,16.84265.236,4.64434-1.479,5.70352-5.64371,3.74048-5.96723-2.81258-11.52612-6.37657-17.582-9.098C119.36159,225.80084,117.64481,221.24,118.29014,215.92166Z" style="fill:#bf4c49"/><path d="M298.025,197.329c-.74,6.753-1.92315,13.25515-2.03538,19.77563-.11317,6.57509-3.15856,9.97651-8.978,12.34787-5.48348,2.23436-10.57039,5.44416-15.82423,8.239-3.03868,1.61646-4.72685,1.14668-3.98617-2.686,1.24182-6.42577.84515-12.89663.63656-19.35827-.06463-2.00234.11229-3.50432,2.434-4.11482,9.71416-2.55456,18.11546-7.62512,25.96283-13.73556C296.57447,197.53212,297.13448,197.55019,298.025,197.329Z" style="fill:#bf4c49"/><path d="M173.3308,2.39949c5.20258,4.67446,8.441,10.26343,11.65748,15.84044,6.54773,11.353,13.4534,22.543,17.84836,34.97966.6524,1.84626,2.63987,4.57609.43041,5.90558-2.23536,1.345-3.54-1.77947-4.97834-3.16013a172.16185,172.16185,0,0,1-19.91-22.32775c-3.629-4.95408-5.86868-10.111-5.15458-16.53193C173.76308,12.25939,173.3308,7.30542,173.3308,2.39949Z" style="fill:#bf4c49"/><path d="M241.20977,12.72377c2.10046,12.22728-4.29131,21.13248-11.77185,29.44979-4.6567,5.17759-9.76466,9.95259-14.73442,14.8429-1.1036,1.08594-2.29657,3.09092-4.08547,1.78743-1.50811-1.09893-.05935-2.822.42581-4.099,5.56-14.6342,13.31773-28.14438,21.39114-41.48949q3.08351-5.097,6.07031-10.25214c.41239-.70964.64823-1.73031,1.618-1.59626,1.37767.19046,1.06076,1.45572,1.07239,2.3799C241.23335,6.73879,241.20977,9.73143,241.20977,12.72377Z" style="fill:#bf4c49"/><path d="M126.728,47.95562c.57275-2.8146,2.44616-2.68458,3.99437-3.121,10.19129-2.87284,20.39446-5.70611,30.55374-8.68862a7.87143,7.87143,0,0,1,8.85232,2.4647c4.56623,4.98664,9.72844,9.43241,14.83143,16.26644C164.901,50.57889,145.94329,48.99148,126.728,47.95562Z" style="fill:#bf4c49"/><path d="M229.96479,53.95682c5.3697-7.361,11.24729-12.65566,17.15-17.90481,1.50115-1.335,3.31919-.82828,5.17451-.24584,10.1046,3.17211,20.25168,6.20912,30.38635,9.28539,1.36616.41467,3.46507.42127,3.12726,2.349-.282,1.60957-2.25181.83466-3.45958.90762-16.21856.98-32.45673,1.75069-48.316,5.76909C233.12906,54.34492,232.10083,54.05962,229.96479,53.95682Z" style="fill:#bf4c49"/><path d="M336.69707,210.32824c3.65529,2.45447,5.30086,6.59669,7.81313,9.96126a167.38355,167.38355,0,0,0,15.98406,18.4328c1.13139,1.12808,3.76825,2.144,1.947,4.2893a4.71165,4.71165,0,0,1-5.90984,1.20039,32.95862,32.95862,0,0,1-11.94611-9.59974c-4.70286-6.19759-7.15081-13.41779-8.7338-20.95906C335.61,212.50273,335.32428,211.34811,336.69707,210.32824Z" style="fill:#bf4c49"/><path d="M78.81145,213.97016c-2.62452,12.62244-7.22566,23.88185-19.75211,30.0712-2.42962,1.20044-4.06625.82648-5.69318-.94292-2.128-2.31442.47155-3.30116,1.53694-4.3167,8.01149-7.63664,14.37192-16.5676,20.57707-25.64074.59494-.86987,1.135-2.32669,2.61006-1.79723C79.3168,211.78408,78.76205,213.0314,78.81145,213.97016Z" style="fill:#bf4c49"/></g></g></svg>