<svg xmlns="http://www.w3.org/2000/svg" viewBox="0 0 410.08339 855.60845"><g id="Layer_2" data-name="Layer 2"><g id="Layer_1-2" data-name="Layer 1"><path d="M201.26261,216.85772c0,15.65666-.296,29.433.08281,43.19074.38288,13.9068-4.21734,25.78294-13.35535,35.95309-8.56162,9.52859-17.54462,18.67881-26.09416,28.21795-2.82844,3.15591-4.35318,2.68455-6.58552-.47057-11.84069-16.73524-21.49724-34.68539-30.35227-53.13273a400.05964,400.05964,0,0,1-30.26561-89.38334c-1.46518-6.80892-2.58232-13.70248-3.59646-20.5958-.91582-6.225,1.61207-8.47853,7.69975-6.98174,14.23974,3.50129,26.87645,10.5552,38.9541,18.5158,18.98557,12.51381,36.989,26.51706,57.11954,37.29579C198.40078,211.35778,201.803,213.77665,201.26261,216.85772Z" style="fill:#bf4c49"/><path d="M208.44449,242.57352c0-7.66185.14646-15.32766-.05761-22.98408-.11339-4.25683,1.21119-7.8334,4.8503-9.738,28.60063-14.96865,52.58792-37.40832,82.21-50.6902,5.90124-2.646,11.854-5.18977,17.86446-7.5755,4.25231-1.6879,5.65567-.62031,4.86977,3.835-2.64952,15.021-4.77543,30.129-8.67683,44.93009-10.04346,38.10408-24.22572,74.468-44.80176,108.17862-3.27711,5.369-7.21557,10.33327-10.824,15.50159-1.99183,2.853-3.936,3.0977-6.344.33912-10.06494-11.52982-20.39345-22.83494-30.26366-34.52769a36.92087,36.92087,0,0,1-8.91771-25.28356c.162-7.32511.03223-14.65663.03223-21.98533Z" style="fill:#bf4c49"/><path d="M150.25613,812.41487c-3.079,12.3588-5.87823,24.641-9.87948,36.60443-.3127.935-.76124,1.83237-.9943,2.7845a2.27108,2.27108,0,0,1-2.69919,1.66932c-1.03409-.10265-1.35863-1.31683-1.51846-2.33975-1.69134-10.82619-3.45848-21.64127-5.0592-32.48076-3.74744-25.37741-5.16685-50.96818-5.38734-76.555-.19186-22.26947.1403-44.6115,3.59207-66.7298a21.408,21.408,0,0,1,1.12362-4.34416c1.19337-3.1099,2.285-6.60951,6.327-6.878,4.2224-.28054,5.60758,3.36176,7.41511,6.22175,3.84863,6.08963,5.57884,12.97377,7.44057,19.819.31685,1.16481.38117,2.98431,2.08478,3.0421,1.55452.05267,1.278-1.67322,1.75981-2.64408,2.35257-4.74114,4.47909-9.6125,7.12281-14.18495,1.85818-3.214,4.10883-6.51316,8.612-6.29236,4.2135.20663,6.271,3.26545,8.1362,6.47537,4.65729,8.01514,5.28872,17.04324,5.9619,25.91073,2.43959,32.13339,1.04264,64.17134-2.75051,96.15742-2.11407,17.82736-4.67046,35.52462-10.22367,52.66239-.589,1.81761-.701,4.33128-3.2696,4.295-2.13549-.03-2.39992-2.17656-3.18094-3.87029C159.01144,839.03454,154.93,825.69737,150.25613,812.41487Z" style="fill:#bf4c49"/><path d="M258.64573,811.57942c-2.45778,7.41067-4.76768,14.62983-7.25206,21.78846-2.12561,6.12509-4.43093,12.1883-6.70337,18.26139-.55491,1.48281-.636,3.57406-2.84339,3.59371-2.37313.02112-2.8229-2.15349-3.37256-3.79754a176.04481,176.04481,0,0,1-6.24622-24.26466c-2.25059-12.332-2.709-24.86-4.39835-37.224a420.20026,420.20026,0,0,1-3.31854-72.44247c.34559-9.3936.93284-19.0385,3.40612-28.43527,1.20557-4.58051,2.05359-9.18561,4.24242-13.42224,3.44475-6.66755,9.57313-7.31363,14.269-1.46414a56.111,56.111,0,0,1,7.88874,14.37279c.65945,1.62861.88177,4.25591,2.8805,4.2088,2.46815-.05822,2.28849-2.95807,2.77566-4.71373,1.73253-6.244,3.17513-12.54988,6.63325-18.1812,1.98524-3.23281,4.35642-5.44409,8.44951-4.86538,3.97672.56235,5.30361,3.58676,6.3045,6.84733,2.06977,6.743,2.351,13.78456,2.73764,20.71122,1.96993,35.28528,1.5912,70.508-2.45338,105.6973-1.916,16.67079-3.89994,33.32035-6.33886,49.91877-.30134,2.05109-.02666,4.75724-2.9209,5.04394-3.02537.29964-3.13736-2.58055-3.72608-4.498a243.2364,243.2364,0,0,1-7.65373-31.46442C260.6859,815.32729,260.62206,813.2773,258.64573,811.57942Z" style="fill:#bf4c49"/><path d="M288.30357,428.62139c-.24044,9.61267-1.89694,19.07816-3.10184,28.59075-.27035,2.1344-1.67663,2.6007-3.08573,1.20033-13.16233-13.08154-31.02233-16.808-47.19991-23.89967-19.95376-8.747-29.22389-25.4955-27.46835-44.14056,1.54073-16.36389,10.19877-29.27358,22.37669-39.88013,4.6314-4.0339,9.6286-7.64745,14.454-11.459,4.8226-3.80944,5.54087-3.78808,9.72014.7837A129.89065,129.89065,0,0,1,274.898,371.21341a125.09465,125.09465,0,0,1,12.456,46.03139C287.623,421.02422,288.40341,424.7843,288.30357,428.62139Z" style="fill:#bf4c49"/><path d="M202.17306,393.8065c-.82013,20.24114-10.42457,33.66979-28.04523,41.32078-11.3936,4.94715-23.74263,7.46327-34.72028,13.57322-4.24706,2.36385-8.39935,4.73631-11.56734,8.48729-2.285,2.70542-3.63241,2.44856-4.18128-1.12691-2.45155-15.96979-4.26506-32.00054-1.17854-48.05466a144.19667,144.19667,0,0,1,28.9638-63.13481c7.9602-10.05115,7.99908-10.07923,18.063-2.766,12.54785,9.11837,23.156,19.83385,29.12051,34.55711C200.983,382.47636,201.67057,388.50417,202.17306,393.8065Z" style="fill:#bf4c49"/><path d="M201.28013,145.27071q0,22.985-.00861,45.97012c-.00964,5.77483-1.90121,7.1784-7.40779,5.40352-9.81382-3.16318-17.30058-9.79091-24.30512-16.9406-15.12511-15.43852-23.48675-34.83429-31.32356-54.49068-4.86153-12.19372-9.46731-24.50886-18.88439-34.18131-4.33244-4.44986-9.1028-8.26491-14.96815-10.52774-.85077-.32817-2.226-.0775-2.11005-1.53688.12364-1.55624,1.44083-1.57491,2.612-1.65556,29.66187-2.04166,58.43142,1.25916,86.27966,12.54051,8.16623,3.30814,10.70956,7.48954,10.22165,15.95731-.75563,13.11406-.19943,26.3037-.19943,39.46131Z" style="fill:#bf4c49"/><path d="M308.59078,78.57831c-.48126,2.15554-2.16363,2.13345-3.25905,2.46354-15.15636,4.56772-23.49425,16.06968-28.5584,29.81506-6.85654,18.61034-13.84124,37.08208-24.611,53.83474-8.59311,13.36683-19.31152,24.53809-34.30238,30.8343-7.70987,3.23814-9.67473,1.89331-9.63818-6.26621q.1915-42.73024.34925-85.46064c.00678-1.988-.3238-3.978-.30226-5.965.03308-3.05684,1.21424-5.42722,4.32109-6.53967C228.47093,85.60789,244.494,81.122,261.409,78.833c13.0097-1.76055,25.8188-1.24585,38.72195-1.6229A20.09331,20.09331,0,0,1,308.59078,78.57831Z" style="fill:#bf4c49"/><path d="M188.321,556.75182c-.31038,32.6058-2.388,65.12-5.178,97.59684a2.73593,2.73593,0,0,1-.045.49664c-.56419,2.01563.1245,5.27322-2.0257,5.72542-2.6093.54869-3.2665-2.69339-4.2514-4.65679-8.265-16.47606-16.35864-33.00693-20.70377-51.09549-5.34724-22.26092-4.82278-44.87336-3.56418-67.3942a642.66679,642.66679,0,0,1,8.58011-72.172c.58555-3.43211,1.0449-6.8895,1.75237-10.2958.43158-2.07789-.59165-4.88162,1.3333-6.12869a47.20544,47.20544,0,0,1,9.87082-4.64978c2.3118-.82086,1.9709,1.54989,2.29764,2.83944a325.64855,325.64855,0,0,1,7.65355,42.08482C186.67447,511.56246,188.69706,534.08489,188.321,556.75182Z" style="fill:#bf4c49"/><path d="M220.86528,574.23066c.08355-48.10708,3.47667-87.43419,12.10816-126.24636.829-3.72786,1.60945-3.93577,5.42481-3.02074,9.53645,2.28714,8.65755,10.115,9.66052,16.60934,4.18487,27.09829,7.525,54.3195,9.08309,81.70456,2.208,38.81125-3.689,76.02582-23.0055,110.39766-.40406.719-.69491,1.50362-1.12026,2.20835-1.07364,1.77917-1.58125,5.07568-3.66548,4.745-2.68565-.42621-2.84425-3.925-3.02495-6.19478C223.976,624.92728,220.15518,595.50443,220.86528,574.23066Z" style="fill:#bf4c49"/><path d="M118.0912,565.31271c.44189-23.53125,2.16893-44.17,6.48038-64.444A115.24987,115.24987,0,0,1,135.68233,469.581a39.14447,39.14447,0,0,1,15.83454-16.12284c.96342-.52574,2.06849-1.67993,3.17025-.98509,1.32562.83594.66861,2.46071.5039,3.66225-1.35192,9.86374-2.972,19.69258-4.2077,29.56993-1.66858,13.33753-3.39245,26.682-4.50081,40.07236a483.96845,483.96845,0,0,0-2.01368,50.8327c.19864,8.81379.53471,17.62537.91008,26.43366a10.68374,10.68374,0,0,1-1.06649,5.78536,264.11846,264.11846,0,0,0-12.4086,27.15078c-.70967,1.76109-.8817,4.86031-3.75647,4.5168-2.79677-.33431-2.33462-3.40381-2.82655-5.28519-3.06907-11.73682-3.81-23.84376-5.00043-35.845C119.10656,587.13016,118.68554,574.815,118.0912,565.31271Z" style="fill:#bf4c49"/><path d="M254.1783,452.2612c10.52575,4.40348,17.259,11.86864,21.65822,21.55406,7.15514,15.75247,10.15391,32.60812,12.32633,49.58081a244.9279,244.9279,0,0,1,2.11431,41.32822c-.985,23.58551-2.19035,47.1552-5.864,70.52015-.29,1.84422-.25118,3.78119-2.697,4.11995-2.17607.30147-2.837-1.39036-3.51077-2.88972-4.41751-9.83054-9.60377-19.26331-14.82634-28.67515a10.85594,10.85594,0,0,1-1.10634-7.23272c3.15866-19.01426,1.87345-38.115,1.24079-57.20354-.66714-20.12848-2.97174-40.11081-5.44373-60.07654C256.8081,473.09661,255.515,462.91047,254.1783,452.2612Z" style="fill:#bf4c49"/><path d="M84.5641,173.048c-.18442,36.36834-10.55144,65.967-26.15158,94.05473-.56162,1.01132-.98679,2.34335-2.38185,2.12969-1.50131-.22994-1.91824-1.779-2.40206-2.94836a117.91861,117.91861,0,0,1-8.13089-28.6242c-2.89527-20.55234-1.91074-40.74576,6.78008-59.98a92.40362,92.40362,0,0,1,19.8677-28.97443c3.60354-3.47316,4.92013-3.28929,7.47908,1.08129C84.55934,158.215,84.7351,167.49813,84.5641,173.048Z" style="fill:#bf4c49"/><path d="M325.04529,180.643c-.90563-10.08405,1.65161-20.49068,3.20046-30.98683.65469-4.4361,3.83343-2.60125,5.53252-1.171a84.10631,84.10631,0,0,1,10.278,10.17074c20.26658,24.15081,25.59686,51.8703,18.9467,82.20607-1.875,8.553-4.50874,16.941-6.85752,25.38712-.33882,1.21857-.5507,2.77322-2.106,3.10923-2.0002.43206-1.81932-1.54561-2.4131-2.54474C335.94458,240.43217,324.03335,212.86529,325.04529,180.643Z" style="fill:#bf4c49"/><path d="M200.93228,44.82744q0,17.73326-.00824,35.46656c-.0033,2.22786.22854,4.52446-3.41595,2.963-17.03548-7.29856-35.03-10.94046-53.24059-13.735-1.35912-.20856-3.54709.574-3.87328-1.27875-.3465-1.9677,1.82036-2.41643,3.2964-3.06309,5.26315-2.3057,10.60661-4.44293,15.78365-6.92725,13.70229-6.57522,20.09912-18.11486,21.6653-32.73621.51329-4.79246.6019-9.62891,1.02133-14.4333.45569-5.21927,3.85833-10.0409,7.40292-10.75332,7.20238-1.4476,11.35533,1.89063,11.43418,9.5313.12028,11.65413.03155,23.3104.03155,34.96578Z" style="fill:#bf4c49"/><path d="M208.29247,44.35452q0-16.73483.00445-33.46972c.01209-7.75238,1.638-10.28522,6.76586-10.66959a11.16456,11.16456,0,0,1,12.20831,9.91531c.88286,7.24809.93077,14.59846,1.82706,21.84427,1.33556,10.79643,7.58245,18.48931,16.45549,24.295a84.79015,84.79015,0,0,0,18.82367,9.04367c1.38426.47976,3.83563.37217,3.57169,2.67445-.23349,2.03663-2.38558,1.33043-3.73457,1.554-17.836,2.9559-35.61035,6.14553-52.29065,13.54085-3.15555,1.399-3.41009-.02911-3.38232-2.75656.12205-11.9895.0526-23.981.0526-35.9717Z" style="fill:#bf4c49"/><path d="M46.06557,143.89057c.84564-18.32559,4.43953-35.61483,18.65694-48.82778,12.27818-11.4107,30.30034-12.94557,43.62316-3.86843,2.49055,1.69684,2.69614,2.323.30873,4.83258-7.548,7.93446-14.40293,16.5226-21.71949,24.68431-10.89019,12.148-22.32047,23.74372-35.886,32.9895-1.1537.78633-2.286,2.297-3.959,1.31814-1.36937-.80121-.94981-2.37447-.997-3.64073C46,148.88541,46.06557,146.38678,46.06557,143.89057Z" style="fill:#bf4c49"/><path d="M364.40564,154.68819c-5.26718-.335-8.91276-2.86512-12.61718-5.32225-16.09348-10.67472-27.60071-25.66113-38.69687-41.04235-3.30934-4.58732-6.58754-9.3553-11.37542-12.41815-3.83892-2.45573-1.97542-3.80828.388-5.0452,11.50968-6.02378,23.24845-7.59026,35.10451-.98127,15.2075,8.47741,21.55728,22.73632,25.06263,38.80857C364.126,137.191,362.84019,145.88,364.40564,154.68819Z" style="fill:#bf4c49"/><path d="M.06128,370.40548c-.46276-34.29171,3.62112-65.09791,12.0984-95.33094.44506-1.58711.4937-3.697,2.39192-3.961,1.98617-.27627,2.45192,1.80161,3.20663,3.26759,13.1835,25.60584,12.67558,51.75365,3.23079,78.303C16.24789,366.0114,10.42263,378.87019,4.4412,391.66576c-.67727,1.44882-1.26928,3.74933-3.11222,3.27583C-.5386,394.4618.11371,392.07683.09735,390.50473.01765,382.84209.06128,375.17816.06128,370.40548Z" style="fill:#bf4c49"/><path d="M380.01884,310.26511c.6337-2.7731,1.19661-6.22249,2.22075-9.52908,2.841-9.17444,5.89526-18.28268,8.80975-27.43479.46331-1.45475.6697-3.08757,2.59557-3.14157,1.96-.055,2.26517,1.61695,2.70651,3.04045a271.14787,271.14787,0,0,1,10.96789,54.4684c1.862,19.36828,2.0279,38.8148,2.057,58.25912.00281,1.96712.61466,3.92777.7029,5.90216a3.28256,3.28256,0,0,1-2.31766,3.467c-1.48806.4267-1.91122-1.146-2.361-2.09332-2.41664-5.09106-4.93617-10.15026-7.0168-15.38089-7.04731-17.71807-13.77058-35.55489-16.75476-54.52235C380.98513,319.20766,380.60494,315.07355,380.01884,310.26511Z" style="fill:#bf4c49"/><path d="M328.34351,140.12814c-15.01612,1.17137-27.71239,6.98361-40.325,12.98029a208.92467,208.92467,0,0,0-23.58378,12.94984c-1.03794.669-2.14971,2.07868-3.49583.78465-1.37694-1.32378.10265-2.48792.72456-3.47884a181.95568,181.95568,0,0,0,21.5211-48.04752,33.147,33.147,0,0,1,2.17357-5.55538c3.77948-7.766,10.71084-9.1169,16.94248-3.05476,8.02471,7.80645,13.66719,17.54625,20.66349,26.19624C324.714,135.06629,326.29547,137.36615,328.34351,140.12814Z" style="fill:#bf4c49"/><path d="M85.42384,142.20252a19.884,19.884,0,0,1-2.53655.13584c-1.09939-.10353-2.51044.59083-3.2225-.57926-.79614-1.308.57621-2.10788,1.27808-2.91489,10.47393-12.04433,21.061-23.99154,31.43462-36.12128,2.78018-3.25072,4.54933-2.1675,6.3908.6056A101.212,101.212,0,0,1,129.292,124.69609c4.90828,13.40024,9.81235,26.79841,17.66558,38.87024.60977.93739,2.23173,2.1566.84,3.41967-1.26294,1.1461-2.40426-.21885-3.49254-.915-13.74543-8.79255-27.935-16.66436-43.79873-21.0484C95.38308,143.60676,90.23528,142.31618,85.42384,142.20252Z" style="fill:#bf4c49"/><path d="M55.57626,293.57777C51.028,319.74847,46.813,345.9949,33.55787,369.6753c-4.87081,8.7018-9.81864,17.33494-15.51526,25.52388-.99656,1.43247-1.70861,3.93308-3.9213,2.94086-2.08783-.93627-.44171-2.92268.03491-4.31084,7.74893-22.57125,12.173-46.13777,20.33083-68.56383,4.21069-11.57522,10.63767-22.11343,17.64361-32.24977.66073-.9561,1.34929-2.1942,2.6353-1.93569C56.01571,291.33121,55.80194,292.56913,55.57626,293.57777Z" style="fill:#bf4c49"/><path d="M351.85547,294.43049c.34907-1.81461-.60062-3.58242,1.2558-3.96683,1.28313-.26565,1.774,1.20094,2.43079,2.13824,5.89539,8.41388,11.23457,17.22608,16.58865,25.94734,3.30946,5.3907,3.54392,12.62616,5.39045,18.96594,5.4721,18.789,11.95053,37.23421,19.19886,55.41181.618,1.54958,2.45472,3.439.15623,4.80808-2.31741,1.38047-3.62374-.6738-4.71818-2.33548-12.4014-18.82942-23.78279-38.08944-30.3768-59.96346C357.64637,321.7198,354.50132,307.86275,351.85547,294.43049Z" style="fill:#bf4c49"/><path d="M118.651,273.29721c2.81057,6.09451,5.05817,11.20443,7.5008,16.21938a392.29422,392.29422,0,0,0,22.5381,39.80239c1.52108,2.37392,1.534,3.95328-.2048,6.11563a161.592,161.592,0,0,0-18.83277,29.24013c-.55619,1.11654-.99528,2.9065-2.61839,2.42775-1.63154-.48125-.89294-2.266-.91656-3.49259a568.37759,568.37759,0,0,0-7.56884-79.22183C118.04824,281.27219,116.74453,277.99062,118.651,273.29721Z" style="fill:#bf4c49"/><path d="M292.19681,277.96078c-2.749,14.381-4.64776,28.50593-6.09189,42.71529-1.42887,14.06076-2.79366,28.10694-2.71335,42.25955.00781,1.378.87255,3.51291-.838,3.98361-2.289.62985-2.13244-1.9418-2.82326-3.27083-5.07513-9.7642-10.75075-19.16433-18.15385-27.33672-2.65818-2.93445-2.59929-4.96736-.48412-8.1583,10.46314-15.78512,20.491-31.83364,27.48757-49.56214.47478-1.20325.75966-3.32172,2.65733-3.141C292.851,275.60388,292.10453,277.27558,292.19681,277.96078Z" style="fill:#bf4c49"/><path d="M20.10371,237.01977c.38978-25.93987,6.85044-47.06848,22.02987-65.13385a39.56619,39.56619,0,0,1,2.71579-2.91974c1.08084-1.05014,2.38814-2.34259,3.89873-1.442,2.0423,1.21775.62753,3.00045-.01672,4.36039A135.46452,135.46452,0,0,0,36.92365,209.702a126.51244,126.51244,0,0,0-1.41239,27.27582c.527,8.121-5.00434,13.53215-8.85613,19.54758-1.5707,2.45307-2.97772-.42139-3.5175-2.0619C20.99378,247.9475,19.86766,241.26231,20.10371,237.01977Z" style="fill:#bf4c49"/><path d="M356.68533,162.307c6.82286,4.40292,11.35223,9.83661,15.45039,15.59371,9.698,13.62391,13.99734,29.08708,15.3,45.5939.74745,9.4711,1.11764,18.90418-.01562,28.36087-.25509,2.12835.02368,4.65063-2.5332,5.42322-3.01641.91149-3.19912-2.19188-4.411-3.74719a14.84574,14.84574,0,0,1-1.06515-2.24077c-3.88982-7.33749-6.48844-14.45169-5.77052-23.47888,1.67187-21.02487-4.42844-40.64522-14.83158-58.916C357.84971,167.21176,356.58232,165.65431,356.68533,162.307Z" style="fill:#bf4c49"/></g></g></svg>