<svg xmlns="http://www.w3.org/2000/svg" viewBox="0 0 563.72511 1133.0802"><g id="Layer_2" data-name="Layer 2"><g id="Layer_1-2" data-name="Layer 1"><g id="body"><path d="M563.52225,632.44019c-.67994,3.41-3.07984,5.41-6.26978,6.5-2.94019,1-5.6001-.02-8.1001-1.40991-3.33008-1.87012-6.54-3.96009-9.8601-5.87012-4.03-2.32-5.66993-1.30994-5.80982,3.39-.15015,4.59,1.61987,8.80994,2.68994,13.12,3.43994,13.8501,7.31006,27.59009,10.95,41.39a31.24236,31.24236,0,0,1,.5,4.95008c.41993,4.59-1.77,7.35986-6.13989,8.26-4.69018.96-6.66016-2.26-7.7102-5.95008-2.91993-10.21008-5.65992-20.48-8.34986-30.76-.48-1.85-.57007-4.03991-3.14013-3.4-2.42994.61011-1.93995,2.87012-1.51,4.61011,2.76,11.11987,5.7102,22.18994,8.37011,33.33.98,4.1,1.53,8.44995-3.22,10.96-4.54,2.39-8.68994.6-10.3-4.99-2.99-10.36-5.43994-20.88-8.38012-31.25-.73-2.58-.00977-7.62-3.68994-6.96008-4.3899.78-1.26,5.01-.78,7.51,1.95,10.08008,4.28,20.09009,6.48022,30.12012.81982,3.71-.06006,6.71-3.81006,8.1499a7.66157,7.66157,0,0,1-9.67016-4.01,64.25661,64.25661,0,0,1-2.80982-11.08c-1.72021-8.44995-3.94018-16.79992-5.97021-25.19006-.2-.79993-.48975-1.58984-.75-2.37988a2.60382,2.60382,0,0,0-3.02979-1.99c-1.89014.24-1.66015,1.71-1.74023,3.04-.23,4.09985,1.89013,7.67993,2.6101,11.58984,1.07007,5.88013,2.81006,11.62012,4.05,17.47009.74,3.53992,1.87989,7.45-2.87011,9.37-4.10987,1.65991-8.42994-.13-10.52979-4.96-3.39014-7.78-5.02-16.15-7.32007-24.29q-8.76013-30.975-17.37011-61.98L390.85232,423.61011l-.13989-.8999c-1.01,2.42993-1.93017,4.72-2.75,7.04-2.32007,6.51-4.3,13.13989-6.53,19.67993-3.3,9.67993-3.76,19.86-4.7102,29.84009-1.96973,20.65991-2.89991,41.38989-3.52979,62.15991-.43017,14.14-.61011,28.28-.63013,42.41-.09008,61.43006-.34985,122.86.3501,184.2699.12989,12.2301.30982,24.56006.11988,36.74011-.24,15.49.1101,31,.16015,46.46.1499,55.08.06006,110.15.16992,165.23.03,18.5.07007,36.99011-.07006,55.49011-.03,3.58984,1.33007,5.5,4.37011,7.46,16.32984,10.54993,32.57007,21.25,48.57984,32.28,9.57006,6.59985,9.37011,16.31994.1101,20.43994a12.81007,12.81007,0,0,1-5.3601.87q-51.73462-.03-103.48-.04992c-14.6399-.02-25.1399-10.49011-25.1399-25.11011q-.03-222.43506-.06006-444.88989c-.01-11.39014,3.11011-13.01-12.77-12.82007-7.64991.09-8,.42993-8,8.43994q-.045,223.43994-.05,446.89c0,5.26-.61988,10.28-3.1399,14.95007-3.99,7.36987-10.42993,11.55993-18.53,11.62988-36.31982.29-72.6499.15015-108.97.15015-4.76,0-7.77-2.76-9.65991-6.7201-1.92016-4.01989-.3-7.53991,2.63989-10.35,6.78-6.49,15.09009-10.87,22.78-16.07007,10.74-7.27,21.60987-14.33,32.51-21.34,1.89991-1.22,2.1399-2.66,2.1399-4.58-.00977-43.93994.69018-87.9-.10987-131.83008-1.21-66.46-.96-132.92993-.3601-199.37988.60009-66.80005.8601-133.59009.25-200.38013-.26-27.51-1.76-55.13989-5.95-82.40991-1.48-9.59009-5.56-18.76-8.2-28.18994-.90991-3.27-1.73-6.57007-2.63012-9.88013h-.29L107.27225,642.19019l-.06983.23q-1.38024,5.04017-2.76,10.09009c-4.46,16.30993-8.70019,32.67993-13.12012,49-1.11987,4.11987-1.86987,8.5-7.33007,9.59985-6.09986,1.22009-10.29981-2.56994-9.12989-8.69995q3-15.62988,6.06006-31.25c.28-1.42993,1.09986-3.21-1.09009-3.65991-2.28-.48-2.04,1.51-2.32983,2.92993-2.58008,12.51-5.14014,25.02-7.82007,37.5-1.19018,5.51-3.4602,7.05005-8.79,6.42-5.01-.59-5.88012-3.86-5.63989-8.22009.51978-9.47,2.25-18.77,3.75977-28.09985a26.10874,26.10874,0,0,0-.17994-10.64014c-3.49,7.09009-3.79,13.54-5.22,19.66-1.55,6.62-2.64013,13.34-4.21,19.95008-1.08008,4.52-4.51,6.73-8.41015,5.97-4.64991-.9-7.27-4.29-6.46-9.07007,2.20019-12.90991,4.70019-25.77,7.90014-38.49.32007-1.26,1.97-2.96-.2102-3.85-2.36988-.96-2.6399,1.25-3.1399,2.77-3.48,10.59-5.69995,21.5-8.36987,32.28992-1.47021,5.95007-3.8501,7.76-8.46,6.49-4.92017-1.35986-7.25-5.72-6.03027-10.77991,4.38012-18.04992,8.74023-36.11,12.91015-54.21008.51-2.21,1.54-5.08-1.08007-6.88989-2.68995-1.87012-5.11988-.24-7.40992,1.1-2.28,1.35-4.34008,3.09-6.67016,4.33-4.21,2.24-9.86988,1.27-12.21973-1.87-2.76025-3.7-2.2102-8.88,1.29981-12.75989,2.53-2.78,5.91015-4.31006,9.09008-6.05,11.2-6.13,22.39991-12.26,33.77-18.06006,5.43994-2.77,7.95-7.29,9.32007-12.75,5.30982-21.25,11.34985-42.31006,16.50977-63.61,6.49023-26.77,14.1101-53.25,21-79.92,6.91015-26.76,14.31006-53.38989,20.9602-80.22,4.07984-16.42993,9.01978-32.62,20.47-46.02,8.67993-10.13989,19.97-15.90991,31.79981-20.80994,14.54-6.03,29.34008-11.42,44.02-17.09,8.2102-3.16,16.39013-6.42005,24.64013-9.45008,4.95-1.81994,7.58008-4.6,6.98-10.37-.56-5.28-.19995-10.65991-.06-15.98.08007-2.64-.73-4.08008-3.29-5.32007-18.8899-9.15991-31.77-24.19995-40.89991-42.71991-1.83007-3.71-3.79-7.41-4.69995-11.52-.8601-3.87-3.42016-5.94-6.98-7.67-19.39013-9.4-25.40014-37.07-11.84009-53.81a20.97653,20.97653,0,0,1,9.51-6.21c3.6001-1.28,4.31006-3.34,3.65015-6.91-5.53027-29.65,8.26978-73.38,39.29981-91.98,25.88012-15.51,53.15014-19.32,82.23-11.9,7.27,1.86,13.53,6.05,20.29,8.73,12.76,5.07,21.38013,14.35,29.61011,24.3,10.12988,12.23,14.62988,26.93,17.17993,42.35,1.67994,10.13.72,20.2-.09008,30.29-.17994,2.27.2,3.81,2.73022,5.12,18.87988,9.74,22.79981,28.59,14.34985,46.27-3.33007,6.96-8.96,11.47-16.05,14.11a8.738,8.738,0,0,0-6.04981,6.88c-5.02,20.62-16.90015,36.53-34.3,48.3999a53.49771,53.49771,0,0,1-10.12012,5.3501c-2.72,1.09-3.8601,2.49-3.68994,5.46.3,5.15-.38012,10.28-.67993,15.42-.42016,7.25,1.04981,8.86,7.54981,11.75,18.70019,8.29993,38.12011,14.73,57.1101,22.28992,10.6399,4.24,21.49,8.14014,31.11011,14.57007,12.22,8.16992,20.04981,19.74,24.87988,33.36,7.74,21.79,12.73,44.36,18.57007,66.68006,7.30982,27.92993,14.93994,55.78,21.85987,83.79993,5.9602,24.16,12.7102,48.11,18.90014,72.20007,1.8999,7.37988,4.57984,14.58,6.16992,22.03,2.39014,11.22,11.65992,15.03991,20.08008,19.90991a363.11,363.11,0,0,1,31.22,19.61C562.53226,624.97022,564.36233,628.21021,563.52225,632.44019Z" style="fill:#f7c59f"/></g><path d="M289.77062,698.54341l-.18079.31374.21051-.284Z" style="fill:#f7c59f;stroke:#442a0c;stroke-linecap:round;stroke-linejoin:round;stroke-width:2px"/><g id="pectoralmayor"><path d="M285.75839,361.38726c0-8.16252-.19779-16.33107.05309-24.48586a29.26834,29.26834,0,0,1,10.8877-22.30859,15.59364,15.59364,0,0,1,8.41006-3.566c16.8636-1.92983,33.82353-2.17915,50.45474,1.28085,13.17136,2.74021,20.86339,12.48891,25.37893,24.56656,4.78715,12.80411,7.44072,25.90518,1.77611,39.2635-3.64379,8.59277-10.63614,14.02863-18.46047,18.20615-18.89483,10.08823-39.32606,13.9158-60.59371,13.35136-10.15642-.26955-17.58258-8.9455-17.90325-20.32175-.122-4.32774-.02309-8.66168-.02386-12.9928s-.00018-8.66226-.00018-12.99338Z" style="fill:#ca7475;stroke:#442a0c;stroke-linecap:round;stroke-linejoin:round;stroke-width:2px"/><path d="M278.76054,365.50281c-.48537,7.42253.90032,16.93989-.705,26.37791-1.71032,10.05536-7.77914,15.57836-18.02017,15.82283a139.49668,139.49668,0,0,1-44.66048-6.583,76.27554,76.27554,0,0,1-16.73454-7.33667c-13.67916-8.14189-20.94831-19.81271-19.802-35.86436,1.23648-17.31432,5.84117-33.09108,22.117-42.80308,4.75628-2.83815,9.93344-3.75992,15.24785-4.06414,13.94752-.79843,27.99427-2.00413,41.8104.51439,12.05422,2.19738,18.74459,10.70606,20.05363,22.93945a134.45725,134.45725,0,0,1,.69424,14.45646C278.75731,353.7943,278.76054,358.62594,278.76054,365.50281Z" style="fill:#ca7475;stroke:#442a0c;stroke-linecap:round;stroke-linejoin:round;stroke-width:2px"/></g><g id="gemelosfrontal"><path d="M314.13688,871.5206c7.60915,16.56419,14.92572,31.83357,21.62118,47.37056,2.93118,6.80187.86166,14.19008-.15934,21.17863q-4.64508,31.79421-6.90585,63.82324c-1.45542,20.64849-.83747,41.24914.22592,61.84893.3808,7.37735,1.98311,14.6911,3.00969,22.03635.21667,1.55043,1.22388,3.3728-1.12972,4.2163-2.15456.77223-3.04533-.88353-3.85347-2.28567-4.83438-8.38624-8.12089-17.4534-11.46452-26.48786-6.47677-17.50038-11.81029-35.43894-14.42825-53.84007-4.48061-31.493-5.54973-63.134-.62134-94.82882C302.7175,899.8487,308.2008,886.406,314.13688,871.5206Z" style="fill:#7b4f9a;stroke:#442a0c;stroke-linecap:round;stroke-linejoin:round;stroke-width:2px"/><path d="M249.55914,872.35392c6.10247,14.05087,10.9057,27.6576,13.25637,41.95362,4.04567,24.60452,3.7449,49.31046,1.25332,74.08482-2.525,25.10585-7.2259,49.7197-15.10482,73.69644a164.96312,164.96312,0,0,1-11.08435,26.49261c-1.01469,1.89524-2.137,4.30443-4.7793,3.333-2.568-.9442-1.36239-3.46264-1.05634-5.26865,3.8821-22.90792,4.53151-45.98782,3.67445-69.136a654.85662,654.85662,0,0,0-6.3863-69.35137c-1.09253-7.56665-1.03724-15.209-2.5055-22.69458-.65453-3.3368.66272-6.28535,1.98012-9.11611C235.50906,901.94685,242.34623,887.60866,249.55914,872.35392Z" style="fill:#7b4f9a;stroke:#442a0c;stroke-linecap:round;stroke-linejoin:round;stroke-width:2px"/></g><g id="tibialanterior"><path d="M361.8304,989.42614c1.63612,14.66523.60877,29.31569-.19876,43.91635-.998,18.04438-1.83451,36.15137-4.65173,54.061-.29741,1.89072.37663,4.40622-2.1974,4.99964-2.67728.6171-3.73185-1.82663-4.79642-3.6047-6.90558-11.53482-10.78151-24.11637-13.36823-37.26765-5.00278-25.43478-2.09052-50.56883,1.66062-75.80064,3-20.1798,7.055-40.12991,11.51486-60.01246,1.84726-8.2355,3.92747-16.42028,6.02344-24.59695.40555-1.58211.33464-4.06417,3.10914-3.58847,2.35808.40424,1.79783,2.48023,1.838,4.03274.38336,14.80614.87908,29.61191,1.025,44.421C361.96439,953.79777,361.8304,971.61257,361.8304,989.42614Z" style="fill:#a3537a;stroke:#442a0c;stroke-linecap:round;stroke-linejoin:round;stroke-width:2px"/><path d="M230.05252,1019.66247c-.03237,22.04221-3.45979,40.7176-10.31923,58.76539a51.42127,51.42127,0,0,1-6.72623,12.19293c-.93153,1.26776-2.09131,2.3107-3.76117,1.88-1.62989-.42072-1.60258-1.95431-1.6333-3.28273-.30758-13.28005-2.8073-26.34371-3.92653-39.55773-2.627-31.01734-2.14911-62.04042-1.71666-93.07388.2827-20.28715,1.212-40.56533,1.85934-60.8473a36.16085,36.16085,0,0,1,.27117-4.48507c.24328-1.53774-.01769-3.70411,2.36145-3.71332,1.92611-.00745,2.08215,1.75694,2.41923,3.2361,1.95589,8.58261,4.23757,17.10237,5.8706,25.7451,4.68395,24.78943,9.77058,49.52064,12.919,74.56753C228.97422,1001.46272,230.49957,1011.867,230.05252,1019.66247Z" style="fill:#a3537a;stroke:#442a0c;stroke-linecap:round;stroke-linejoin:round;stroke-width:2px"/></g><g id="Braquiorradialfrontal"><path d="M451.56632,511.38164c-.49056-16.64248,4.51631-31.5631,10.31905-46.285.48021-1.21827.728-3.32282,2.62736-3.1002,1.4232.16672,1.61885,1.99049,2.10309,3.17263,10.26083,25.0491,16.20375,51.17,19.34484,77.99227a499.29867,499.29867,0,0,1,2.98906,62.693c-.009.99943-.03576,1.99929-.016,2.99817.02783,1.40616-.21,2.97423-1.5475,3.41814-2.07288.68789-2.38851-1.70221-2.91059-2.69529-9.492-18.05585-18.443-36.39724-24.71588-55.84577C455.27836,539.83539,450.76428,525.83694,451.56632,511.38164Z" style="fill:#bec043;stroke:#442a0c;stroke-linecap:round;stroke-linejoin:round;stroke-width:2px"/><path d="M76.89481,611.762c-2.80977-4.02846-2.059-7.96393-2.0507-11.66139.03172-14.08218.2842-28.12177,1.43825-42.21634a325.60214,325.60214,0,0,1,20.08986-89.48376c.84763-2.23436,1.05437-5.99028,3.66542-5.86609,2.21437.10539,2.49877,3.86272,3.32326,6.11062,6.55657,17.87576,11.31789,36.03846,8.49664,55.36714-2.19316,15.02546-7.09305,29.23348-12.95334,43.15041C92.8235,581.603,85.33968,595.368,78.45183,609.41976A24.10788,24.10788,0,0,1,76.89481,611.762Z" style="fill:#bec043;stroke:#442a0c;stroke-linecap:round;stroke-linejoin:round;stroke-width:2px"/></g><g id="hombrofrontal"><path d="M197.43952,299.60079c2.12945,0,6.121-.01519,10.11228.00845,1.34536.008,2.87547.04751,3.10761,1.76128.24817,1.83226-1.53136,1.47876-2.47086,1.69885-13.37731,3.13389-22.82512,11.35007-28.85113,23.3017-10.76652,21.35374-30.021,30.19825-51.50309,36.04375-2.41416.65691-3.5634-.10332-3.047-2.67683,2.41694-12.04552,5.07968-24.013,11.70305-34.63712,9.18646-14.7355,22.95408-22.06683,39.72068-24.51127A100.91214,100.91214,0,0,1,197.43952,299.60079Z" style="fill:#cc5116;stroke:#442a0c;stroke-linecap:round;stroke-linejoin:round;stroke-width:2px"/><path d="M351.80766,300.75327a11.90677,11.90677,0,0,1,3.08448-1.09209c14.3-.41,28.5974-.86209,42.56372,3.2812,19.79182,5.87155,31.43056,19.60018,37.32308,38.75187,1.79957,5.84889,2.78878,11.94319,4.45436,17.83884.84775,3.00076-.18439,3.81717-2.78334,3.12162-21.50794-5.75576-40.61032-15.0489-51.3111-36.09928-5.46548-10.75155-14.30336-17.68169-24.90069-22.61146C357.72663,302.77559,354.19782,304.25279,351.80766,300.75327Z" style="fill:#cc5116;stroke:#442a0c;stroke-linecap:round;stroke-linejoin:round;stroke-width:2px"/></g><g id="abductores"><path d="M300.23864,759.22362c-1.53978-.6614-1.56313-1.88632-1.64536-3.04045-1.4087-19.77172-2.50925-39.60411.73616-59.24792,4.7891-28.98706,21.2094-50.76588,44.03963-68.26511A39.3731,39.3731,0,0,1,347.77,625.423c1.16542-.65762,2.30408-2.70877,3.74494-1.36943,1.19624,1.1119.0191,2.77151-.56272,4.1407-6.81356,16.03447-13.84924,31.97985-20.35794,48.13735-10.42655,25.88333-20.48218,51.91452-28.03845,78.82772C302.1257,756.69115,301.69738,758.34149,300.23864,759.22362Z" style="fill:#243084;stroke:#442a0c;stroke-linecap:round;stroke-linejoin:round;stroke-width:2px"/><path d="M265.85156,727.27776a251.06454,251.06454,0,0,1-.96494,27.40288c-.11666,1.29828.71269,3.477-1.3857,3.621-1.72188.11814-2.12237-1.96554-2.5097-3.31953-1.18489-4.14185-1.98055-8.39886-3.2433-12.51411a886.75517,886.75517,0,0,0-42.58663-110.96123c-.694-1.50656-1.51092-2.96808-2.063-4.52425-.35743-1.00754-1.38667-2.32748-.26712-3.17428,1.12911-.85407,2.44783-.30581,3.54822.7065,8.42617,7.75235,17.69878,14.59328,25.06084,23.48969,15.683,18.95171,24.22748,40.56045,24.413,65.29648C265.88815,717.96,265.85825,722.61957,265.85156,727.27776Z" style="fill:#243084;stroke:#442a0c;stroke-linecap:round;stroke-linejoin:round;stroke-width:2px"/></g><g id="abdominales"><path d="M284.78441,600.424c0-4.98774-.03039-9.97566.00906-14.9631.03537-4.47029-1.34578-9.55092,4.77989-11.53757a1.7988,1.7988,0,0,0,.98346-1.08968c1.94055-7.161,7.61767-6.55593,13.13435-6.44505,4.16138.08367,8.33173-.15519,12.48854.0022,6.50357.24612,10.78547,4.6729,10.79667,11.19594a112.03514,112.03514,0,0,1-5.31157,33.87686c-3.97574,12.65148-13.83374,19.3175-27.18333,19.0817-5.85421-.10332-9.48125-3.74464-9.51814-9.666-.04247-6.81828-.00989-13.637-.00989-20.45552Z" style="fill:#36b723;stroke:#442a0c;stroke-linecap:round;stroke-linejoin:round;stroke-width:2px"/><path d="M278.98856,601.44277c0,6.824.07864,13.64933-.025,20.47176-.08232,5.4206-2.80327,8.2712-8.21675,8.64541-12.87365.88983-24.20308-5.715-28.17174-18.83241a121.28806,121.28806,0,0,1-4.94133-34.8667c-.02181-6.07974,3.66911-10.13079,9.79118-10.41541,6.96428-.32369,13.95881.03454,20.94.01794a3.26236,3.26236,0,0,1,3.37042,2.33492,13.55149,13.55149,0,0,0,5.516,6.85454c1.88779,1.12294,1.84376,2.93085,1.83057,4.81766-.04876,6.9905-.01943,13.98143-.01943,20.97223Z" style="fill:#36b723;stroke:#442a0c;stroke-linecap:round;stroke-linejoin:round;stroke-width:2px"/><path d="M251.02389,467.61981c-4.15512,0-8.31413.11442-12.46449-.02624-6.51239-.2208-10.02161-4.01675-9.94847-10.52008.17557-15.61425,10.29168-27.34274,26.17212-30.53243a56.17782,56.17782,0,0,1,14.8476-1.02842c6.2212.41239,9.32975,3.73265,9.38882,9.83576.0563,5.81566-.131,11.64135.16722,17.44324.12309,2.39528-1.105,3.14377-2.72763,4.12623-3.14569,1.90451-6.18736,4.00278-7.16677,7.87856-.60111,2.37874-2.53726,2.42469-4.3131,2.464-4.64968.103-9.30321.03479-13.95518.03479Z" style="fill:#36b723;stroke:#442a0c;stroke-linecap:round;stroke-linejoin:round;stroke-width:2px"/><path d="M314.02084,467.6657c-4.53263-.24264-10.34813-.53069-16.15929-.88848-.94783-.0584-2.53842-.193-2.71177-.68606-1.70644-4.85446-5.41-7.86025-9.34724-10.71506a1.86358,1.86358,0,0,1-.79013-1.2309c.14014-7.60753-1.40434-15.30826.78037-22.79692,1.085-3.71909,4.07722-5.592,7.90467-5.84055,10.40061-.67556,20.08945,1.424,28.95641,7.18124,8.96052,5.818,12.20248,14.61122,12.9066,24.56772.41269,5.83564-4.44552,10.36232-10.25992,10.40468C321.97037,467.68559,318.63989,467.6657,314.02084,467.6657Z" style="fill:#36b723;stroke:#442a0c;stroke-linecap:round;stroke-linejoin:round;stroke-width:2px"/><path d="M307.29068,473.36891a90.603,90.603,0,0,1,15.89728,1.16255c8.20212,1.53341,12.04631,6.24232,11.73154,14.45042a43.39867,43.39867,0,0,1-2.34921,12.18c-2.9623,8.80219-10.36049,10.91413-18.447,11.37622-5.97365.34138-11.98086.1085-17.97306.097-.814-.00159-2.04295.09837-2.3774-.36055-3.45015-4.73442-11.1026-6.98513-9.02582-15.04414a10.36661,10.36661,0,0,0,.04165-2.49023c.033-12.59974.05184-12.57734,9.284-20.4357,1.17842-1.00308,2.42262-.92119,3.72968-.92918C300.965,473.35585,304.12791,473.36891,307.29068,473.36891Z" style="fill:#36b723;stroke:#442a0c;stroke-linecap:round;stroke-linejoin:round;stroke-width:2px"/><path d="M259.00176,512.73087a67.41352,67.41352,0,0,1-14.87341-1.04331c-6.101-1.32042-10.58952-4.53083-12.62289-10.68015a47.3983,47.3983,0,0,1-2.25714-15.18016c.02969-5.89154,3.75629-9.8815,10.10738-11.162,9.36015-1.88724,18.86941-1.0815,28.32354-1.23859,1.72939-.02874,2.62452,1.01048,3.5693,2.26884,1.08441,1.44437,2.19811,3.25813,3.72517,3.904,4.25194,1.79839,4.55314,5.31881,4.45385,8.97325-.126,4.63983-.82969,9.269-.00016,13.90813.15422.8623.09527,1.86216-.6675,2.25456-5.6427,2.90277-9.08779,10.55608-17.27467,8.0266A8.77927,8.77927,0,0,0,259.00176,512.73087Z" style="fill:#36b723;stroke:#442a0c;stroke-linecap:round;stroke-linejoin:round;stroke-width:2px"/><path d="M256.43692,518.53911c2.17287,0,3.84523.09746,5.50268-.01837,4.8182-.33674,9.40631-.33986,10.84363,5.71517a1.37807,1.37807,0,0,0,.49181.847c7.42784,3.98587,6.12246,10.85218,5.783,17.40829-.06023,1.16353-.04726,2.33115-.05315,3.497-.04727,9.358-5.45749,14.593-14.89587,14.66981a60.58082,60.58082,0,0,1-15.78206-1.87363c-8.40713-2.17528-14.59825-6.44206-15.17156-15.98443a115.95814,115.95814,0,0,1-.42138-13.4527c.32054-5.65995,4.5643-8.12046,9.33479-9.77507C246.92311,517.88863,251.9781,518.79639,256.43692,518.53911Z" style="fill:#36b723;stroke:#442a0c;stroke-linecap:round;stroke-linejoin:round;stroke-width:2px"/><path d="M307.12851,518.63174c5.08528.0534,10.27816-.62326,15.24637,1.21516,7.1658,2.65171,9.43,6.49222,8.63991,14.52554-.32475,3.30189-.47322,6.62861-.96244,9.90518a17.26362,17.26362,0,0,1-13.635,14.36467c-4.02544.8385-8.14047,1.293-12.134,2.09656-7.95459,1.601-13.32121-2.15582-18.4854-7.16669-1.15319-1.11891-1.02674-2.36031-1.0344-3.65687-.02063-3.49388.05892-6.98922-.00686-10.48194-.09838-5.22275-.98961-10.72183,5.3228-13.38447a.66183.66183,0,0,0,.33287-.36207C293.22657,516.87718,300.38919,518.2518,307.12851,518.63174Z" style="fill:#36b723;stroke:#442a0c;stroke-linecap:round;stroke-linejoin:round;stroke-width:2px"/></g><g id="flexordedos"><path d="M425.32688,501.90267c-.19677-1.04318-.18121-2.12878,1.06327-2.40853,1.51165-.33991,2.43854.71023,3.31186,1.76873a141.74426,141.74426,0,0,1,14.04538,20.55738c6.29354,11.13376,9.18366,23.45118,12.61559,35.56539,5.05432,17.841,10.29446,35.61012,17.08613,52.88678.50115,1.2749,2.03144,3.00811.3138,3.98941-1.85874,1.06186-3.09025-.51884-4.30522-2.12139a217.19383,217.19383,0,0,1-33.16317-61.82653C430.99921,534.636,427.75359,518.32075,425.32688,501.90267Z" style="fill:#97c666;stroke:#442a0c;stroke-linecap:round;stroke-linejoin:round;stroke-width:2px"/><path d="M138.47177,502.16533c-6.27329,39.74715-18.94071,76.92254-43.57246,109.29729a18.74967,18.74967,0,0,1-1.14154,1.633c-.98628,1.04-1.82728,2.72489-3.61749,1.9086-2.22595-1.01487-.43156-2.77426-.10519-3.7962,3.8512-12.05819,8.05168-24.005,11.89547-36.06544,3.86415-12.1244,7.33523-24.37366,11.15241-36.51356,4.35309-13.84436,11.895-25.89882,21.30465-36.83833.94662-1.10055,2.01759-2.49574,3.70141-2.07362C139.404,500.04662,138.69256,501.35783,138.47177,502.16533Z" style="fill:#97c666;stroke:#442a0c;stroke-linecap:round;stroke-linejoin:round;stroke-width:2px"/></g><g id="serratoanterior"><path d="M185.797,404.66075c-.41613-4.11152.82074-4.65557,3.32054-3.17678,17.56753,10.39207,37.01568,13.67837,56.96523,15.048,1.34209.09215,3.09207-.04784,3.326,1.46488.286,1.849-1.55626,2.25-2.998,2.64088-13.27406,3.59915-20.61366,12.7018-23.307,25.74513-.74294,3.598-2.3749,3.91075-5.15157,2.92133-15.05932-5.366-26.3925-14.18373-29.17665-31.12942C187.97188,413.283,186.65052,408.4763,185.797,404.66075Z" style="fill:#45ba75;stroke:#442a0c;stroke-linecap:round;stroke-linejoin:round;stroke-width:2px"/><path d="M378.65427,403.28254c-2.21287,9.15617-2.87049,18.76753-7.68937,27.175-5.69442,9.9349-14.74446,15.46217-25.26526,19.024-2.93018.992-4.23178-.20785-4.77113-3.06925-2.4675-13.09081-9.83676-21.83426-22.86788-25.47244-1.392-.38861-3.40005-.4519-3.11109-2.4722.31483-2.20122,2.44529-1.804,4.03417-1.89917,15.80956-.94716,31.227-3.50019,45.93337-9.83295,3.80334-1.63777,6.67118-4.68551,10.63071-5.887C377.84461,400.15161,379.18911,400.46529,378.65427,403.28254Z" style="fill:#45ba75;stroke:#442a0c;stroke-linecap:round;stroke-linejoin:round;stroke-width:2px"/></g><g id="cuadriceps"><path d="M364.17735,625.0359c2.46571,4.4855,2.03092,8.3841,2.12066,12.10707.45724,18.96972.86386,37.94169.42374,56.91995C365.6136,741.847,357.9372,788.204,336.857,831.64615c-3.19594,6.5862-6.8642,12.91542-12.18023,18.051-6.53735,6.31549-12.63735,5.22086-16.63585-2.99206-3.46693-7.12115-4.64666-14.84012-5.41425-22.6424-3.02236-30.72136,2.90921-60.15123,13.06752-88.9034,12.61886-35.71661,26.9838-70.69817,44.95994-104.10945C361.57946,629.3299,362.62625,627.67535,364.17735,625.0359Z" style="fill:#4b8ebb;stroke:#442a0c;stroke-linecap:round;stroke-linejoin:round;stroke-width:2px"/><path d="M261.90393,808.3089a102.92812,102.92812,0,0,1-3.06071,30.16212,43.585,43.585,0,0,1-2.65141,7.5008c-4.406,9.533-10.15285,10.40157-17.4753,2.698-7.84486-8.25314-12.17153-18.59142-16.63588-28.77787-7.55859-17.24664-12.03243-35.45773-16.41841-53.70508a267.44142,267.44142,0,0,1-6.85737-41.72081c-2.03219-25.91951-.96394-51.83585-.80862-77.75616.0356-5.93694.475-11.87321.81017-17.80515.06623-1.17183-.70969-2.88588,1.28511-3.2571,1.89033-.35169,2.03472,1.49893,2.57252,2.51831,7.67109,14.54245,14.81928,29.335,21.29993,44.45344,11.90824,27.78027,23.7964,55.56591,31.46124,84.9107,1.34019,5.131,2.46042,10.33651,3.35391,15.56372C260.76988,784.74048,262.43534,796.43318,261.90393,808.3089Z" style="fill:#4a8ebb;stroke:#442a0c;stroke-linecap:round;stroke-linejoin:round;stroke-width:2px"/><path d="M367.9611,783.60064a183.23873,183.23873,0,0,1-13.312,72.9615c-1.03025,2.56024-1.58391,6.39483-4.54185,6.62276-2.84184.21884-3.19076-3.70588-4.53749-5.87116-.787-1.26538-1.15065-2.86079-2.1174-3.937-6.55684-7.29972-4.98157-14.13552-.73262-22.332,10.60469-20.4565,16.00411-42.77491,20.93454-65.16167.476-2.16119.43323-5.91071,2.65251-5.715,2.78664.24581,1.52593,3.84471,1.59214,5.97563C368.07955,771.95774,367.9611,777.78105,367.9611,783.60064Z" style="fill:#4a8ebb;stroke:#442a0c;stroke-linecap:round;stroke-linejoin:round;stroke-width:2px"/><path d="M196.73905,784.69105c0-6.49478-.06788-12.99078.04285-19.48368.03177-1.8624-.87792-4.99317,1.2418-5.26608,2.971-.38245,2.22926,3.298,2.58852,4.942a368.00029,368.00029,0,0,0,19.27009,62.69085c2.15688,5.19931,6.50516,10.30947,6.40108,15.3901-.099,4.83383-4.635,9.61353-7.3533,14.3405-1.25189,2.17693-1.45331,5.99669-4.57963,5.76674-2.89273-.21267-3.32724-3.83208-4.32715-6.20918a187.063,187.063,0,0,1-13.046-49.72251c-.91456-7.376-.15322-14.95974-.15322-22.44913Z" style="fill:#4a8ebb;stroke:#442a0c;stroke-linecap:round;stroke-linejoin:round;stroke-width:2px"/></g><g id="oblicuosfrontales"><path d="M334.676,610.29317c1.52886-17.89712,2.99356-34.94719,4.43753-51.99891.50493-5.96245,1.03287-11.92478,1.39121-17.8967a5.18669,5.18669,0,0,1,2.07267-4.23858c6.96786-5.38868,13.857-10.879,20.81234-16.28413,1.002-.77863,2.07687-1.97768,3.5329-1.24762,1.311.65731.82651,2.01985.71126,3.12845-1.56685,15.07386-1.87644,30.20692-2.00285,45.34028-.06515,7.79806-1.55129,15.5916-.09984,23.411a4.02778,4.02778,0,0,1-.89953,2.72165c-5.90569,7.86471-12.22981,15.35373-20.09451,21.37568-2.28336,1.74847-4.754,3.39465-7.75961,1.9504C333.61729,615.03607,334.94034,611.94222,334.676,610.29317Z" style="fill:#5b7f97;stroke:#442a0c;stroke-linecap:round;stroke-linejoin:round;stroke-width:2px"/><path d="M195.46833,517.57349a10.87018,10.87018,0,0,1,5.89779,2.77993c6.53738,5.385,13.07835,10.767,19.70266,16.04393a6.60088,6.60088,0,0,1,2.76254,5.44782c.77848,22.07754,2.59313,44.08258,4.917,66.048a31.55718,31.55718,0,0,1,.175,3.9885c-.09367,4.35019-3.44441,6.67011-7.01054,4.19354-9.2344-6.41283-16.50044-14.89359-23.01006-23.98742-.64963-.90752-.27531-2.59252-.27155-3.91636.04284-15.13764.65691-30.33318-1.0841-45.37006C196.57971,534.44616,197.9917,526.06023,195.46833,517.57349Z" style="fill:#5b7f97;stroke:#442a0c;stroke-linecap:round;stroke-linejoin:round;stroke-width:2px"/><path d="M223.60638,526.79078c-7.55066-4.1656-12.83941-10.20024-19.51376-13.91839-8.37447-4.66528-8.89806-12.10591-9.27384-19.94968-.16486-3.44115.49378-6.90726-.88958-10.27829a3.1469,3.1469,0,0,1,.37995-2.77938c.73366-.77064,1.81886.00647,2.70412.48638,7.57073,4.10444,15.12838,8.23415,22.7476,12.24681a3.59132,3.59132,0,0,1,2.25608,3.41247C222.465,505.929,223.02785,515.84211,223.60638,526.79078Z" style="fill:#5b7f97;stroke:#442a0c;stroke-linecap:round;stroke-linejoin:round;stroke-width:2px"/><path d="M368.75423,479.10331c.78528,9.39768-1.50906,17.74657-.961,26.17289a1.72507,1.72507,0,0,1-.57716,1.28284c-8.53885,6.4315-16.555,13.59909-26.38415,19.32788-.64011-10.74893.631-20.72484,1.18027-30.72143a3.12177,3.12177,0,0,1,2.2397-2.95056C352.63789,489.02667,360.22508,484.28548,368.75423,479.10331Z" style="fill:#5b7f97;stroke:#442a0c;stroke-linecap:round;stroke-linejoin:round;stroke-width:2px"/><path d="M193.03715,461.37822c-.65809-4.74607-1.42059-9.77067-2.00607-14.81572-.13876-1.19581-.73488-2.91577.80118-3.55447,1.17888-.49011,1.96107.9265,2.84781,1.60383a72.952,72.952,0,0,0,23.722,12.28264c2.62382.77393,3.73591,1.6958,3.01427,4.84652-1.27264,5.55669.01324,11.21993.29894,16.84265.236,4.64434-1.479,5.70352-5.64371,3.74048-5.96724-2.81258-11.52612-6.37657-17.582-9.098C194.1086,471.2574,192.39183,466.69654,193.03715,461.37822Z" style="fill:#5b7f97;stroke:#442a0c;stroke-linecap:round;stroke-linejoin:round;stroke-width:2px"/><path d="M372.772,442.78552c-.74,6.753-1.92315,13.25516-2.03537,19.77564-.11318,6.57509-3.15857,9.97651-8.978,12.34787-5.48349,2.23436-10.57039,5.44416-15.82424,8.239-3.03868,1.61646-4.72685,1.14668-3.98617-2.686,1.24182-6.42577.84515-12.89663.63656-19.35827-.06462-2.00234.11229-3.50432,2.434-4.11482,9.71416-2.55456,18.11546-7.62512,25.96283-13.73556C371.32148,442.98868,371.88149,443.00675,372.772,442.78552Z" style="fill:#5b7f97;stroke:#442a0c;stroke-linecap:round;stroke-linejoin:round;stroke-width:2px"/></g><g id="trapeciofrontal"><path d="M307.04609,245.69911c-8.1626,13.49935-15.7961,26.61954-24.69306,39.22-3.88441-3.72477-5.82871-8.37235-8.51237-12.509-5.04812-7.78128-10.11013-15.55365-15.10854-23.36675-.56431-.88214-1.68216-1.9797-.5392-3.06776.84106-.80067,1.88336-.038,2.75351.364,13.98276,6.4607,27.89333,5.83829,41.76512-.365a6.91936,6.91936,0,0,1,1.9085-.50322A15.22968,15.22968,0,0,1,307.04609,245.69911Z" style="fill:#8e0000"/><path d="M282.35287,285.91929a1,1,0,0,1-.69238-.27832,37.98248,37.98248,0,0,1-6.43359-8.97168c-.74414-1.29395-1.44727-2.51563-2.22559-3.71387l-2.70508-4.16895c-4.08007-6.28417-8.29882-12.7832-12.40722-19.2041-.07617-.12011-.165-.24511-.25684-.374-.55957-.791-1.72558-2.43652-.12891-3.957,1.22168-1.16113,2.63184-.44336,3.47559-.01172.13184.06738.26074.13379.38672.19141,13.27539,6.13379,26.666,6.01269,40.9375-.36914a7.84363,7.84363,0,0,1,2.1875-.582,5.23511,5.23511,0,0,1,1.40137.07422c.31836.042.7207.09571,1.25683.15039a.99963.99963,0,0,1,.75293,1.5127q-1.9702,3.25781-3.90625,6.48535c-6.85937,11.41211-13.33886,22.19141-20.82617,32.79395a.99819.99819,0,0,1-.7207.418C282.41635,285.91733,282.38412,285.91929,282.35287,285.91929Zm-23.2832-39.29a.25477.25477,0,0,0-.1875.07129c-.25.23828-.34375.32715.38184,1.35156.11035.15527.21679.30664.30957.45215,4.10547,6.415,8.32226,12.91113,12.40039,19.19336l2.70508,4.16894c.80761,1.24317,1.55664,2.5459,2.28125,3.80567a40.40029,40.40029,0,0,0,5.26367,7.6914c7.15625-10.22851,13.42871-20.66406,20.05762-31.6914q1.54688-2.57373,3.10937-5.167a2.765,2.765,0,0,0-.64258-.042,5.89464,5.89464,0,0,0-1.62793.42383c-14.624,6.541-28.9541,6.66211-42.59375.36035-.14746-.06836-.30078-.14648-.458-.22656A2.83013,2.83013,0,0,0,259.06967,246.62925Z" style="fill:#442a0c"/><path d="M248.07782,247.85605c5.20258,4.67446,8.441,10.26343,11.65748,15.84044,6.54772,11.353,13.45339,22.543,17.84835,34.97966.6524,1.84626,2.63987,4.57609.43042,5.90558-2.23536,1.345-3.54-1.77947-4.97834-3.16013a172.16037,172.16037,0,0,1-19.91-22.32775c-3.629-4.95408-5.86868-10.111-5.15459-16.53193C248.5101,257.716,248.07782,252.762,248.07782,247.85605Z" style="fill:#8e0000"/><path d="M276.93588,305.9271c-1.59375,0-2.76758-1.52148-3.61133-2.61523a11.0097,11.0097,0,0,0-.98144-1.16895,173.05307,173.05307,0,0,1-20.02442-22.458c-4.35742-5.94922-6.00488-11.26367-5.34179-17.2334a73.65231,73.65231,0,0,0,.18261-10.02539c-.041-1.52441-.082-3.0498-.082-4.57031a1.00012,1.00012,0,0,1,1.668-.74414c5.35254,4.80859,8.65918,10.541,11.85645,16.085q1.207,2.09326,2.42383,4.17969c5.71,9.81836,11.61523,19.9707,15.5,30.9668.12695.35742.30859.75.49609,1.16015.75781,1.65332,2.02441,4.4209-.49219,5.93555A3.07824,3.07824,0,0,1,276.93588,305.9271ZM249.1058,250.2269c.01465.71485.03418,1.42969.05371,2.14551a75.21517,75.21517,0,0,1-.19433,10.29981c-.60449,5.43457.92773,10.3164,4.9668,15.83105a171.13234,171.13234,0,0,0,19.79589,22.19629,12.57979,12.57979,0,0,1,1.18067,1.39063c1.36816,1.77343,1.85156,2.07519,2.58984,1.63476.83692-.5039.65039-1.32519-.29492-3.38867-.21387-.46875-.41895-.918-.56348-1.32715-3.82226-10.81933-9.67968-20.88867-15.34277-30.62793q-1.21728-2.09033-2.42773-4.18457C256.10971,259.41147,253.266,254.48179,249.1058,250.2269Z" style="fill:#442a0c"/><path d="M315.95678,258.18033c2.10046,12.22728-4.29131,21.13248-11.77185,29.44979-4.6567,5.17759-9.76465,9.95259-14.73442,14.8429-1.1036,1.08594-2.29657,3.09092-4.08546,1.78743-1.50812-1.09893-.05935-2.822.42581-4.099,5.56-14.6342,13.31773-28.14438,21.39114-41.48949q3.0835-5.097,6.07031-10.25214c.41238-.70964.64822-1.73031,1.618-1.59626,1.37767.19046,1.06076,1.45572,1.07238,2.3799C315.98037,252.19535,315.95678,255.188,315.95678,258.18033Z" style="fill:#8e0000"/><path d="M286.49643,305.69272a2.897,2.897,0,0,1-1.7207-.624c-1.86524-1.35937-.84278-3.38183-.293-4.46777a8.68774,8.68774,0,0,0,.373-.79395c5.8086-15.28711,14.12793-29.51562,21.47071-41.65234,1.93261-3.19531,3.915-6.54395,6.06152-10.23633.07031-.123.13477-.25684.2002-.3916a2.33917,2.33917,0,0,1,2.41894-1.69336c2.05762.28418,1.97949,2.15039,1.94629,2.94727-.00586.1416-.0127.27929-.01074.41015.02734,2.15625.02246,4.31348.01758,6.46973l-.00391,2.43555c2.207,13.07226-5.0498,22.44335-12.02832,30.20312-3.60938,4.01465-7.542,7.83789-11.34473,11.53613q-1.71972,1.67286-3.43164,3.35059c-.1748.17187-.35254.37012-.53418.57226C288.95346,304.49644,287.87631,305.69272,286.49643,305.69272Zm28.2373-57.8789a2.37073,2.37073,0,0,0-.34765.58984c-.08692.17774-.17383.35547-.26856.51856-2.15234,3.70312-4.14062,7.06152-6.08008,10.26758-7.29687,12.06152-15.56347,26.19628-21.3125,41.32714a10.64315,10.64315,0,0,1-.458.98731c-.69825,1.38183-.69336,1.6709-.31348,1.94726.59375.4336.93066.35547,2.17676-1.03125.21094-.23339.417-.46093.61914-.66015q1.7124-1.68457,3.44043-3.3584c3.77832-3.67578,7.68652-7.47559,11.25195-11.44043,6.67969-7.42773,13.63086-16.37695,11.5293-28.61231a.97811.97811,0,0,1-.01465-.16894l.00391-2.52344c.00488-2.14746.00976-4.29394-.01758-6.44043-.002-.165.00488-.34082.01269-.51855a2.63661,2.63661,0,0,0-.043-.84473C314.91537,247.86167,314.85971,247.8314,314.73373,247.81382Z" style="fill:#442a0c"/><path d="M201.475,293.41218c.57274-2.8146,2.44616-2.68458,3.99436-3.121,10.1913-2.87284,20.39446-5.70611,30.55375-8.68862a7.87141,7.87141,0,0,1,8.85231,2.4647c4.56623,4.98664,9.72844,9.43241,14.83143,16.26644C239.648,296.03545,220.6903,294.448,201.475,293.41218Z" style="fill:#8e0000"/><path d="M259.70639,301.33335a.96615.96615,0,0,1-.21-.02246c-20.665-4.42774-40.125-5.93262-58.0752-6.89942a1.00056,1.00056,0,0,1-.92578-1.19824c.60938-2.99218,2.55664-3.40918,3.97949-3.71386.24415-.05274.48731-.1045.72266-.1709l6.46191-1.81739c7.90235-2.2207,16.07422-4.5166,24.082-6.86816a8.85173,8.85173,0,0,1,9.87109,2.748c1.44238,1.57519,2.92676,3.07812,4.499,4.66992a107.82659,107.82659,0,0,1,10.39649,11.67383,1.0004,1.0004,0,0,1-.80176,1.59863Zm-56.84473-8.84668c16.88672.93164,35.08985,2.38672,54.38965,6.3125a120.08478,120.08478,0,0,0-8.5625-9.333c-1.58594-1.60547-3.083-3.12109-4.55078-4.72363a6.86394,6.86394,0,0,0-7.834-2.17969c-8.01758,2.35352-16.19532,4.65137-24.10352,6.874l-6.46,1.81738c-.27539.07715-.56055.13867-.84668.20019C203.96225,291.65464,203.29428,291.79722,202.86166,292.48667Z" style="fill:#442a0c"/><path d="M304.71181,299.41338c5.3697-7.361,11.24729-12.65566,17.15-17.90481,1.50116-1.33495,3.31919-.82828,5.17451-.24584,10.10461,3.17211,20.25169,6.20912,30.38635,9.28539,1.36616.41467,3.46507.42126,3.12726,2.349-.282,1.60957-2.25181.83466-3.45958.90762-16.21855.98-32.45673,1.75069-48.316,5.76909C307.87608,299.80148,306.84785,299.51618,304.71181,299.41338Z" style="fill:#8e0000"/><path d="M307.99643,300.65952c-.42481,0-.88379-.04492-1.42383-.09765-.52148-.05176-1.1416-.11231-1.9082-.14942a.99945.99945,0,0,1-.75977-1.58789c5.56836-7.63574,11.79688-13.17578,17.292-18.06348,1.97852-1.76074,4.38379-1.00293,6.13965-.45214,7.81348,2.45312,15.78614,4.86523,23.49707,7.19824l6.87891,2.084c.23633.07129.49512.12891.75879.18848,1.22461.27441,3.50293.78613,3.06445,3.29-.37109,2.11328-2.4834,1.8916-3.50293,1.78711a6.071,6.071,0,0,0-.88183-.05371l-2.93848.17578c-14.9375.89062-30.38281,1.81152-45.19141,5.56445A4.11158,4.11158,0,0,1,307.99643,300.65952Zm-1.39258-2.10449c.05566.00586.11035.01074.16406.01562a5.67291,5.67291,0,0,0,1.76172.03321c14.99219-3.79883,30.53321-4.72559,45.56348-5.6211l2.93652-.17578a7.30852,7.30852,0,0,1,1.21.06055,3.46472,3.46472,0,0,0,1.28418-.00391.45855.45855,0,0,0,.041-.13965c.07812-.4414.11035-.625-1.53223-.99316-.31347-.07031-.62109-.14062-.90137-.22559l-6.877-2.084c-7.71582-2.334-15.69336-4.74805-23.51758-7.2041-1.86035-.585-3.1582-.89649-4.21.03808C317.46225,286.75913,311.76791,291.82456,306.60385,298.555Z" style="fill:#442a0c"/></g><g id="biceps"><path d="M169.9759,380.43081c-2.05063,35.65019-14.9737,72.85667-46.70487,101.93661-1.10327,1.01108-2.24511,1.9839-3.412,2.9209-2.14523,1.72241-3.35666,1.37431-4.05236-1.489-2.20886-9.09121-4.91939-18.07147-6.83079-27.221a105.3829,105.3829,0,0,1-2.02644-26.57161c1.28514-27.27057,14.23165-57.51282,46.61322-69.173C167.54913,355.79725,170.04476,357.951,169.9759,380.43081Z" style="fill:#dea943;stroke:#442a0c;stroke-linecap:round;stroke-linejoin:round;stroke-width:2px"/><path d="M456.876,434.2733c-.32848,16.93428-3.61688,32.66814-8.2253,48.18078-1.02979,3.46654-2.27357,4.32945-5.34273,1.478-24.6425-22.8948-40.80054-50.43835-46.76909-83.77365a158.93588,158.93588,0,0,1-2.78076-32.24157c.20478-7.85679,1.82277-9.34434,9.5327-8.4349,10.4729,1.2353,19.05713,6.62609,26.98246,13.05624C450.09448,388.61987,456.73606,410.41407,456.876,434.2733Z" style="fill:#dea943;stroke:#442a0c;stroke-linecap:round;stroke-linejoin:round;stroke-width:2px"/><path d="M411.44408,455.7848c3.65529,2.45447,5.30086,6.59669,7.81313,9.96126a167.38567,167.38567,0,0,0,15.98406,18.4328c1.1314,1.12808,3.76825,2.144,1.947,4.2893a4.71165,4.71165,0,0,1-5.90984,1.20039,32.95843,32.95843,0,0,1-11.9461-9.59975c-4.70287-6.19758-7.15082-13.41778-8.73381-20.959C410.357,457.95928,410.0713,456.80467,411.44408,455.7848Z" style="fill:#dea943;stroke:#442a0c;stroke-linecap:round;stroke-linejoin:round;stroke-width:2px"/><path d="M153.55847,459.42672c-2.62453,12.62244-7.22566,23.88185-19.75211,30.0712-2.42963,1.20044-4.06626.82647-5.69319-.94292-2.128-2.31442.47155-3.30116,1.53695-4.3167,8.01148-7.63664,14.37191-16.5676,20.57706-25.64074.59495-.86987,1.135-2.32669,2.61006-1.79723C154.06381,457.24064,153.50907,458.488,153.55847,459.42672Z" style="fill:#dea943;stroke:#442a0c;stroke-linecap:round;stroke-linejoin:round;stroke-width:2px"/></g></g></g></svg>