<?xml version="1.0" encoding="UTF-8" standalone="no"?><!DOCTYPE svg PUBLIC "-//W3C//DTD SVG 1.1//EN" "http://www.w3.org/Graphics/SVG/1.1/DTD/svg11.dtd"><svg width="100%" height="100%" viewBox="0 0 500 500" version="1.1" xmlns="http://www.w3.org/2000/svg" xmlns:xlink="http://www.w3.org/1999/xlink" xml:space="preserve" xmlns:serif="http://www.serif.com/" style="fill-rule:evenodd;clip-rule:evenodd;stroke-linejoin:round;stroke-miterlimit:2;"><rect id="Mesa-de-trabajo1" serif:id="Mesa de trabajo1" x="0" y="0" width="500" height="500" style="fill:#dadada;"/><g id="Mesa-de-trabajo11" serif:id="Mesa de trabajo1"><path d="M321.875,178.125l-143.75,0c-7.169,0 -13.068,5.899 -13.068,13.068l0,117.614c0,7.169 5.899,13.068 13.068,13.068l52.273,0c2.805,0 5.312,-1.806 6.199,-4.468l12.113,-36.33l29.877,-11.941c1.657,-0.67 2.973,-1.985 3.643,-3.643l11.941,-29.853l36.33,-12.113c2.652,-0.896 4.447,-3.4 4.443,-6.199l0,-26.136c0,-7.169 -5.899,-13.068 -13.068,-13.068Zm-84.608,95.945l-11.582,34.737l-47.56,0l0,-22.869l42.472,-42.472l24.846,24.846l-4.427,1.756c-1.775,0.719 -3.147,2.184 -3.749,4.002Zm84.608,-61.453l-34.737,11.582c-1.823,0.607 -3.289,1.989 -4.002,3.773l-12.023,30.073l-12.472,5.023l-28.807,-28.807c-5.069,-5.065 -13.407,-5.065 -18.475,0l-33.234,33.193l0,-76.261l143.75,0l0,21.424Zm10.357,26.953c-1.703,-1.228 -3.897,-1.563 -5.889,-0.898l-19.439,6.485c-1.822,0.606 -3.287,1.984 -4.002,3.765l-11.688,29.216l-29.216,11.688c-1.781,0.715 -3.16,2.181 -3.765,4.002l-6.485,19.439c-0.224,0.669 -0.338,1.369 -0.338,2.075c0,3.584 2.95,6.534 6.534,6.534c0.001,0 0.002,-0 0.003,-0l63.928,0c7.169,0 13.068,-5.899 13.068,-13.068l0,-63.928c0,-2.098 -1.01,-4.073 -2.712,-5.301l0,-0.008Zm-10.357,69.237l-54.862,0l2.654,-7.963l29.003,-11.598c1.657,-0.67 2.973,-1.985 3.643,-3.643l11.598,-29.003l7.963,-2.654l0,54.862Z" style="fill:#b5b5b5;fill-rule:nonzero;"/></g></svg>