<svg xmlns="http://www.w3.org/2000/svg" viewBox="0 0 563.72511 1133.0802"><g id="Layer_2" data-name="Layer 2"><g id="Layer_1-2" data-name="Layer 1"><g id="body"><path d="M563.52225,632.44019c-.67994,3.41-3.07984,5.41-6.26978,6.5-2.94019,1-5.6001-.02-8.1001-1.40991-3.33008-1.87012-6.54-3.96009-9.8601-5.87012-4.03-2.32-5.66993-1.30994-5.80982,3.39-.15015,4.59,1.61987,8.80994,2.68994,13.12,3.43994,13.8501,7.31006,27.59009,10.95,41.39a31.24236,31.24236,0,0,1,.5,4.95008c.41993,4.59-1.77,7.35986-6.13989,8.26-4.69018.96-6.66016-2.26-7.7102-5.95008-2.91993-10.21008-5.65992-20.48-8.34986-30.76-.48-1.85-.57007-4.03991-3.14013-3.4-2.42994.61011-1.93995,2.87012-1.51,4.61011,2.76,11.11987,5.7102,22.18994,8.37011,33.33.98,4.1,1.53,8.44995-3.22,10.96-4.54,2.39-8.68994.6-10.3-4.99-2.99-10.36-5.43994-20.88-8.38012-31.25-.73-2.58-.00977-7.62-3.68994-6.96008-4.3899.78-1.26,5.01-.78,7.51,1.95,10.08008,4.28,20.09009,6.48022,30.12012.81982,3.71-.06006,6.71-3.81006,8.1499a7.66157,7.66157,0,0,1-9.67016-4.01,64.25661,64.25661,0,0,1-2.80982-11.08c-1.72021-8.44995-3.94018-16.79992-5.97021-25.19006-.2-.79993-.48975-1.58984-.75-2.37988a2.60382,2.60382,0,0,0-3.02979-1.99c-1.89014.24-1.66015,1.71-1.74023,3.04-.23,4.09985,1.89013,7.67993,2.6101,11.58984,1.07007,5.88013,2.81006,11.62012,4.05,17.47009.74,3.53992,1.87989,7.45-2.87011,9.37-4.10987,1.65991-8.42994-.13-10.52979-4.96-3.39014-7.78-5.02-16.15-7.32007-24.29q-8.76013-30.975-17.37011-61.98L390.85232,423.61011l-.13989-.8999c-1.01,2.42993-1.93017,4.72-2.75,7.04-2.32007,6.51-4.3,13.13989-6.53,19.67993-3.3,9.67993-3.76,19.86-4.7102,29.84009-1.96973,20.65991-2.89991,41.38989-3.52979,62.15991-.43017,14.14-.61011,28.28-.63013,42.41-.09008,61.43006-.34985,122.86.3501,184.2699.12989,12.2301.30982,24.56006.11988,36.74011-.24,15.49.1101,31,.16015,46.46.1499,55.08.06006,110.15.16992,165.23.03,18.5.07007,36.99011-.07006,55.49011-.03,3.58984,1.33007,5.5,4.37011,7.46,16.32984,10.54993,32.57007,21.25,48.57984,32.28,9.57006,6.59985,9.37011,16.31994.1101,20.43994a12.81007,12.81007,0,0,1-5.3601.87q-51.73462-.03-103.48-.04992c-14.6399-.02-25.1399-10.49011-25.1399-25.11011q-.03-222.43506-.06006-444.88989c-.01-11.39014,3.11011-13.01-12.77-12.82007-7.64991.09-8,.42993-8,8.43994q-.045,223.43994-.05,446.89c0,5.26-.61988,10.28-3.1399,14.95007-3.99,7.36987-10.42993,11.55993-18.53,11.62988-36.31982.29-72.6499.15015-108.97.15015-4.76,0-7.77-2.76-9.65991-6.7201-1.92016-4.01989-.3-7.53991,2.63989-10.35,6.78-6.49,15.09009-10.87,22.78-16.07007,10.74-7.27,21.60987-14.33,32.51-21.34,1.89991-1.22,2.1399-2.66,2.1399-4.58-.00977-43.93994.69018-87.9-.10987-131.83008-1.21-66.46-.96-132.92993-.3601-199.37988.60009-66.80005.8601-133.59009.25-200.38013-.26-27.51-1.76-55.13989-5.95-82.40991-1.48-9.59009-5.56-18.76-8.2-28.18994-.90991-3.27-1.73-6.57007-2.63012-9.88013h-.29L107.27225,642.19019l-.06983.23q-1.38024,5.04017-2.76,10.09009c-4.46,16.30993-8.70019,32.67993-13.12012,49-1.11987,4.11987-1.86987,8.5-7.33007,9.59985-6.09986,1.22009-10.29981-2.56994-9.12989-8.69995q3-15.62988,6.06006-31.25c.28-1.42993,1.09986-3.21-1.09009-3.65991-2.28-.48-2.04,1.51-2.32983,2.92993-2.58008,12.51-5.14014,25.02-7.82007,37.5-1.19018,5.51-3.4602,7.05005-8.79,6.42-5.01-.59-5.88012-3.86-5.63989-8.22009.51978-9.47,2.25-18.77,3.75977-28.09985a26.10874,26.10874,0,0,0-.17994-10.64014c-3.49,7.09009-3.79,13.54-5.22,19.66-1.55,6.62-2.64013,13.34-4.21,19.95008-1.08008,4.52-4.51,6.73-8.41015,5.97-4.64991-.9-7.27-4.29-6.46-9.07007,2.20019-12.90991,4.70019-25.77,7.90014-38.49.32007-1.26,1.97-2.96-.2102-3.85-2.36988-.96-2.6399,1.25-3.1399,2.77-3.48,10.59-5.69995,21.5-8.36987,32.28992-1.47021,5.95007-3.8501,7.76-8.46,6.49-4.92017-1.35986-7.25-5.72-6.03027-10.77991,4.38012-18.04992,8.74023-36.11,12.91015-54.21008.51-2.21,1.54-5.08-1.08007-6.88989-2.68995-1.87012-5.11988-.24-7.40992,1.1-2.28,1.35-4.34008,3.09-6.67016,4.33-4.21,2.24-9.86988,1.27-12.21973-1.87-2.76025-3.7-2.2102-8.88,1.29981-12.75989,2.53-2.78,5.91015-4.31006,9.09008-6.05,11.2-6.13,22.39991-12.26,33.77-18.06006,5.43994-2.77,7.95-7.29,9.32007-12.75,5.30982-21.25,11.34985-42.31006,16.50977-63.61,6.49023-26.77,14.1101-53.25,21-79.92,6.91015-26.76,14.31006-53.38989,20.9602-80.22,4.07984-16.42993,9.01978-32.62,20.47-46.02,8.67993-10.13989,19.97-15.90991,31.79981-20.80994,14.54-6.03,29.34008-11.42,44.02-17.09,8.2102-3.16,16.39013-6.42005,24.64013-9.45008,4.95-1.81994,7.58008-4.6,6.98-10.37-.56-5.28-.19995-10.65991-.06-15.98.08007-2.64-.73-4.08008-3.29-5.32007-18.8899-9.15991-31.77-24.19995-40.89991-42.71991-1.83007-3.71-3.79-7.41-4.69995-11.52-.8601-3.87-3.42016-5.94-6.98-7.67-19.39013-9.4-25.40014-37.07-11.84009-53.81a20.97653,20.97653,0,0,1,9.51-6.21c3.6001-1.28,4.31006-3.34,3.65015-6.91-5.53027-29.65,8.26978-73.38,39.29981-91.98,25.88012-15.51,53.15014-19.32,82.23-11.9,7.27,1.86,13.53,6.05,20.29,8.73,12.76,5.07,21.38013,14.35,29.61011,24.3,10.12988,12.23,14.62988,26.93,17.17993,42.35,1.67994,10.13.72,20.2-.09008,30.29-.17994,2.27.2,3.81,2.73022,5.12,18.87988,9.74,22.79981,28.59,14.34985,46.27-3.33007,6.96-8.96,11.47-16.05,14.11a8.738,8.738,0,0,0-6.04981,6.88c-5.02,20.62-16.90015,36.53-34.3,48.3999a53.49771,53.49771,0,0,1-10.12012,5.3501c-2.72,1.09-3.8601,2.49-3.68994,5.46.3,5.15-.38012,10.28-.67993,15.42-.42016,7.25,1.04981,8.86,7.54981,11.75,18.70019,8.29993,38.12011,14.73,57.1101,22.28992,10.6399,4.24,21.49,8.14014,31.11011,14.57007,12.22,8.16992,20.04981,19.74,24.87988,33.36,7.74,21.79,12.73,44.36,18.57007,66.68006,7.30982,27.92993,14.93994,55.78,21.85987,83.79993,5.9602,24.16,12.7102,48.11,18.90014,72.20007,1.8999,7.37988,4.57984,14.58,6.16992,22.03,2.39014,11.22,11.65992,15.03991,20.08008,19.90991a363.11,363.11,0,0,1,31.22,19.61C562.53226,624.97022,564.36233,628.21021,563.52225,632.44019Z" style="fill:#f7c59f"/></g><g id="dorsalancho"><path d="M279.08347,434.79259c0,15.65666-.296,29.433.08281,43.19074.38288,13.9068-4.21734,25.78294-13.35535,35.95309-8.56162,9.52859-17.54462,18.67881-26.09416,28.21795-2.82844,3.15591-4.35318,2.68455-6.58552-.47057-11.84069-16.73524-21.49724-34.68539-30.35227-53.13273a400.05964,400.05964,0,0,1-30.26561-89.38334c-1.46518-6.80892-2.58232-13.70248-3.59646-20.5958-.91582-6.225,1.61207-8.47853,7.69975-6.98174,14.23974,3.50129,26.87645,10.5552,38.9541,18.5158,18.98557,12.51381,36.989,26.51706,57.11954,37.29579C276.22164,429.29265,279.62386,431.71152,279.08347,434.79259Z" style="fill:#b97b00;stroke:#442a0c;stroke-linecap:round;stroke-linejoin:round;stroke-width:2px"/><path d="M286.26535,460.50839c0-7.66185.14646-15.32766-.05761-22.98408-.11339-4.25683,1.21119-7.8334,4.8503-9.738,28.60063-14.96865,52.58792-37.40832,82.21-50.69021,5.90124-2.646,11.854-5.18976,17.86446-7.57549,4.25231-1.6879,5.65567-.62031,4.86977,3.835-2.64952,15.021-4.77543,30.129-8.67683,44.93009-10.04346,38.10408-24.22572,74.468-44.80176,108.17862-3.27711,5.369-7.21557,10.33327-10.824,15.50159-1.99183,2.853-3.936,3.09769-6.344.33912-10.06494-11.52982-20.39345-22.83494-30.26366-34.5277a36.92083,36.92083,0,0,1-8.91771-25.28355c.162-7.32511.03223-14.65663.03223-21.98533Z" style="fill:#b97b00;stroke:#442a0c;stroke-linecap:round;stroke-linejoin:round;stroke-width:2px"/></g><g id="gemelostrasero"><path d="M228.077,1030.34974c-3.079,12.3588-5.87823,24.64095-9.87948,36.60442-.3127.93505-.76124,1.83238-.9943,2.78451a2.27108,2.27108,0,0,1-2.69919,1.66932c-1.03409-.10265-1.35863-1.31683-1.51846-2.33975-1.69134-10.82619-3.45848-21.64127-5.0592-32.48076-3.74744-25.37741-5.16685-50.96818-5.38734-76.555-.19186-22.26947.1403-44.6115,3.59207-66.72981a21.408,21.408,0,0,1,1.12362-4.34415c1.19337-3.1099,2.285-6.60951,6.327-6.878,4.2224-.28054,5.60758,3.36176,7.41511,6.22175,3.84863,6.08963,5.57884,12.97376,7.44057,19.819.31685,1.16481.38117,2.98431,2.08478,3.0421,1.55452.05267,1.278-1.67322,1.75981-2.64408,2.35257-4.74114,4.47909-9.6125,7.12281-14.185,1.85818-3.21395,4.10883-6.51316,8.612-6.29236,4.2135.20663,6.271,3.26545,8.1362,6.47537,4.65729,8.01514,5.28872,17.04324,5.9619,25.91073,2.43959,32.13339,1.04264,64.17134-2.75051,96.15742-2.11407,17.82736-4.67046,35.52462-10.22367,52.66239-.589,1.81761-.701,4.33128-3.2696,4.295-2.13549-.03-2.39992-2.17656-3.18094-3.87029C236.8323,1056.96941,232.75081,1043.63224,228.077,1030.34974Z" style="fill:#7b4f9a;stroke:#442a0c;stroke-linecap:round;stroke-linejoin:round;stroke-width:2px"/><path d="M336.46659,1029.51429c-2.45778,7.41067-4.76768,14.62983-7.25206,21.78846-2.12561,6.12509-4.43093,12.1883-6.70337,18.26139-.55491,1.48281-.636,3.57406-2.84339,3.59371-2.37313.02112-2.8229-2.15349-3.37256-3.79754a176.04481,176.04481,0,0,1-6.24622-24.26466c-2.25059-12.332-2.709-24.86-4.39835-37.224a420.20026,420.20026,0,0,1-3.31854-72.44247c.34559-9.3936.93284-19.0385,3.40612-28.43527,1.20557-4.58051,2.05359-9.18561,4.24242-13.42224,3.44475-6.66755,9.57313-7.31363,14.269-1.46414a56.111,56.111,0,0,1,7.88874,14.37279c.65945,1.62861.88177,4.25591,2.8805,4.2088,2.46815-.05822,2.28849-2.95807,2.77566-4.71373,1.73253-6.244,3.17513-12.54988,6.63325-18.1812,1.98524-3.23281,4.35642-5.4441,8.44951-4.86538,3.97672.56235,5.30361,3.58676,6.3045,6.84733,2.06977,6.743,2.351,13.78456,2.73764,20.71122,1.96993,35.28528,1.5912,70.508-2.45338,105.6973-1.916,16.67079-3.89994,33.32035-6.33886,49.91877-.30134,2.05109-.02666,4.75724-2.9209,5.04394-3.02537.29964-3.13736-2.58055-3.72608-4.498a243.2364,243.2364,0,0,1-7.65373-31.46442C338.50676,1033.26216,338.44292,1031.21217,336.46659,1029.51429Z" style="fill:#7b4f9a;stroke:#442a0c;stroke-linecap:round;stroke-linejoin:round;stroke-width:2px"/></g><g id="gluteos"><path d="M366.12443,646.55626c-.24044,9.61267-1.89694,19.07816-3.10184,28.59075-.27035,2.1344-1.67663,2.6007-3.08573,1.20033-13.16233-13.08154-31.02233-16.808-47.19991-23.89967-19.95376-8.747-29.22389-25.4955-27.46835-44.14056,1.54073-16.36389,10.19877-29.27358,22.37669-39.88013,4.6314-4.0339,9.6286-7.64745,14.454-11.459,4.8226-3.80944,5.54087-3.78808,9.72014.7837a129.89079,129.89079,0,0,1,20.89942,31.39662,125.09476,125.09476,0,0,1,12.456,46.0314C365.44387,638.95909,366.22427,642.71917,366.12443,646.55626Z" style="fill:#6ca0ae;stroke:#442a0c;stroke-linecap:round;stroke-linejoin:round;stroke-width:2px"/><path d="M279.99392,611.74137c-.82013,20.24114-10.42457,33.66979-28.04523,41.32078-11.3936,4.94715-23.74263,7.46327-34.72028,13.57322-4.24706,2.36385-8.39935,4.73631-11.56734,8.48729-2.285,2.70542-3.63241,2.44856-4.18128-1.12691-2.45155-15.96979-4.26506-32.00054-1.17854-48.05466a144.19662,144.19662,0,0,1,28.9638-63.13481c7.9602-10.05116,7.99908-10.07923,18.063-2.766,12.54785,9.11837,23.156,19.83385,29.12051,34.55711C278.80385,600.41123,279.49143,606.439,279.99392,611.74137Z" style="fill:#6ca0ae;stroke:#442a0c;stroke-linecap:round;stroke-linejoin:round;stroke-width:2px"/></g><g id="Isquiotibiales"><path d="M266.14188,774.68669c-.31038,32.6058-2.388,65.12-5.178,97.59684a2.73574,2.73574,0,0,1-.045.49663c-.56419,2.01564.1245,5.27323-2.0257,5.72543-2.6093.54869-3.2665-2.69339-4.2514-4.65679-8.265-16.47606-16.35864-33.00693-20.70377-51.09549-5.34724-22.26092-4.82278-44.87336-3.56418-67.3942a642.66679,642.66679,0,0,1,8.58011-72.172c.58555-3.43211,1.0449-6.8895,1.75237-10.2958.43158-2.07789-.59165-4.88162,1.3333-6.12869a47.20544,47.20544,0,0,1,9.87082-4.64978c2.3118-.82086,1.9709,1.54989,2.29764,2.83944a325.64855,325.64855,0,0,1,7.65355,42.08482C264.49533,729.49733,266.51792,752.01975,266.14188,774.68669Z" style="fill:#6868a6;stroke:#442a0c;stroke-linecap:round;stroke-linejoin:round;stroke-width:2px"/><path d="M298.68614,792.16553c.08355-48.10708,3.47667-87.43419,12.10816-126.24636.829-3.72786,1.60945-3.93577,5.42481-3.02075,9.53645,2.28715,8.65755,10.115,9.66052,16.60935,4.18487,27.09829,7.525,54.3195,9.08309,81.70456,2.208,38.81125-3.689,76.02582-23.0055,110.39766-.40406.719-.69491,1.50362-1.12026,2.20835-1.07364,1.77916-1.58125,5.07568-3.66548,4.745-2.68565-.42621-2.84425-3.925-3.02495-6.19478C301.7969,842.86215,297.976,813.4393,298.68614,792.16553Z" style="fill:#6868a6;stroke:#442a0c;stroke-linecap:round;stroke-linejoin:round;stroke-width:2px"/><path d="M195.91206,783.24758c.44189-23.53125,2.16893-44.17,6.48038-64.444a115.24987,115.24987,0,0,1,11.11075-31.28775A39.14447,39.14447,0,0,1,229.33773,671.393c.96342-.52574,2.06849-1.67993,3.17025-.98509,1.32562.83594.66861,2.4607.5039,3.66225-1.35192,9.86374-2.972,19.69258-4.2077,29.56992-1.66858,13.33754-3.39245,26.682-4.50081,40.07237a483.96845,483.96845,0,0,0-2.01368,50.8327c.19864,8.81378.53471,17.62537.91008,26.43366a10.68368,10.68368,0,0,1-1.06649,5.78535,264.12041,264.12041,0,0,0-12.4086,27.15078c-.70967,1.7611-.8817,4.86032-3.75647,4.5168-2.79677-.3343-2.33462-3.4038-2.82655-5.28518-3.06907-11.73682-3.81-23.84376-5.00043-35.845C196.92742,805.065,196.5064,792.74986,195.91206,783.24758Z" style="fill:#6868a6;stroke:#442a0c;stroke-linecap:round;stroke-linejoin:round;stroke-width:2px"/><path d="M331.99916,670.19607c10.52575,4.40347,17.259,11.86864,21.65822,21.55406,7.15514,15.75247,10.15391,32.60812,12.32633,49.58081a244.9279,244.9279,0,0,1,2.11431,41.32822c-.985,23.5855-2.19035,47.1552-5.864,70.52015-.29,1.84422-.25118,3.78119-2.697,4.12-2.17607.30147-2.837-1.39036-3.51077-2.88972-4.41751-9.83054-9.60377-19.26331-14.82633-28.67515a10.85588,10.85588,0,0,1-1.10635-7.23272c3.15866-19.01426,1.87345-38.115,1.24079-57.20354-.66714-20.12848-2.97174-40.11081-5.44373-60.07654C334.629,691.03148,333.33588,680.84534,331.99916,670.19607Z" style="fill:#6868a6;stroke:#442a0c;stroke-linecap:round;stroke-linejoin:round;stroke-width:2px"/></g><g id="trapeciotrasero"><path d="M279.101,363.20557q0,22.98505-.00861,45.97013c-.00964,5.77483-1.90121,7.1784-7.40779,5.40351-9.81382-3.16317-17.30058-9.7909-24.30512-16.94059-15.12511-15.43852-23.48675-34.83429-31.32356-54.49068-4.86153-12.19372-9.46731-24.50886-18.88439-34.18131-4.33244-4.44986-9.1028-8.26491-14.96815-10.52774-.85077-.32817-2.226-.0775-2.11005-1.53688.12364-1.55624,1.44083-1.57491,2.612-1.65556,29.66187-2.04166,58.43142,1.25916,86.27966,12.54051,8.16623,3.30814,10.70956,7.48954,10.22165,15.95731-.75563,13.11406-.19943,26.3037-.19943,39.4613Z" style="fill:#8e0000;stroke:#442a0c;stroke-linecap:round;stroke-linejoin:round;stroke-width:2px"/><path d="M386.41164,296.51318c-.48126,2.15554-2.16363,2.13344-3.25905,2.46354-15.15636,4.56772-23.49425,16.06968-28.5584,29.81506-6.85654,18.61033-13.84124,37.08208-24.611,53.83474-8.59311,13.36683-19.31152,24.53809-34.30238,30.8343-7.70987,3.23814-9.67473,1.89331-9.63818-6.26621q.1915-42.73024.34925-85.46064c.00678-1.988-.3238-3.978-.30226-5.96495.03308-3.05684,1.21424-5.42723,4.32109-6.53967,15.88105-5.68659,31.90416-10.17245,48.81912-12.46151,13.0097-1.76055,25.8188-1.24585,38.722-1.6229A20.09331,20.09331,0,0,1,386.41164,296.51318Z" style="fill:#8e0000;stroke:#442a0c;stroke-linecap:round;stroke-linejoin:round;stroke-width:2px"/><path d="M278.75314,262.76231q0,17.73325-.00824,35.46656c-.0033,2.22786.22854,4.52446-3.41595,2.963-17.03548-7.29856-35.03-10.94046-53.24059-13.735-1.35912-.20855-3.54709.574-3.87328-1.27874-.3465-1.9677,1.82036-2.41643,3.2964-3.06309,5.26315-2.3057,10.60661-4.44293,15.78365-6.92725,13.70229-6.57522,20.09912-18.11486,21.6653-32.73621.51329-4.79246.6019-9.62891,1.02133-14.4333.45569-5.21927,3.85833-10.0409,7.40292-10.75332,7.20238-1.4476,11.35533,1.89063,11.43418,9.5313.12028,11.65413.03155,23.3104.03155,34.96578Z" style="fill:#8e0000;stroke:#442a0c;stroke-linecap:round;stroke-linejoin:round;stroke-width:2px"/><path d="M286.11333,262.28939q0-16.73483.00445-33.46972c.01209-7.75238,1.638-10.28522,6.76586-10.66959a11.16456,11.16456,0,0,1,12.20831,9.91531c.88286,7.24809.93077,14.59846,1.82706,21.84427,1.33556,10.79643,7.58245,18.48931,16.45549,24.295a84.79015,84.79015,0,0,0,18.82367,9.04367c1.38426.47976,3.83563.37217,3.57169,2.67445-.23349,2.03663-2.38558,1.33043-3.73457,1.554-17.836,2.9559-35.61035,6.14553-52.29065,13.54085-3.15555,1.399-3.41009-.02911-3.38232-2.75656.12205-11.9895.0526-23.981.0526-35.9717Z" style="fill:#8e0000;stroke:#442a0c;stroke-linecap:round;stroke-linejoin:round;stroke-width:2px"/></g><g id="hombrotrasero"><path d="M123.88643,361.82543c.84564-18.32558,4.43953-35.61482,18.65694-48.82777,12.27818-11.4107,30.30034-12.94557,43.62316-3.86843,2.49055,1.69684,2.69614,2.323.30873,4.83258-7.548,7.93446-14.40293,16.5226-21.71949,24.68431-10.89019,12.14805-22.32047,23.74372-35.886,32.9895-1.1537.78633-2.286,2.297-3.959,1.31814-1.36937-.80121-.94981-2.37447-.997-3.64074C123.82082,366.82028,123.88643,364.32165,123.88643,361.82543Z" style="fill:#cc5116;stroke:#442a0c;stroke-linecap:round;stroke-linejoin:round;stroke-width:2px"/><path d="M442.2265,372.62306c-5.26718-.335-8.91276-2.86512-12.61718-5.32226-16.09348-10.67471-27.60071-25.66112-38.69687-41.04234-3.30934-4.58732-6.58754-9.3553-11.37542-12.41815-3.83892-2.45573-1.97542-3.80828.388-5.0452,11.50968-6.02378,23.24845-7.59026,35.10451-.98127,15.2075,8.47741,21.55728,22.73632,25.06263,38.80857C441.94688,355.12591,440.66105,363.81489,442.2265,372.62306Z" style="fill:#cc5116;stroke:#442a0c;stroke-linecap:round;stroke-linejoin:round;stroke-width:2px"/></g><g id="Braquiorradialtrasero"><path d="M77.88214,588.34035c-.46276-34.29171,3.62112-65.09791,12.0984-95.33094.44506-1.58711.4937-3.697,2.39192-3.961,1.98617-.27627,2.45192,1.80161,3.20663,3.26759,13.1835,25.60584,12.67558,51.75365,3.23079,78.303-4.74113,13.32735-10.56639,26.18614-16.54782,38.98171-.67727,1.44882-1.26928,3.74933-3.11222,3.27583-1.86758-.47979-1.21527-2.86476-1.23163-4.43686C77.83851,600.777,77.88214,593.113,77.88214,588.34035Z" style="fill:#bec043;stroke:#442a0c;stroke-linecap:round;stroke-linejoin:round;stroke-width:2px"/><path d="M457.8397,528.2c.6337-2.7731,1.19661-6.22249,2.22075-9.52908,2.841-9.17444,5.89526-18.28268,8.80975-27.43479.46331-1.45475.6697-3.08757,2.59557-3.14157,1.96-.055,2.26517,1.617,2.70651,3.04045a271.14787,271.14787,0,0,1,10.96789,54.4684c1.862,19.36828,2.0279,38.8148,2.05695,58.25912.00281,1.96712.61466,3.92777.7029,5.90215a3.28257,3.28257,0,0,1-2.31766,3.467c-1.48806.42669-1.91122-1.146-2.361-2.09332-2.41664-5.09106-4.93617-10.15026-7.0168-15.38089-7.04731-17.71807-13.77058-35.55489-16.75476-54.52235C458.806,537.14252,458.4258,533.00842,457.8397,528.2Z" style="fill:#bec043;stroke:#442a0c;stroke-linecap:round;stroke-linejoin:round;stroke-width:2px"/></g><g id="Infraespinoso"><path d="M406.16437,358.063c-15.01612,1.17137-27.71239,6.98361-40.32505,12.98029a208.92467,208.92467,0,0,0-23.58378,12.94984c-1.03794.669-2.14971,2.07868-3.49583.78465-1.37694-1.32378.10265-2.48792.72456-3.47884a181.95568,181.95568,0,0,0,21.5211-48.04752,33.147,33.147,0,0,1,2.17357-5.55538c3.77948-7.766,10.71084-9.1169,16.94248-3.05476,8.02471,7.80645,13.66719,17.54625,20.66349,26.19624C402.5349,353.00115,404.11633,355.301,406.16437,358.063Z" style="fill:#f48a02;stroke:#442a0c;stroke-linecap:round;stroke-linejoin:round;stroke-width:2px"/><path d="M163.2447,360.13739a19.88587,19.88587,0,0,1-2.53655.13584c-1.09939-.10353-2.51044.59083-3.2225-.57926-.79614-1.308.57621-2.10788,1.27808-2.91489,10.47393-12.04433,21.06095-23.99154,31.43462-36.12128,2.78018-3.25072,4.54933-2.1675,6.3908.6056A101.212,101.212,0,0,1,207.11288,342.631c4.90828,13.40024,9.81235,26.79841,17.66558,38.87024.60977.93739,2.23173,2.1566.84,3.41966-1.26294,1.14611-2.40426-.21884-3.49254-.915-13.74543-8.79255-27.935-16.66436-43.79873-21.0484C173.20394,361.54163,168.05614,360.25105,163.2447,360.13739Z" style="fill:#f48a02;stroke:#442a0c;stroke-linecap:round;stroke-linejoin:round;stroke-width:2px"/></g><g id="extensordedos"><path d="M133.39712,511.51264c-4.54828,26.1707-8.76331,52.41713-22.01839,76.09753-4.87081,8.7018-9.81864,17.33494-15.51526,25.52388-.99656,1.43247-1.70861,3.93308-3.9213,2.94085-2.08783-.93626-.44171-2.92267.03491-4.31083,7.74893-22.57125,12.173-46.13777,20.33083-68.56383,4.21069-11.57522,10.63767-22.11343,17.64361-32.24977.66073-.9561,1.34929-2.1942,2.6353-1.9357C133.83657,509.26608,133.6228,510.504,133.39712,511.51264Z" style="fill:#77aa4b;stroke:#442a0c;stroke-linecap:round;stroke-linejoin:round;stroke-width:2px"/><path d="M429.67633,512.36536c.34907-1.81461-.60062-3.58242,1.2558-3.96683,1.28313-.26565,1.774,1.20094,2.43079,2.13824,5.89539,8.41388,11.23457,17.22607,16.58865,25.94734,3.30946,5.3907,3.54392,12.62616,5.39045,18.96594,5.4721,18.789,11.95053,37.23421,19.19886,55.41181.618,1.54958,2.45472,3.43895.15623,4.80807-2.31741,1.38048-3.62374-.67379-4.71818-2.33547-12.4014-18.82942-23.78279-38.08944-30.3768-59.96346C435.46723,539.65467,432.32218,525.79761,429.67633,512.36536Z" style="fill:#77aa4b;stroke:#442a0c;stroke-linecap:round;stroke-linejoin:round;stroke-width:2px"/></g><g id="oblicuotrasero"><path d="M196.47185,491.23208c2.81057,6.09451,5.05817,11.20443,7.5008,16.21938a392.2953,392.2953,0,0,0,22.5381,39.80239c1.52108,2.37392,1.534,3.95328-.2048,6.11563a161.592,161.592,0,0,0-18.83277,29.24013c-.55619,1.11654-.99528,2.9065-2.61839,2.42775-1.63154-.48125-.89294-2.266-.91656-3.49259a568.37759,568.37759,0,0,0-7.56884-79.22183C195.8691,499.20706,194.56539,495.92549,196.47185,491.23208Z" style="fill:#5b7f97;stroke:#442a0c;stroke-linecap:round;stroke-linejoin:round;stroke-width:2px"/><path d="M370.01767,495.89565c-2.749,14.381-4.64776,28.50593-6.09189,42.71529-1.42887,14.06076-2.79366,28.10694-2.71335,42.25955.00781,1.378.87255,3.51291-.838,3.98361-2.289.62985-2.13244-1.9418-2.82326-3.27083-5.07513-9.7642-10.75075-19.16433-18.15385-27.33672-2.65818-2.93445-2.59929-4.96736-.48412-8.1583,10.46314-15.78513,20.491-31.83364,27.48757-49.56214.47478-1.20325.75966-3.32172,2.65733-3.141C370.67187,493.53875,369.92539,495.21044,370.01767,495.89565Z" style="fill:#5b7f97;stroke:#442a0c;stroke-linecap:round;stroke-linejoin:round;stroke-width:2px"/></g><g id="triceps"><path d="M162.385,390.98288c-.18442,36.36834-10.55144,65.967-26.15158,94.05473-.56162,1.01132-.98679,2.34334-2.38185,2.12969-1.50131-.23-1.91824-1.779-2.40206-2.94836a117.91861,117.91861,0,0,1-8.13089-28.6242c-2.89527-20.55234-1.91074-40.74576,6.78008-59.98006a92.40369,92.40369,0,0,1,19.8677-28.97442c3.60354-3.47316,4.92013-3.28929,7.47908,1.08129C162.3802,376.14989,162.556,385.433,162.385,390.98288Z" style="fill:#a8915b;stroke:#442a0c;stroke-linecap:round;stroke-linejoin:round;stroke-width:2px"/><path d="M402.86615,398.57782c-.90563-10.084,1.65161-20.49068,3.20046-30.98684.65469-4.43609,3.83343-2.60124,5.53252-1.171a84.107,84.107,0,0,1,10.278,10.17073c20.26658,24.15082,25.59686,51.87031,18.9467,82.20608-1.875,8.553-4.50874,16.941-6.85752,25.38712-.33882,1.21857-.5507,2.77322-2.106,3.10923-2.0002.43206-1.81932-1.54561-2.4131-2.54474C413.76544,458.367,401.85421,430.80016,402.86615,398.57782Z" style="fill:#a8915b;stroke:#442a0c;stroke-linecap:round;stroke-linejoin:round;stroke-width:2px"/><path d="M97.92457,454.95464c.38978-25.93987,6.85044-47.06848,22.02987-65.13385a39.56619,39.56619,0,0,1,2.71579-2.91974c1.08084-1.05014,2.38814-2.34259,3.89873-1.442,2.0423,1.21774.62753,3.00044-.01672,4.36039a135.46452,135.46452,0,0,0-11.80773,37.81741,126.51244,126.51244,0,0,0-1.41239,27.27582c.527,8.121-5.00434,13.53215-8.85613,19.54758-1.5707,2.45307-2.97772-.42139-3.5175-2.0619C98.81464,465.88237,97.68852,459.19718,97.92457,454.95464Z" style="fill:#a8915b;stroke:#442a0c;stroke-linecap:round;stroke-linejoin:round;stroke-width:2px"/><path d="M434.50619,380.24189c6.82286,4.40292,11.35223,9.83661,15.45039,15.59371,9.698,13.62391,13.99734,29.08708,15.3,45.5939.74745,9.4711,1.11764,18.90418-.01562,28.36087-.25509,2.12835.02368,4.65063-2.5332,5.42322-3.01641.91149-3.19912-2.19188-4.411-3.74719a14.84574,14.84574,0,0,1-1.06515-2.24077c-3.88982-7.33749-6.48844-14.45169-5.77052-23.47889,1.67187-21.02486-4.42844-40.64521-14.83158-58.916C435.67057,385.14663,434.40318,383.58918,434.50619,380.24189Z" style="fill:#a8915b;stroke:#442a0c;stroke-linecap:round;stroke-linejoin:round;stroke-width:2px"/></g></g></g></svg>